<svg width="40" height="78" viewBox="0 0 40 78" fill="none" xmlns="http://www.w3.org/2000/svg">
<path d="M36.8812 7.09798C37.8869 4.5262 36.6173 1.62609 34.0456 0.620413C31.4738 -0.385267 28.5737 0.88431 27.568 3.45609L36.8812 7.09798ZM27.568 3.45609L19.3759 24.4055L28.6891 28.0474L36.8812 7.09798L27.568 3.45609Z" fill="#363EFF"/>
<line x1="23.7686" y1="28.5201" x2="10.063" y2="63.8855" stroke="#575757" stroke-width="10"/>
<path d="M4.59475 75.8737L4.71964 64.0022L12.6246 67.1291L4.59475 75.8737Z" fill="#464343"/>
<line x1="31.7847" y1="6.60952" x2="38.565" y2="9.13612" stroke="#363EFF" stroke-width="2"/>
<path d="M29.1329 30.6034C28.942 31.1216 29.2074 31.6965 29.7257 31.8873C30.2439 32.0782 30.8188 31.8128 31.0097 31.2945L29.1329 30.6034ZM31.0097 31.2945L39.3531 8.64004L37.4763 7.94885L29.1329 30.6034L31.0097 31.2945Z" fill="#363EFF"/>
</svg>
