<svg width="189" height="205" viewBox="0 0 189 205" fill="none" xmlns="http://www.w3.org/2000/svg">
<g filter="url(#filter0_d_65_86)">
<path d="M183 29C183 17.9543 174.046 9 163 9H9V188H183V29Z" fill="#131313"/>
</g>
<g filter="url(#filter1_f_65_86)">
<path d="M41.584 31.016C42.0373 31.016 42.448 31.056 42.816 31.136C43.184 31.216 43.5333 31.328 43.864 31.472L43.432 32.472C43.16 32.3547 42.872 32.2667 42.568 32.208C42.264 32.1493 41.9493 32.12 41.624 32.12C41.0373 32.12 40.5947 32.2347 40.296 32.464C40.0027 32.6933 39.856 33.0453 39.856 33.52V35.232H42.712L42.568 36.288H39.856V43H38.512V36.288H36.504V35.232H38.512V33.552C38.512 33.0293 38.6453 32.5787 38.912 32.2C39.184 31.8213 39.552 31.5307 40.016 31.328C40.48 31.12 41.0027 31.016 41.584 31.016ZM47.5458 34.576V40.544C47.5458 41.0987 47.6604 41.4987 47.8898 41.744C48.1191 41.9893 48.4764 42.112 48.9618 42.112C49.4258 42.112 49.8631 41.9813 50.2738 41.72C50.6898 41.4533 51.0124 41.1387 51.2418 40.776V34.576H52.5858V43H51.4418L51.3298 41.864C50.9991 42.2907 50.5911 42.6187 50.1058 42.848C49.6204 43.072 49.1298 43.184 48.6337 43.184C47.8178 43.184 47.2071 42.968 46.8018 42.536C46.4018 42.0987 46.2018 41.488 46.2018 40.704V34.576H47.5458ZM55.7955 43V34.576H56.9395L57.0435 35.744C57.3848 35.312 57.8115 34.9813 58.3235 34.752C58.8408 34.5173 59.3422 34.4 59.8275 34.4C60.6542 34.4 61.2542 34.6187 61.6275 35.056C62.0062 35.4933 62.1955 36.1013 62.1955 36.88V43H60.8515V37.872C60.8515 37.296 60.8195 36.832 60.7555 36.48C60.6915 36.1227 60.5582 35.864 60.3555 35.704C60.1528 35.5387 59.8382 35.456 59.4115 35.456C59.0808 35.456 58.7688 35.528 58.4755 35.672C58.1875 35.816 57.9288 35.9973 57.6995 36.216C57.4755 36.4293 57.2888 36.6453 57.1395 36.864V43H55.7955ZM69.1973 42.024C69.6186 42.024 70.0106 41.9547 70.3733 41.816C70.7413 41.6773 71.0799 41.5013 71.3893 41.288L72.0452 42.168C71.6773 42.4827 71.2346 42.7307 70.7173 42.912C70.1999 43.0933 69.6933 43.184 69.1973 43.184C68.3599 43.184 67.6453 43.0053 67.0533 42.648C66.4666 42.2853 66.0186 41.7787 65.7093 41.128C65.3999 40.472 65.2453 39.704 65.2453 38.824C65.2453 37.9813 65.3999 37.2267 65.7093 36.56C66.0239 35.888 66.4746 35.36 67.0613 34.976C67.6533 34.592 68.3706 34.4 69.2133 34.4C69.7519 34.4 70.2559 34.4827 70.7253 34.648C71.1999 34.808 71.6346 35.0507 72.0293 35.376L71.3733 36.272C71.0159 36.0213 70.6559 35.8347 70.2933 35.712C69.9359 35.584 69.5706 35.52 69.1973 35.52C68.4719 35.52 67.8746 35.792 67.4053 36.336C66.9359 36.88 66.7013 37.7093 66.7013 38.824C66.7013 39.5707 66.8079 40.1813 67.0213 40.656C67.2399 41.1253 67.5359 41.472 67.9093 41.696C68.2879 41.9147 68.7173 42.024 69.1973 42.024ZM81.671 42.576C81.383 42.768 81.0337 42.9173 80.623 43.024C80.2123 43.1307 79.8097 43.184 79.415 43.184C78.5083 43.184 77.8097 42.9467 77.319 42.472C76.8283 41.9973 76.583 41.3867 76.583 40.64V35.616H74.647V34.576H76.583V32.664L77.927 32.504V34.576H80.839L80.679 35.616H77.927V40.624C77.927 41.0933 78.0497 41.4507 78.295 41.696C78.5457 41.9413 78.959 42.064 79.535 42.064C79.8497 42.064 80.1403 42.0267 80.407 41.952C80.6737 41.8773 80.9217 41.7813 81.151 41.664L81.671 42.576ZM88.8408 34.576V41.936H91.2168V43H84.8968V41.936H87.4968V35.64H84.9768V34.576H88.8408ZM87.7688 30.632C88.0674 30.632 88.3048 30.7227 88.4808 30.904C88.6621 31.0853 88.7528 31.3067 88.7528 31.568C88.7528 31.84 88.6621 32.0693 88.4808 32.256C88.3048 32.4373 88.0674 32.528 87.7688 32.528C87.4861 32.528 87.2541 32.4373 87.0728 32.256C86.8914 32.0693 86.8008 31.84 86.8008 31.568C86.8008 31.3067 86.8914 31.0853 87.0728 30.904C87.2541 30.7227 87.4861 30.632 87.7688 30.632ZM97.3785 34.4C98.1732 34.4 98.8372 34.5813 99.3705 34.944C99.9092 35.3013 100.312 35.808 100.579 36.464C100.851 37.12 100.987 37.8933 100.987 38.784C100.987 39.6427 100.848 40.4027 100.571 41.064C100.293 41.7253 99.8852 42.2453 99.3465 42.624C98.8132 42.9973 98.1518 43.184 97.3625 43.184C96.5732 43.184 95.9092 43.0027 95.3705 42.64C94.8318 42.2773 94.4238 41.768 94.1465 41.112C93.8745 40.4507 93.7385 39.68 93.7385 38.8C93.7385 37.9307 93.8772 37.1653 94.1545 36.504C94.4318 35.8427 94.8398 35.328 95.3785 34.96C95.9225 34.5867 96.5892 34.4 97.3785 34.4ZM97.3785 35.496C96.6532 35.496 96.1038 35.7653 95.7305 36.304C95.3625 36.8373 95.1785 37.6693 95.1785 38.8C95.1785 39.9093 95.3598 40.7333 95.7225 41.272C96.0905 41.8107 96.6372 42.08 97.3625 42.08C98.0878 42.08 98.6318 41.8107 98.9945 41.272C99.3625 40.7333 99.5465 39.904 99.5465 38.784C99.5465 37.664 99.3652 36.8373 99.0025 36.304C98.6398 35.7653 98.0985 35.496 97.3785 35.496ZM103.764 43V34.576H104.908L105.012 35.744C105.354 35.312 105.78 34.9813 106.292 34.752C106.81 34.5173 107.311 34.4 107.796 34.4C108.623 34.4 109.223 34.6187 109.596 35.056C109.975 35.4933 110.164 36.1013 110.164 36.88V43H108.82V37.872C108.82 37.296 108.788 36.832 108.724 36.48C108.66 36.1227 108.527 35.864 108.324 35.704C108.122 35.5387 107.807 35.456 107.38 35.456C107.05 35.456 106.738 35.528 106.444 35.672C106.156 35.816 105.898 35.9973 105.668 36.216C105.444 36.4293 105.258 36.6453 105.108 36.864V43H103.764Z" fill="#5789EA"/>
<path d="M115.15 37.4C115.15 38.232 115.222 38.9787 115.366 39.64C115.51 40.296 115.723 40.8987 116.006 41.448C116.289 41.992 116.643 42.5093 117.07 43C117.502 43.496 118.003 43.9973 118.574 44.504L117.87 45.24C117.006 44.5307 116.265 43.8053 115.646 43.064C115.033 42.3227 114.561 41.496 114.23 40.584C113.905 39.672 113.742 38.6107 113.742 37.4C113.742 36.184 113.905 35.12 114.23 34.208C114.561 33.296 115.033 32.4693 115.646 31.728C116.265 30.9867 117.006 30.264 117.87 29.56L118.574 30.296C117.998 30.808 117.494 31.312 117.062 31.808C116.635 32.2987 116.281 32.816 115.998 33.36C115.715 33.8987 115.502 34.4987 115.358 35.16C115.219 35.816 115.15 36.5627 115.15 37.4ZM127.544 37.4C127.544 36.5627 127.472 35.816 127.328 35.16C127.189 34.4987 126.978 33.8987 126.696 33.36C126.413 32.816 126.056 32.2987 125.624 31.808C125.197 31.312 124.696 30.808 124.12 30.296L124.824 29.56C125.693 30.264 126.434 30.9867 127.048 31.728C127.661 32.4693 128.13 33.296 128.456 34.208C128.786 35.12 128.952 36.184 128.952 37.4C128.952 38.6107 128.786 39.672 128.456 40.584C128.13 41.496 127.661 42.3227 127.048 43.064C126.434 43.8053 125.693 44.5307 124.824 45.24L124.12 44.504C124.69 43.9973 125.189 43.496 125.616 43C126.048 42.5093 126.405 41.992 126.688 41.448C126.97 40.8987 127.184 40.296 127.328 39.64C127.472 38.9787 127.544 38.232 127.544 37.4Z" fill="white"/>
<path d="M145.995 33.176V43H144.611V33.176H141.171V31.984H149.483L149.339 33.176H145.995ZM153.077 31.056V35.728C153.408 35.2853 153.813 34.9547 154.293 34.736C154.778 34.512 155.269 34.4 155.765 34.4C156.586 34.4 157.186 34.6187 157.565 35.056C157.944 35.4933 158.133 36.1013 158.133 36.88V43H156.789V36.912C156.789 36.4053 156.672 36.0373 156.437 35.808C156.202 35.5733 155.834 35.456 155.333 35.456C155.013 35.456 154.709 35.528 154.421 35.672C154.133 35.816 153.874 35.9947 153.645 36.208C153.416 36.4213 153.226 36.64 153.077 36.864V43H151.733V31.2L153.077 31.056ZM162.383 39.264C162.409 39.9147 162.535 40.448 162.759 40.864C162.983 41.2747 163.279 41.5787 163.647 41.776C164.015 41.968 164.415 42.064 164.847 42.064C165.279 42.064 165.668 42 166.015 41.872C166.367 41.744 166.727 41.5547 167.095 41.304L167.727 42.192C167.332 42.5013 166.881 42.744 166.375 42.92C165.873 43.096 165.359 43.184 164.831 43.184C164.015 43.184 163.319 43 162.743 42.632C162.167 42.264 161.727 41.752 161.423 41.096C161.124 40.4347 160.975 39.6693 160.975 38.8C160.975 37.9467 161.127 37.1893 161.431 36.528C161.735 35.8667 162.161 35.3467 162.711 34.968C163.26 34.5893 163.908 34.4 164.655 34.4C165.364 34.4 165.975 34.568 166.487 34.904C166.999 35.2347 167.391 35.7093 167.663 36.328C167.94 36.9413 168.079 37.6747 168.079 38.528C168.079 38.672 168.076 38.808 168.071 38.936C168.065 39.0587 168.057 39.168 168.047 39.264H162.383ZM164.671 35.504C164.047 35.504 163.524 35.7253 163.103 36.168C162.687 36.6107 162.449 37.296 162.391 38.224H166.783C166.767 37.3227 166.569 36.6453 166.191 36.192C165.812 35.7333 165.305 35.504 164.671 35.504ZM36.688 64V62.968H38V56.608H36.688V55.576H39.024L39.272 57.568C39.5973 56.8747 39.992 56.3387 40.456 55.96C40.92 55.5813 41.5333 55.392 42.296 55.392C42.5307 55.392 42.7387 55.4107 42.92 55.448C43.1067 55.48 43.296 55.5227 43.488 55.576L43.096 56.776C42.92 56.728 42.76 56.6933 42.616 56.672C42.472 56.6453 42.3067 56.632 42.12 56.632C41.4747 56.632 40.92 56.8613 40.456 57.32C39.992 57.7787 39.6213 58.472 39.344 59.4V62.968H41.056V64H36.688ZM42.192 58.424V56.592L42.328 55.576H43.488L43.296 58.424H42.192ZM47.2578 60.264C47.2844 60.9147 47.4098 61.448 47.6338 61.864C47.8578 62.2747 48.1538 62.5787 48.5218 62.776C48.8898 62.968 49.2898 63.064 49.7218 63.064C50.1538 63.064 50.5431 63 50.8898 62.872C51.2418 62.744 51.6018 62.5547 51.9698 62.304L52.6018 63.192C52.2071 63.5013 51.7564 63.744 51.2498 63.92C50.7484 64.096 50.2338 64.184 49.7058 64.184C48.8898 64.184 48.1938 64 47.6178 63.632C47.0418 63.264 46.6018 62.752 46.2978 62.096C45.9991 61.4347 45.8498 60.6693 45.8498 59.8C45.8498 58.9467 46.0018 58.1893 46.3058 57.528C46.6098 56.8667 47.0364 56.3467 47.5858 55.968C48.1351 55.5893 48.7831 55.4 49.5298 55.4C50.2391 55.4 50.8498 55.568 51.3618 55.904C51.8738 56.2347 52.2658 56.7093 52.5378 57.328C52.8151 57.9413 52.9538 58.6747 52.9538 59.528C52.9538 59.672 52.9511 59.808 52.9458 59.936C52.9404 60.0587 52.9324 60.168 52.9218 60.264H47.2578ZM49.5458 56.504C48.9218 56.504 48.3991 56.7253 47.9778 57.168C47.5618 57.6107 47.3244 58.296 47.2658 59.224H51.6578C51.6418 58.3227 51.4444 57.6453 51.0658 57.192C50.6871 56.7333 50.1804 56.504 49.5458 56.504ZM59.6035 63.024C60.0248 63.024 60.4168 62.9547 60.7795 62.816C61.1475 62.6773 61.4862 62.5013 61.7955 62.288L62.4515 63.168C62.0835 63.4827 61.6408 63.7307 61.1235 63.912C60.6062 64.0933 60.0995 64.184 59.6035 64.184C58.7662 64.184 58.0515 64.0053 57.4595 63.648C56.8728 63.2853 56.4248 62.7787 56.1155 62.128C55.8062 61.472 55.6515 60.704 55.6515 59.824C55.6515 58.9813 55.8062 58.2267 56.1155 57.56C56.4302 56.888 56.8808 56.36 57.4675 55.976C58.0595 55.592 58.7768 55.4 59.6195 55.4C60.1582 55.4 60.6622 55.4827 61.1315 55.648C61.6062 55.808 62.0408 56.0507 62.4355 56.376L61.7795 57.272C61.4222 57.0213 61.0622 56.8347 60.6995 56.712C60.3422 56.584 59.9768 56.52 59.6035 56.52C58.8782 56.52 58.2808 56.792 57.8115 57.336C57.3422 57.88 57.1075 58.7093 57.1075 59.824C57.1075 60.5707 57.2142 61.1813 57.4275 61.656C57.6462 62.1253 57.9422 62.472 58.3155 62.696C58.6942 62.9147 59.1235 63.024 59.6035 63.024ZM66.4453 60.264C66.4719 60.9147 66.5973 61.448 66.8213 61.864C67.0453 62.2747 67.3413 62.5787 67.7093 62.776C68.0773 62.968 68.4773 63.064 68.9093 63.064C69.3413 63.064 69.7306 63 70.0773 62.872C70.4293 62.744 70.7893 62.5547 71.1573 62.304L71.7893 63.192C71.3946 63.5013 70.9439 63.744 70.4373 63.92C69.9359 64.096 69.4213 64.184 68.8933 64.184C68.0773 64.184 67.3813 64 66.8053 63.632C66.2293 63.264 65.7893 62.752 65.4853 62.096C65.1866 61.4347 65.0373 60.6693 65.0373 59.8C65.0373 58.9467 65.1893 58.1893 65.4933 57.528C65.7973 56.8667 66.2239 56.3467 66.7733 55.968C67.3226 55.5893 67.9706 55.4 68.7173 55.4C69.4266 55.4 70.0373 55.568 70.5493 55.904C71.0613 56.2347 71.4533 56.7093 71.7253 57.328C72.0026 57.9413 72.1413 58.6747 72.1413 59.528C72.1413 59.672 72.1386 59.808 72.1333 59.936C72.1279 60.0587 72.1199 60.168 72.1093 60.264H66.4453ZM68.7333 56.504C68.1093 56.504 67.5866 56.7253 67.1653 57.168C66.7493 57.6107 66.5119 58.296 66.4533 59.224H70.8453C70.8293 58.3227 70.6319 57.6453 70.2533 57.192C69.8746 56.7333 69.3679 56.504 68.7333 56.504ZM79.247 55.576V62.936H81.623V64H75.303V62.936H77.903V56.64H75.383V55.576H79.247ZM78.175 51.632C78.4737 51.632 78.711 51.7227 78.887 51.904C79.0683 52.0853 79.159 52.3067 79.159 52.568C79.159 52.84 79.0683 53.0693 78.887 53.256C78.711 53.4373 78.4737 53.528 78.175 53.528C77.8923 53.528 77.6603 53.4373 77.479 53.256C77.2977 53.0693 77.207 52.84 77.207 52.568C77.207 52.3067 77.2977 52.0853 77.479 51.904C77.6603 51.7227 77.8923 51.632 78.175 51.632ZM91.6007 55.576L88.5368 64H86.9768L83.9368 55.576H85.3608L87.8008 62.776L90.2088 55.576H91.6007ZM95.2265 60.264C95.2532 60.9147 95.3785 61.448 95.6025 61.864C95.8265 62.2747 96.1225 62.5787 96.4905 62.776C96.8585 62.968 97.2585 63.064 97.6905 63.064C98.1225 63.064 98.5118 63 98.8585 62.872C99.2105 62.744 99.5705 62.5547 99.9385 62.304L100.571 63.192C100.176 63.5013 99.7252 63.744 99.2185 63.92C98.7172 64.096 98.2025 64.184 97.6745 64.184C96.8585 64.184 96.1625 64 95.5865 63.632C95.0105 63.264 94.5705 62.752 94.2665 62.096C93.9678 61.4347 93.8185 60.6693 93.8185 59.8C93.8185 58.9467 93.9705 58.1893 94.2745 57.528C94.5785 56.8667 95.0052 56.3467 95.5545 55.968C96.1038 55.5893 96.7518 55.4 97.4985 55.4C98.2078 55.4 98.8185 55.568 99.3305 55.904C99.8425 56.2347 100.235 56.7093 100.507 57.328C100.784 57.9413 100.923 58.6747 100.923 59.528C100.923 59.672 100.92 59.808 100.915 59.936C100.909 60.0587 100.901 60.168 100.891 60.264H95.2265ZM97.5145 56.504C96.8905 56.504 96.3678 56.7253 95.9465 57.168C95.5305 57.6107 95.2932 58.296 95.2345 59.224H99.6265C99.6105 58.3227 99.4132 57.6453 99.0345 57.192C98.6558 56.7333 98.1492 56.504 97.5145 56.504ZM103.844 64V62.968H105.156V56.608H103.844V55.576H106.18L106.428 57.568C106.754 56.8747 107.148 56.3387 107.612 55.96C108.076 55.5813 108.69 55.392 109.452 55.392C109.687 55.392 109.895 55.4107 110.076 55.448C110.263 55.48 110.452 55.5227 110.644 55.576L110.252 56.776C110.076 56.728 109.916 56.6933 109.772 56.672C109.628 56.6453 109.463 56.632 109.276 56.632C108.631 56.632 108.076 56.8613 107.612 57.32C107.148 57.7787 106.778 58.472 106.5 59.4V62.968H108.212V64H103.844ZM109.348 58.424V56.592L109.484 55.576H110.644L110.452 58.424H109.348ZM129.192 64H127.288L126.2 57.816L125.016 64H123.16L121.624 55.576H123L124.072 63.168L125.416 56.648H127.008L128.28 63.168L129.352 55.576H130.664L129.192 64ZM136.81 55.576V62.936H139.186V64H132.866V62.936H135.466V56.64H132.946V55.576H136.81ZM135.738 51.632C136.036 51.632 136.274 51.7227 136.45 51.904C136.631 52.0853 136.722 52.3067 136.722 52.568C136.722 52.84 136.631 53.0693 136.45 53.256C136.274 53.4373 136.036 53.528 135.738 53.528C135.455 53.528 135.223 53.4373 135.042 53.256C134.86 53.0693 134.77 52.84 134.77 52.568C134.77 52.3067 134.86 52.0853 135.042 51.904C135.223 51.7227 135.455 51.632 135.738 51.632ZM145.419 52.184V61.92C145.419 62.336 145.547 62.632 145.803 62.808C146.065 62.9787 146.401 63.064 146.811 63.064C147.067 63.064 147.31 63.0373 147.539 62.984C147.769 62.9307 147.998 62.8587 148.227 62.768L148.587 63.752C148.358 63.864 148.073 63.9627 147.731 64.048C147.395 64.1387 147.014 64.184 146.587 64.184C145.841 64.184 145.235 63.9787 144.771 63.568C144.307 63.152 144.075 62.5787 144.075 61.848V53.248H141.491V52.184H145.419ZM155.013 52.184V61.92C155.013 62.336 155.141 62.632 155.397 62.808C155.658 62.9787 155.994 63.064 156.405 63.064C156.661 63.064 156.904 63.0373 157.133 62.984C157.362 62.9307 157.592 62.8587 157.821 62.768L158.181 63.752C157.952 63.864 157.666 63.9627 157.325 64.048C156.989 64.1387 156.608 64.184 156.181 64.184C155.434 64.184 154.829 63.9787 154.365 63.568C153.901 63.152 153.669 62.5787 153.669 61.848V53.248H151.085V52.184H155.013ZM40.416 84.024C40.8373 84.024 41.2293 83.9547 41.592 83.816C41.96 83.6773 42.2987 83.5013 42.608 83.288L43.264 84.168C42.896 84.4827 42.4533 84.7307 41.936 84.912C41.4187 85.0933 40.912 85.184 40.416 85.184C39.5787 85.184 38.864 85.0053 38.272 84.648C37.6853 84.2853 37.2373 83.7787 36.928 83.128C36.6187 82.472 36.464 81.704 36.464 80.824C36.464 79.9813 36.6187 79.2267 36.928 78.56C37.2427 77.888 37.6933 77.36 38.28 76.976C38.872 76.592 39.5893 76.4 40.432 76.4C40.9707 76.4 41.4747 76.4827 41.944 76.648C42.4187 76.808 42.8533 77.0507 43.248 77.376L42.592 78.272C42.2347 78.0213 41.8747 77.8347 41.512 77.712C41.1547 77.584 40.7893 77.52 40.416 77.52C39.6907 77.52 39.0933 77.792 38.624 78.336C38.1547 78.88 37.92 79.7093 37.92 80.824C37.92 81.5707 38.0267 82.1813 38.24 82.656C38.4587 83.1253 38.7547 83.472 39.128 83.696C39.5067 83.9147 39.936 84.024 40.416 84.024ZM49.4098 76.4C50.2044 76.4 50.8684 76.5813 51.4018 76.944C51.9404 77.3013 52.3431 77.808 52.6098 78.464C52.8818 79.12 53.0178 79.8933 53.0178 80.784C53.0178 81.6427 52.8791 82.4027 52.6018 83.064C52.3244 83.7253 51.9164 84.2453 51.3778 84.624C50.8444 84.9973 50.1831 85.184 49.3938 85.184C48.6044 85.184 47.9404 85.0027 47.4018 84.64C46.8631 84.2773 46.4551 83.768 46.1778 83.112C45.9058 82.4507 45.7697 81.68 45.7697 80.8C45.7697 79.9307 45.9084 79.1653 46.1858 78.504C46.4631 77.8427 46.8711 77.328 47.4098 76.96C47.9538 76.5867 48.6204 76.4 49.4098 76.4ZM49.4098 77.496C48.6844 77.496 48.1351 77.7653 47.7618 78.304C47.3938 78.8373 47.2098 79.6693 47.2098 80.8C47.2098 81.9093 47.3911 82.7333 47.7538 83.272C48.1218 83.8107 48.6684 84.08 49.3938 84.08C50.1191 84.08 50.6631 83.8107 51.0258 83.272C51.3938 82.7333 51.5778 81.904 51.5778 80.784C51.5778 79.664 51.3964 78.8373 51.0338 78.304C50.6711 77.7653 50.1298 77.496 49.4098 77.496ZM55.7955 85V76.576H56.9395L57.0435 77.744C57.3848 77.312 57.8115 76.9813 58.3235 76.752C58.8408 76.5173 59.3422 76.4 59.8275 76.4C60.6542 76.4 61.2542 76.6187 61.6275 77.056C62.0062 77.4933 62.1955 78.1013 62.1955 78.88V85H60.8515V79.872C60.8515 79.296 60.8195 78.832 60.7555 78.48C60.6915 78.1227 60.5582 77.864 60.3555 77.704C60.1528 77.5387 59.8382 77.456 59.4115 77.456C59.0808 77.456 58.7688 77.528 58.4755 77.672C58.1875 77.816 57.9288 77.9973 57.6995 78.216C57.4755 78.4293 57.2888 78.6453 57.1395 78.864V85H55.7955ZM70.3653 73.016C70.8186 73.016 71.2293 73.056 71.5973 73.136C71.9653 73.216 72.3146 73.328 72.6453 73.472L72.2133 74.472C71.9413 74.3547 71.6533 74.2667 71.3493 74.208C71.0453 74.1493 70.7306 74.12 70.4053 74.12C69.8186 74.12 69.3759 74.2347 69.0773 74.464C68.7839 74.6933 68.6373 75.0453 68.6373 75.52V77.232H71.4933L71.3493 78.288H68.6373V85H67.2933V78.288H65.2853V77.232H67.2933V75.552C67.2933 75.0293 67.4266 74.5787 67.6933 74.2C67.9653 73.8213 68.3333 73.5307 68.7973 73.328C69.2613 73.12 69.7839 73.016 70.3653 73.016ZM79.247 77.232V83.936H81.623V85H75.303V83.936H77.903V78.288H75.383V77.232H79.247ZM78.175 73.216C78.4737 73.216 78.711 73.3067 78.887 73.488C79.0683 73.6693 79.159 73.8907 79.159 74.152C79.159 74.424 79.0683 74.6533 78.887 74.84C78.711 75.0213 78.4737 75.112 78.175 75.112C77.8923 75.112 77.6603 75.0213 77.479 74.84C77.2977 74.6533 77.207 74.424 77.207 74.152C77.207 73.8907 77.2977 73.6693 77.479 73.488C77.6603 73.3067 77.8923 73.216 78.175 73.216ZM84.6568 85V83.968H85.9688V77.608H84.6568V76.576H86.9928L87.2408 78.568C87.5661 77.8747 87.9608 77.3387 88.4248 76.96C88.8888 76.5813 89.5021 76.392 90.2648 76.392C90.4994 76.392 90.7074 76.4107 90.8888 76.448C91.0754 76.48 91.2648 76.5227 91.4568 76.576L91.0648 77.776C90.8888 77.728 90.7288 77.6933 90.5848 77.672C90.4408 77.6453 90.2754 77.632 90.0888 77.632C89.4434 77.632 88.8888 77.8613 88.4248 78.32C87.9608 78.7787 87.5901 79.472 87.3128 80.4V83.968H89.0248V85H84.6568ZM90.1608 79.424V77.592L90.2968 76.576H91.4568L91.2648 79.424H90.1608ZM99.7225 76.4C99.9945 76.4 100.253 76.4587 100.499 76.576C100.749 76.6933 100.955 76.92 101.115 77.256C101.275 77.592 101.355 78.0827 101.355 78.728V85H100.107V78.944C100.107 78.416 100.075 78.0347 100.011 77.8C99.9465 77.5653 99.7625 77.448 99.4585 77.448C99.2078 77.448 98.9572 77.528 98.7065 77.688C98.4612 77.8427 98.2212 78.0987 97.9865 78.456V85H96.7305V78.944C96.7305 78.416 96.6985 78.0347 96.6345 77.8C96.5705 77.5653 96.3865 77.448 96.0825 77.448C95.8212 77.448 95.5678 77.528 95.3225 77.688C95.0825 77.8427 94.8452 78.0987 94.6105 78.456V85H93.3705V76.576H94.4265L94.5065 77.552C94.7358 77.2267 94.9918 76.9547 95.2745 76.736C95.5625 76.512 95.9172 76.4 96.3385 76.4C96.6585 76.4 96.9598 76.4773 97.2425 76.632C97.5252 76.7813 97.7332 77.0747 97.8665 77.512C98.0958 77.1813 98.3545 76.9147 98.6425 76.712C98.9305 76.504 99.2905 76.4 99.7225 76.4ZM120.046 84.576C119.758 84.768 119.409 84.9173 118.998 85.024C118.587 85.1307 118.185 85.184 117.79 85.184C116.883 85.184 116.185 84.9467 115.694 84.472C115.203 83.9973 114.958 83.3867 114.958 82.64V77.616H113.022V76.576H114.958V74.664L116.302 74.504V76.576H119.214L119.054 77.616H116.302V82.624C116.302 83.0933 116.425 83.4507 116.67 83.696C116.921 83.9413 117.334 84.064 117.91 84.064C118.225 84.064 118.515 84.0267 118.782 83.952C119.049 83.8773 119.297 83.7813 119.526 83.664L120.046 84.576ZM124.296 73.056V77.728C124.626 77.2853 125.032 76.9547 125.512 76.736C125.997 76.512 126.488 76.4 126.984 76.4C127.805 76.4 128.405 76.6187 128.784 77.056C129.162 77.4933 129.352 78.1013 129.352 78.88V85H128.008V78.912C128.008 78.4053 127.89 78.0373 127.656 77.808C127.421 77.5733 127.053 77.456 126.552 77.456C126.232 77.456 125.928 77.528 125.64 77.672C125.352 77.816 125.093 77.9947 124.864 78.208C124.634 78.4213 124.445 78.64 124.296 78.864V85H122.952V73.2L124.296 73.056ZM138.578 83.16C138.578 83.496 138.634 83.7413 138.746 83.896C138.858 84.0507 139.031 84.1653 139.266 84.24L138.938 85.184C138.575 85.136 138.258 85.0213 137.986 84.84C137.714 84.6533 137.516 84.3733 137.394 84C137.09 84.3893 136.711 84.6853 136.258 84.888C135.804 85.0853 135.303 85.184 134.754 85.184C133.911 85.184 133.247 84.9467 132.762 84.472C132.276 83.9973 132.034 83.368 132.034 82.584C132.034 81.7147 132.372 81.048 133.049 80.584C133.727 80.12 134.706 79.888 135.986 79.888H137.226V79.184C137.226 78.576 137.047 78.1467 136.69 77.896C136.338 77.64 135.847 77.512 135.218 77.512C134.94 77.512 134.615 77.5467 134.242 77.616C133.868 77.68 133.463 77.7893 133.026 77.944L132.674 76.928C133.191 76.736 133.676 76.6 134.13 76.52C134.583 76.44 135.015 76.4 135.426 76.4C136.476 76.4 137.263 76.6453 137.786 77.136C138.314 77.6213 138.578 78.2827 138.578 79.12V83.16ZM135.098 84.16C135.514 84.16 135.911 84.056 136.29 83.848C136.668 83.6347 136.98 83.3413 137.226 82.968V80.8H136.01C135.082 80.8 134.426 80.96 134.042 81.28C133.663 81.6 133.474 82.0293 133.474 82.568C133.474 83.0907 133.607 83.488 133.874 83.76C134.146 84.0267 134.554 84.16 135.098 84.16ZM148.827 84.576C148.539 84.768 148.19 84.9173 147.779 85.024C147.369 85.1307 146.966 85.184 146.571 85.184C145.665 85.184 144.966 84.9467 144.475 84.472C143.985 83.9973 143.739 83.3867 143.739 82.64V77.616H141.803V76.576H143.739V74.664L145.083 74.504V76.576H147.995L147.835 77.616H145.083V82.624C145.083 83.0933 145.206 83.4507 145.451 83.696C145.702 83.9413 146.115 84.064 146.691 84.064C147.006 84.064 147.297 84.0267 147.563 83.952C147.83 83.8773 148.078 83.7813 148.307 83.664L148.827 84.576ZM43.296 105.576C43.008 105.768 42.6587 105.917 42.248 106.024C41.8373 106.131 41.4347 106.184 41.04 106.184C40.1333 106.184 39.4347 105.947 38.944 105.472C38.4533 104.997 38.208 104.387 38.208 103.64V98.616H36.272V97.576H38.208V95.664L39.552 95.504V97.576H42.464L42.304 98.616H39.552V103.624C39.552 104.093 39.6747 104.451 39.92 104.696C40.1707 104.941 40.584 105.064 41.16 105.064C41.4747 105.064 41.7653 105.027 42.032 104.952C42.2987 104.877 42.5467 104.781 42.776 104.664L43.296 105.576ZM47.5458 94.056V98.728C47.8764 98.2853 48.2818 97.9547 48.7618 97.736C49.2471 97.512 49.7378 97.4 50.2338 97.4C51.0551 97.4 51.6551 97.6187 52.0338 98.056C52.4124 98.4933 52.6018 99.1013 52.6018 99.88V106H51.2578V99.912C51.2578 99.4053 51.1404 99.0373 50.9058 98.808C50.6711 98.5733 50.3031 98.456 49.8018 98.456C49.4818 98.456 49.1778 98.528 48.8898 98.672C48.6018 98.816 48.3431 98.9947 48.1138 99.208C47.8844 99.4213 47.6951 99.64 47.5458 99.864V106H46.2018V94.2L47.5458 94.056ZM56.8515 102.264C56.8782 102.915 57.0035 103.448 57.2275 103.864C57.4515 104.275 57.7475 104.579 58.1155 104.776C58.4835 104.968 58.8835 105.064 59.3155 105.064C59.7475 105.064 60.1368 105 60.4835 104.872C60.8355 104.744 61.1955 104.555 61.5635 104.304L62.1955 105.192C61.8008 105.501 61.3502 105.744 60.8435 105.92C60.3422 106.096 59.8275 106.184 59.2995 106.184C58.4835 106.184 57.7875 106 57.2115 105.632C56.6355 105.264 56.1955 104.752 55.8915 104.096C55.5928 103.435 55.4435 102.669 55.4435 101.8C55.4435 100.947 55.5955 100.189 55.8995 99.528C56.2035 98.8667 56.6302 98.3467 57.1795 97.968C57.7288 97.5893 58.3768 97.4 59.1235 97.4C59.8328 97.4 60.4435 97.568 60.9555 97.904C61.4675 98.2347 61.8595 98.7093 62.1315 99.328C62.4088 99.9413 62.5475 100.675 62.5475 101.528C62.5475 101.672 62.5448 101.808 62.5395 101.936C62.5342 102.059 62.5262 102.168 62.5155 102.264H56.8515ZM59.1395 98.504C58.5155 98.504 57.9928 98.7253 57.5715 99.168C57.1555 99.6107 56.9182 100.296 56.8595 101.224H61.2515C61.2355 100.323 61.0382 99.6453 60.6595 99.192C60.2808 98.7333 59.7742 98.504 59.1395 98.504ZM72.3973 97.576L69.4373 106.056C69.2399 106.627 68.9893 107.149 68.6853 107.624C68.3866 108.099 67.9946 108.491 67.5093 108.8C67.0293 109.115 66.4186 109.309 65.6773 109.384L65.4693 108.312C66.0506 108.216 66.5093 108.069 66.8453 107.872C67.1813 107.675 67.4453 107.421 67.6373 107.112C67.8346 106.803 68.0079 106.432 68.1573 106H67.7093L64.7653 97.576H66.2053L68.6213 104.976L71.0053 97.576H72.3973ZM85.9208 94.056V98.728C86.2514 98.2853 86.6568 97.9547 87.1368 97.736C87.6221 97.512 88.1128 97.4 88.6088 97.4C89.4301 97.4 90.0301 97.6187 90.4088 98.056C90.7874 98.4933 90.9768 99.1013 90.9768 99.88V106H89.6328V99.912C89.6328 99.4053 89.5154 99.0373 89.2808 98.808C89.0461 98.5733 88.6781 98.456 88.1768 98.456C87.8568 98.456 87.5528 98.528 87.2648 98.672C86.9768 98.816 86.7181 98.9947 86.4888 99.208C86.2594 99.4213 86.0701 99.64 85.9208 99.864V106H84.5768V94.2L85.9208 94.056ZM100.203 104.16C100.203 104.496 100.259 104.741 100.371 104.896C100.483 105.051 100.656 105.165 100.891 105.24L100.562 106.184C100.2 106.136 99.8825 106.021 99.6105 105.84C99.3385 105.653 99.1412 105.373 99.0185 105C98.7145 105.389 98.3358 105.685 97.8825 105.888C97.4292 106.085 96.9278 106.184 96.3785 106.184C95.5358 106.184 94.8718 105.947 94.3865 105.472C93.9012 104.997 93.6585 104.368 93.6585 103.584C93.6585 102.715 93.9972 102.048 94.6745 101.584C95.3518 101.12 96.3305 100.888 97.6105 100.888H98.8505V100.184C98.8505 99.576 98.6718 99.1467 98.3145 98.896C97.9625 98.64 97.4718 98.512 96.8425 98.512C96.5652 98.512 96.2398 98.5467 95.8665 98.616C95.4932 98.68 95.0878 98.7893 94.6505 98.944L94.2985 97.928C94.8158 97.736 95.3012 97.6 95.7545 97.52C96.2078 97.44 96.6398 97.4 97.0505 97.4C98.1012 97.4 98.8878 97.6453 99.4105 98.136C99.9385 98.6213 100.203 99.2827 100.203 100.12V104.16ZM96.7225 105.16C97.1385 105.16 97.5358 105.056 97.9145 104.848C98.2932 104.635 98.6052 104.341 98.8505 103.968V101.8H97.6345C96.7065 101.8 96.0505 101.96 95.6665 102.28C95.2878 102.6 95.0985 103.029 95.0985 103.568C95.0985 104.091 95.2318 104.488 95.4985 104.76C95.7705 105.027 96.1785 105.16 96.7225 105.16ZM110.788 97.576L107.724 106H106.164L103.124 97.576H104.548L106.988 104.776L109.396 97.576H110.788ZM114.414 102.264C114.441 102.915 114.566 103.448 114.79 103.864C115.014 104.275 115.31 104.579 115.678 104.776C116.046 104.968 116.446 105.064 116.878 105.064C117.31 105.064 117.699 105 118.046 104.872C118.398 104.744 118.758 104.555 119.126 104.304L119.758 105.192C119.363 105.501 118.913 105.744 118.406 105.92C117.905 106.096 117.39 106.184 116.862 106.184C116.046 106.184 115.35 106 114.774 105.632C114.198 105.264 113.758 104.752 113.454 104.096C113.155 103.435 113.006 102.669 113.006 101.8C113.006 100.947 113.158 100.189 113.462 99.528C113.766 98.8667 114.193 98.3467 114.742 97.968C115.291 97.5893 115.939 97.4 116.686 97.4C117.395 97.4 118.006 97.568 118.518 97.904C119.03 98.2347 119.422 98.7093 119.694 99.328C119.971 99.9413 120.11 100.675 120.11 101.528C120.11 101.672 120.107 101.808 120.102 101.936C120.097 102.059 120.089 102.168 120.078 102.264H114.414ZM116.702 98.504C116.078 98.504 115.555 98.7253 115.134 99.168C114.718 99.6107 114.481 100.296 114.422 101.224H118.814C118.798 100.323 118.601 99.6453 118.222 99.192C117.843 98.7333 117.337 98.504 116.702 98.504ZM36.688 127V125.968H38V119.608H36.688V118.576H39.024L39.272 120.568C39.5973 119.875 39.992 119.339 40.456 118.96C40.92 118.581 41.5333 118.392 42.296 118.392C42.5307 118.392 42.7387 118.411 42.92 118.448C43.1067 118.48 43.296 118.523 43.488 118.576L43.096 119.776C42.92 119.728 42.76 119.693 42.616 119.672C42.472 119.645 42.3067 119.632 42.12 119.632C41.4747 119.632 40.92 119.861 40.456 120.32C39.992 120.779 39.6213 121.472 39.344 122.4V125.968H41.056V127H36.688ZM42.192 121.424V119.592L42.328 118.576H43.488L43.296 121.424H42.192ZM47.2578 123.264C47.2844 123.915 47.4098 124.448 47.6338 124.864C47.8578 125.275 48.1538 125.579 48.5218 125.776C48.8898 125.968 49.2898 126.064 49.7218 126.064C50.1538 126.064 50.5431 126 50.8898 125.872C51.2418 125.744 51.6018 125.555 51.9698 125.304L52.6018 126.192C52.2071 126.501 51.7564 126.744 51.2498 126.92C50.7484 127.096 50.2338 127.184 49.7058 127.184C48.8898 127.184 48.1938 127 47.6178 126.632C47.0418 126.264 46.6018 125.752 46.2978 125.096C45.9991 124.435 45.8498 123.669 45.8498 122.8C45.8498 121.947 46.0018 121.189 46.3058 120.528C46.6098 119.867 47.0364 119.347 47.5858 118.968C48.1351 118.589 48.7831 118.4 49.5298 118.4C50.2391 118.4 50.8498 118.568 51.3618 118.904C51.8738 119.235 52.2658 119.709 52.5378 120.328C52.8151 120.941 52.9538 121.675 52.9538 122.528C52.9538 122.672 52.9511 122.808 52.9458 122.936C52.9404 123.059 52.9324 123.168 52.9218 123.264H47.2578ZM49.5458 119.504C48.9218 119.504 48.3991 119.725 47.9778 120.168C47.5618 120.611 47.3244 121.296 47.2658 122.224H51.6578C51.6418 121.323 51.4444 120.645 51.0658 120.192C50.6871 119.733 50.1804 119.504 49.5458 119.504ZM59.6035 126.024C60.0248 126.024 60.4168 125.955 60.7795 125.816C61.1475 125.677 61.4862 125.501 61.7955 125.288L62.4515 126.168C62.0835 126.483 61.6408 126.731 61.1235 126.912C60.6062 127.093 60.0995 127.184 59.6035 127.184C58.7662 127.184 58.0515 127.005 57.4595 126.648C56.8728 126.285 56.4248 125.779 56.1155 125.128C55.8062 124.472 55.6515 123.704 55.6515 122.824C55.6515 121.981 55.8062 121.227 56.1155 120.56C56.4302 119.888 56.8808 119.36 57.4675 118.976C58.0595 118.592 58.7768 118.4 59.6195 118.4C60.1582 118.4 60.6622 118.483 61.1315 118.648C61.6062 118.808 62.0408 119.051 62.4355 119.376L61.7795 120.272C61.4222 120.021 61.0622 119.835 60.6995 119.712C60.3422 119.584 59.9768 119.52 59.6035 119.52C58.8782 119.52 58.2808 119.792 57.8115 120.336C57.3422 120.88 57.1075 121.709 57.1075 122.824C57.1075 123.571 57.2142 124.181 57.4275 124.656C57.6462 125.125 57.9422 125.472 58.3155 125.696C58.6942 125.915 59.1235 126.024 59.6035 126.024ZM66.4453 123.264C66.4719 123.915 66.5973 124.448 66.8213 124.864C67.0453 125.275 67.3413 125.579 67.7093 125.776C68.0773 125.968 68.4773 126.064 68.9093 126.064C69.3413 126.064 69.7306 126 70.0773 125.872C70.4293 125.744 70.7893 125.555 71.1573 125.304L71.7893 126.192C71.3946 126.501 70.9439 126.744 70.4373 126.92C69.9359 127.096 69.4213 127.184 68.8933 127.184C68.0773 127.184 67.3813 127 66.8053 126.632C66.2293 126.264 65.7893 125.752 65.4853 125.096C65.1866 124.435 65.0373 123.669 65.0373 122.8C65.0373 121.947 65.1893 121.189 65.4933 120.528C65.7973 119.867 66.2239 119.347 66.7733 118.968C67.3226 118.589 67.9706 118.4 68.7173 118.4C69.4266 118.4 70.0373 118.568 70.5493 118.904C71.0613 119.235 71.4533 119.709 71.7253 120.328C72.0026 120.941 72.1413 121.675 72.1413 122.528C72.1413 122.672 72.1386 122.808 72.1333 122.936C72.1279 123.059 72.1199 123.168 72.1093 123.264H66.4453ZM68.7333 119.504C68.1093 119.504 67.5866 119.725 67.1653 120.168C66.7493 120.611 66.5119 121.296 66.4533 122.224H70.8453C70.8293 121.323 70.6319 120.645 70.2533 120.192C69.8746 119.733 69.3679 119.504 68.7333 119.504ZM79.247 118.576V125.936H81.623V127H75.303V125.936H77.903V119.64H75.383V118.576H79.247ZM78.175 114.632C78.4737 114.632 78.711 114.723 78.887 114.904C79.0683 115.085 79.159 115.307 79.159 115.568C79.159 115.84 79.0683 116.069 78.887 116.256C78.711 116.437 78.4737 116.528 78.175 116.528C77.8923 116.528 77.6603 116.437 77.479 116.256C77.2977 116.069 77.207 115.84 77.207 115.568C77.207 115.307 77.2977 115.085 77.479 114.904C77.6603 114.723 77.8923 114.632 78.175 114.632ZM91.6007 118.576L88.5368 127H86.9768L83.9368 118.576H85.3608L87.8008 125.776L90.2088 118.576H91.6007ZM95.2265 123.264C95.2532 123.915 95.3785 124.448 95.6025 124.864C95.8265 125.275 96.1225 125.579 96.4905 125.776C96.8585 125.968 97.2585 126.064 97.6905 126.064C98.1225 126.064 98.5118 126 98.8585 125.872C99.2105 125.744 99.5705 125.555 99.9385 125.304L100.571 126.192C100.176 126.501 99.7252 126.744 99.2185 126.92C98.7172 127.096 98.2025 127.184 97.6745 127.184C96.8585 127.184 96.1625 127 95.5865 126.632C95.0105 126.264 94.5705 125.752 94.2665 125.096C93.9678 124.435 93.8185 123.669 93.8185 122.8C93.8185 121.947 93.9705 121.189 94.2745 120.528C94.5785 119.867 95.0052 119.347 95.5545 118.968C96.1038 118.589 96.7518 118.4 97.4985 118.4C98.2078 118.4 98.8185 118.568 99.3305 118.904C99.8425 119.235 100.235 119.709 100.507 120.328C100.784 120.941 100.923 121.675 100.923 122.528C100.923 122.672 100.92 122.808 100.915 122.936C100.909 123.059 100.901 123.168 100.891 123.264H95.2265ZM97.5145 119.504C96.8905 119.504 96.3678 119.725 95.9465 120.168C95.5305 120.611 95.2932 121.296 95.2345 122.224H99.6265C99.6105 121.323 99.4132 120.645 99.0345 120.192C98.6558 119.733 98.1492 119.504 97.5145 119.504ZM108.804 115.016L110.148 115.184V127H108.972L108.844 125.888C108.53 126.336 108.167 126.664 107.756 126.872C107.351 127.08 106.916 127.184 106.452 127.184C105.722 127.184 105.119 127 104.644 126.632C104.17 126.264 103.818 125.752 103.588 125.096C103.359 124.435 103.244 123.669 103.244 122.8C103.244 121.957 103.375 121.205 103.636 120.544C103.898 119.877 104.274 119.355 104.764 118.976C105.26 118.592 105.855 118.4 106.548 118.4C107.034 118.4 107.46 118.485 107.828 118.656C108.196 118.821 108.522 119.067 108.804 119.392V115.016ZM106.9 119.48C106.196 119.48 105.655 119.755 105.276 120.304C104.898 120.853 104.708 121.685 104.708 122.8C104.708 123.525 104.786 124.133 104.94 124.624C105.095 125.115 105.322 125.483 105.62 125.728C105.924 125.973 106.295 126.096 106.732 126.096C107.212 126.096 107.62 125.96 107.956 125.688C108.298 125.416 108.58 125.109 108.804 124.768V120.56C108.575 120.219 108.298 119.955 107.972 119.768C107.647 119.576 107.29 119.48 106.9 119.48ZM129.64 126.576C129.352 126.768 129.002 126.917 128.592 127.024C128.181 127.131 127.778 127.184 127.384 127.184C126.477 127.184 125.778 126.947 125.288 126.472C124.797 125.997 124.552 125.387 124.552 124.64V119.616H122.616V118.576H124.552V116.664L125.896 116.504V118.576H128.808L128.648 119.616H125.896V124.624C125.896 125.093 126.018 125.451 126.264 125.696C126.514 125.941 126.928 126.064 127.504 126.064C127.818 126.064 128.109 126.027 128.376 125.952C128.642 125.877 128.89 125.781 129.12 125.664L129.64 126.576ZM133.89 115.056V119.728C134.22 119.285 134.626 118.955 135.106 118.736C135.591 118.512 136.082 118.4 136.578 118.4C137.399 118.4 137.999 118.619 138.378 119.056C138.756 119.493 138.946 120.101 138.946 120.88V127H137.602V120.912C137.602 120.405 137.484 120.037 137.25 119.808C137.015 119.573 136.647 119.456 136.146 119.456C135.826 119.456 135.522 119.528 135.234 119.672C134.946 119.816 134.687 119.995 134.458 120.208C134.228 120.421 134.039 120.64 133.89 120.864V127H132.546V115.2L133.89 115.056ZM143.195 123.264C143.222 123.915 143.347 124.448 143.571 124.864C143.795 125.275 144.091 125.579 144.459 125.776C144.827 125.968 145.227 126.064 145.659 126.064C146.091 126.064 146.481 126 146.827 125.872C147.179 125.744 147.539 125.555 147.907 125.304L148.539 126.192C148.145 126.501 147.694 126.744 147.187 126.92C146.686 127.096 146.171 127.184 145.643 127.184C144.827 127.184 144.131 127 143.555 126.632C142.979 126.264 142.539 125.752 142.235 125.096C141.937 124.435 141.787 123.669 141.787 122.8C141.787 121.947 141.939 121.189 142.243 120.528C142.547 119.867 142.974 119.347 143.523 118.968C144.073 118.589 144.721 118.4 145.467 118.4C146.177 118.4 146.787 118.568 147.299 118.904C147.811 119.235 148.203 119.709 148.475 120.328C148.753 120.941 148.891 121.675 148.891 122.528C148.891 122.672 148.889 122.808 148.883 122.936C148.878 123.059 148.87 123.168 148.859 123.264H143.195ZM145.483 119.504C144.859 119.504 144.337 119.725 143.915 120.168C143.499 120.611 143.262 121.296 143.203 122.224H147.595C147.579 121.323 147.382 120.645 147.003 120.192C146.625 119.733 146.118 119.504 145.483 119.504ZM42.168 144.904C42.168 144.349 42.0587 143.923 41.84 143.624C41.6267 143.32 41.3413 143.109 40.984 142.992C40.6267 142.875 40.2347 142.816 39.808 142.816H37.928V146.856H39.744C40.016 146.856 40.2933 146.829 40.576 146.776C40.8587 146.723 41.12 146.627 41.36 146.488C41.6053 146.349 41.8 146.155 41.944 145.904C42.0933 145.648 42.168 145.315 42.168 144.904ZM41.728 139.832C41.728 139.208 41.5333 138.765 41.144 138.504C40.76 138.237 40.2347 138.104 39.568 138.104H37.928V141.672H39.704C40.3547 141.672 40.8533 141.528 41.2 141.24C41.552 140.947 41.728 140.477 41.728 139.832ZM43.632 144.856C43.632 145.453 43.512 145.955 43.272 146.36C43.0373 146.765 42.72 147.088 42.32 147.328C41.9253 147.568 41.4827 147.741 40.992 147.848C40.5067 147.949 40.0107 148 39.504 148H36.544V136.984H39.256C39.7413 136.984 40.2133 137.029 40.672 137.12C41.136 137.205 41.552 137.355 41.92 137.568C42.2933 137.776 42.592 138.059 42.816 138.416C43.04 138.773 43.152 139.221 43.152 139.76C43.152 140.235 43.0533 140.637 42.856 140.968C42.664 141.293 42.4107 141.555 42.096 141.752C41.7867 141.949 41.456 142.088 41.104 142.168C41.5147 142.232 41.912 142.357 42.296 142.544C42.6853 142.725 43.0053 143.003 43.256 143.376C43.5067 143.744 43.632 144.237 43.632 144.856ZM49.4818 136.184V145.92C49.4818 146.336 49.6098 146.632 49.8658 146.808C50.1271 146.979 50.4631 147.064 50.8738 147.064C51.1298 147.064 51.3724 147.037 51.6018 146.984C51.8311 146.931 52.0604 146.859 52.2898 146.768L52.6498 147.752C52.4204 147.864 52.1351 147.963 51.7938 148.048C51.4578 148.139 51.0764 148.184 50.6498 148.184C49.9031 148.184 49.2978 147.979 48.8338 147.568C48.3698 147.152 48.1378 146.579 48.1378 145.848V137.248H45.5538V136.184H49.4818ZM59.0035 139.4C59.7982 139.4 60.4622 139.581 60.9955 139.944C61.5342 140.301 61.9368 140.808 62.2035 141.464C62.4755 142.12 62.6115 142.893 62.6115 143.784C62.6115 144.643 62.4728 145.403 62.1955 146.064C61.9182 146.725 61.5102 147.245 60.9715 147.624C60.4382 147.997 59.7768 148.184 58.9875 148.184C58.1982 148.184 57.5342 148.003 56.9955 147.64C56.4568 147.277 56.0488 146.768 55.7715 146.112C55.4995 145.451 55.3635 144.68 55.3635 143.8C55.3635 142.931 55.5022 142.165 55.7795 141.504C56.0568 140.843 56.4648 140.328 57.0035 139.96C57.5475 139.587 58.2142 139.4 59.0035 139.4ZM59.0035 140.496C58.2782 140.496 57.7288 140.765 57.3555 141.304C56.9875 141.837 56.8035 142.669 56.8035 143.8C56.8035 144.909 56.9848 145.733 57.3475 146.272C57.7155 146.811 58.2622 147.08 58.9875 147.08C59.7128 147.08 60.2568 146.811 60.6195 146.272C60.9875 145.733 61.1715 144.904 61.1715 143.784C61.1715 142.664 60.9902 141.837 60.6275 141.304C60.2648 140.765 59.7235 140.496 59.0035 140.496ZM69.1973 147.024C69.6186 147.024 70.0106 146.955 70.3733 146.816C70.7413 146.677 71.0799 146.501 71.3893 146.288L72.0452 147.168C71.6773 147.483 71.2346 147.731 70.7173 147.912C70.1999 148.093 69.6933 148.184 69.1973 148.184C68.3599 148.184 67.6453 148.005 67.0533 147.648C66.4666 147.285 66.0186 146.779 65.7093 146.128C65.3999 145.472 65.2453 144.704 65.2453 143.824C65.2453 142.981 65.3999 142.227 65.7093 141.56C66.0239 140.888 66.4746 140.36 67.0613 139.976C67.6533 139.592 68.3706 139.4 69.2133 139.4C69.7519 139.4 70.2559 139.483 70.7253 139.648C71.1999 139.808 71.6346 140.051 72.0293 140.376L71.3733 141.272C71.0159 141.021 70.6559 140.835 70.2933 140.712C69.9359 140.584 69.5706 140.52 69.1973 140.52C68.4719 140.52 67.8746 140.792 67.4053 141.336C66.9359 141.88 66.7013 142.709 66.7013 143.824C66.7013 144.571 66.8079 145.181 67.0213 145.656C67.2399 146.125 67.5359 146.472 67.9093 146.696C68.2879 146.915 68.7173 147.024 69.1973 147.024ZM82.039 139.576L78.247 143.368L82.479 148H80.711L76.567 143.4L80.295 139.576H82.039ZM76.415 136.016V148H75.071V136.184L76.415 136.016ZM88.3848 147.024C88.8061 147.024 89.1981 146.955 89.5608 146.816C89.9288 146.677 90.2674 146.501 90.5768 146.288L91.2327 147.168C90.8648 147.483 90.4221 147.731 89.9048 147.912C89.3874 148.093 88.8808 148.184 88.3848 148.184C87.5474 148.184 86.8328 148.005 86.2408 147.648C85.6541 147.285 85.2061 146.779 84.8968 146.128C84.5874 145.472 84.4328 144.704 84.4328 143.824C84.4328 142.981 84.5874 142.227 84.8968 141.56C85.2114 140.888 85.6621 140.36 86.2488 139.976C86.8408 139.592 87.5581 139.4 88.4008 139.4C88.9394 139.4 89.4434 139.483 89.9128 139.648C90.3874 139.808 90.8221 140.051 91.2168 140.376L90.5608 141.272C90.2034 141.021 89.8434 140.835 89.4808 140.712C89.1234 140.584 88.7581 140.52 88.3848 140.52C87.6594 140.52 87.0621 140.792 86.5928 141.336C86.1234 141.88 85.8888 142.709 85.8888 143.824C85.8888 144.571 85.9954 145.181 86.2088 145.656C86.4274 146.125 86.7234 146.472 87.0968 146.696C87.4754 146.915 87.9048 147.024 88.3848 147.024ZM97.3785 139.4C98.1732 139.4 98.8372 139.581 99.3705 139.944C99.9092 140.301 100.312 140.808 100.579 141.464C100.851 142.12 100.987 142.893 100.987 143.784C100.987 144.643 100.848 145.403 100.571 146.064C100.293 146.725 99.8852 147.245 99.3465 147.624C98.8132 147.997 98.1518 148.184 97.3625 148.184C96.5732 148.184 95.9092 148.003 95.3705 147.64C94.8318 147.277 94.4238 146.768 94.1465 146.112C93.8745 145.451 93.7385 144.68 93.7385 143.8C93.7385 142.931 93.8772 142.165 94.1545 141.504C94.4318 140.843 94.8398 140.328 95.3785 139.96C95.9225 139.587 96.5892 139.4 97.3785 139.4ZM97.3785 140.496C96.6532 140.496 96.1038 140.765 95.7305 141.304C95.3625 141.837 95.1785 142.669 95.1785 143.8C95.1785 144.909 95.3598 145.733 95.7225 146.272C96.0905 146.811 96.6372 147.08 97.3625 147.08C98.0878 147.08 98.6318 146.811 98.9945 146.272C99.3625 145.733 99.5465 144.904 99.5465 143.784C99.5465 142.664 99.3652 141.837 99.0025 141.304C98.6398 140.765 98.0985 140.496 97.3785 140.496ZM108.028 139.576V146.936H110.404V148H104.084V146.936H106.684V140.64H104.164V139.576H108.028ZM106.956 135.632C107.255 135.632 107.492 135.723 107.668 135.904C107.85 136.085 107.94 136.307 107.94 136.568C107.94 136.84 107.85 137.069 107.668 137.256C107.492 137.437 107.255 137.528 106.956 137.528C106.674 137.528 106.442 137.437 106.26 137.256C106.079 137.069 105.988 136.84 105.988 136.568C105.988 136.307 106.079 136.085 106.26 135.904C106.442 135.723 106.674 135.632 106.956 135.632ZM113.358 148V139.576H114.502L114.606 140.744C114.947 140.312 115.374 139.981 115.886 139.752C116.403 139.517 116.905 139.4 117.39 139.4C118.217 139.4 118.817 139.619 119.19 140.056C119.569 140.493 119.758 141.101 119.758 141.88V148H118.414V142.872C118.414 142.296 118.382 141.832 118.318 141.48C118.254 141.123 118.121 140.864 117.918 140.704C117.715 140.539 117.401 140.456 116.974 140.456C116.643 140.456 116.331 140.528 116.038 140.672C115.75 140.816 115.491 140.997 115.262 141.216C115.038 141.429 114.851 141.645 114.702 141.864V148H113.358ZM125.816 147.072C126.461 147.072 126.97 146.952 127.344 146.712C127.722 146.467 127.912 146.141 127.912 145.736C127.912 145.48 127.864 145.259 127.768 145.072C127.677 144.885 127.488 144.717 127.2 144.568C126.912 144.419 126.469 144.269 125.872 144.12C125.29 143.976 124.784 143.811 124.352 143.624C123.925 143.432 123.592 143.184 123.352 142.88C123.117 142.576 123 142.181 123 141.696C123 141.221 123.133 140.813 123.4 140.472C123.672 140.125 124.048 139.861 124.528 139.68C125.008 139.493 125.565 139.4 126.2 139.4C126.877 139.4 127.466 139.491 127.968 139.672C128.474 139.848 128.904 140.067 129.256 140.328L128.664 141.24C128.344 141.021 127.992 140.843 127.608 140.704C127.224 140.56 126.76 140.488 126.216 140.488C125.554 140.488 125.085 140.592 124.808 140.8C124.53 141.003 124.392 141.267 124.392 141.592C124.392 141.837 124.458 142.043 124.592 142.208C124.73 142.368 124.962 142.515 125.288 142.648C125.613 142.776 126.061 142.917 126.632 143.072C127.181 143.216 127.658 143.389 128.064 143.592C128.474 143.795 128.794 144.061 129.024 144.392C129.253 144.723 129.368 145.149 129.368 145.672C129.368 146.269 129.197 146.755 128.856 147.128C128.514 147.496 128.072 147.765 127.528 147.936C126.989 148.101 126.418 148.184 125.816 148.184C125.053 148.184 124.402 148.075 123.864 147.856C123.33 147.632 122.882 147.363 122.52 147.048L123.288 146.16C123.618 146.432 123.997 146.653 124.424 146.824C124.856 146.989 125.32 147.072 125.816 147.072ZM134.322 146.768C134.322 146.507 134.383 146.272 134.506 146.064C134.628 145.851 134.794 145.683 135.002 145.56C135.215 145.432 135.455 145.368 135.722 145.368C135.994 145.368 136.236 145.432 136.45 145.56C136.663 145.683 136.831 145.851 136.954 146.064C137.076 146.272 137.138 146.507 137.138 146.768C137.138 147.029 137.076 147.269 136.954 147.488C136.831 147.701 136.663 147.872 136.45 148C136.236 148.123 135.994 148.184 135.722 148.184C135.455 148.184 135.215 148.123 135.002 148C134.794 147.872 134.628 147.701 134.506 147.488C134.383 147.269 134.322 147.029 134.322 146.768Z" fill="#FCFCFC"/>
</g>
<defs>
<filter id="filter0_d_65_86" x="0" y="0" width="200" height="205" filterUnits="userSpaceOnUse" color-interpolation-filters="sRGB">
<feFlood flood-opacity="0" result="BackgroundImageFix"/>
<feColorMatrix in="SourceAlpha" type="matrix" values="0 0 0 0 0 0 0 0 0 0 0 0 0 0 0 0 0 0 127 0" result="hardAlpha"/>
<feMorphology radius="3" operator="dilate" in="SourceAlpha" result="effect1_dropShadow_65_86"/>
<feOffset dx="4" dy="4"/>
<feGaussianBlur stdDeviation="5"/>
<feComposite in2="hardAlpha" operator="out"/>
<feColorMatrix type="matrix" values="0 0 0 0 0 0 0 0 0 0 0 0 0 0 0 0 0 0 0.25 0"/>
<feBlend mode="normal" in2="BackgroundImageFix" result="effect1_dropShadow_65_86"/>
<feBlend mode="normal" in="SourceGraphic" in2="effect1_dropShadow_65_86" result="shape"/>
</filter>
<filter id="filter1_f_65_86" x="32.272" y="25.56" width="139.807" height="126.624" filterUnits="userSpaceOnUse" color-interpolation-filters="sRGB">
<feFlood flood-opacity="0" result="BackgroundImageFix"/>
<feBlend mode="normal" in="SourceGraphic" in2="BackgroundImageFix" result="shape"/>
<feGaussianBlur stdDeviation="2" result="effect1_foregroundBlur_65_86"/>
</filter>
</defs>
</svg>
