<svg width="165" height="131" viewBox="0 0 165 131" fill="none" xmlns="http://www.w3.org/2000/svg">
<ellipse cx="82.5" cy="121" rx="82.5" ry="10" fill="#B0A9D1"/>
<line x1="87.6253" y1="87.7" x2="90.6253" y2="83.7" stroke="#272727"/>
<rect x="39.0253" y="15" width="87" height="87" rx="20" fill="#7AC1F4"/>
<ellipse cx="78.7932" cy="13.7527" rx="4.5" ry="13" transform="rotate(20.5012 78.7932 13.7527)" fill="#7AC1F4"/>
<ellipse cx="87.7932" cy="13.7527" rx="4.5" ry="13" transform="rotate(37.2295 87.7932 13.7527)" fill="#7AC1F4"/>
<path d="M109.914 63.6182C118.044 67.9309 127.826 66.5016 135.593 61.5648L155.811 48.7133C160.224 45.9087 161.527 40.0582 158.722 35.6459C155.918 31.2336 149.965 29.8812 146.354 33.662C138.035 42.3715 136.023 51.4215 113.135 53.4056C97.3035 54.778 102.378 59.6204 109.914 63.6182Z" fill="#7AC1F4"/>
<path d="M60.18 56.4013C51.9068 51.7816 41.7976 53.1058 33.8008 58.1889L14.4286 70.5024C9.77362 73.4613 8.39863 79.6335 11.3575 84.2885C14.3163 88.9435 20.6061 90.3609 24.3179 86.2809C32.2604 77.5504 34.3533 68.4389 57.2242 66.9682C73.3146 65.9335 67.9687 60.7504 60.18 56.4013Z" fill="#7AC1F4"/>
<ellipse cx="65.5253" cy="34" rx="3.5" ry="4" fill="#393939"/>
<ellipse cx="56.5253" cy="46" rx="7.5" ry="4" fill="#B1E5FE"/>
<ellipse cx="110.525" cy="46" rx="7.5" ry="4" fill="#B1E5FE"/>
<ellipse cx="99.5253" cy="34" rx="3.5" ry="4" fill="#393939"/>
<path d="M72.0253 43C72.0253 43 77.0577 47.5 82.5253 47.5C87.9928 47.5 93.0253 43 93.0253 43" stroke="#393939" stroke-width="3.5" stroke-linecap="round"/>
<rect x="58.0253" y="96" width="16" height="24" fill="#7AC1F4"/>
<rect x="92.0253" y="96" width="16" height="24" fill="#7AC1F4"/>
<rect x="92.0253" y="114" width="21" height="6" rx="3" fill="#7AC1F4"/>
<rect x="53.0253" y="114" width="21" height="6" rx="3" fill="#7AC1F4"/>
</svg>
