<svg width="65" height="60" viewBox="0 0 65 60" fill="none" xmlns="http://www.w3.org/2000/svg">
<g filter="url(#filter0_d_128_5)">
<rect x="3" y="13.6667" width="33.3333" height="35.3333" fill="#B0A9D1"/>
<path d="M36.3333 13.6154L53.6666 3V37.2051L36.3333 49V13.6154Z" fill="#6F9AB2"/>
<path d="M21.1635 3H53.6667L36.4591 13.6667H3L21.1635 3Z" fill="#D9D9D9"/>
</g>
<path d="M15.2045 36V34.9773L19.0455 30.7727C19.4962 30.2803 19.8674 29.8523 20.1591 29.4886C20.4508 29.1212 20.6667 28.7765 20.8068 28.4545C20.9508 28.1288 21.0227 27.7879 21.0227 27.4318C21.0227 27.0227 20.9242 26.6686 20.7273 26.3693C20.5341 26.0701 20.2689 25.839 19.9318 25.6761C19.5947 25.5133 19.2159 25.4318 18.7955 25.4318C18.3485 25.4318 17.9583 25.5246 17.625 25.7102C17.2955 25.892 17.0398 26.1477 16.858 26.4773C16.6799 26.8068 16.5909 27.1932 16.5909 27.6364H15.25C15.25 26.9545 15.4072 26.3561 15.7216 25.8409C16.036 25.3258 16.464 24.9242 17.0057 24.6364C17.5511 24.3485 18.1629 24.2045 18.8409 24.2045C19.5227 24.2045 20.1269 24.3485 20.6534 24.6364C21.1799 24.9242 21.5928 25.3125 21.892 25.8011C22.1913 26.2898 22.3409 26.8333 22.3409 27.4318C22.3409 27.8598 22.2633 28.2784 22.108 28.6875C21.9564 29.0928 21.6913 29.5455 21.3125 30.0455C20.9375 30.5417 20.4167 31.1477 19.75 31.8636L17.1364 34.6591V34.75H22.5455V36H15.2045Z" fill="white"/>
<defs>
<filter id="filter0_d_128_5" x="0" y="0" width="64.6667" height="60" filterUnits="userSpaceOnUse" color-interpolation-filters="sRGB">
<feFlood flood-opacity="0" result="BackgroundImageFix"/>
<feColorMatrix in="SourceAlpha" type="matrix" values="0 0 0 0 0 0 0 0 0 0 0 0 0 0 0 0 0 0 127 0" result="hardAlpha"/>
<feOffset dx="4" dy="4"/>
<feGaussianBlur stdDeviation="3.5"/>
<feComposite in2="hardAlpha" operator="out"/>
<feColorMatrix type="matrix" values="0 0 0 0 0 0 0 0 0 0 0 0 0 0 0 0 0 0 0.25 0"/>
<feBlend mode="normal" in2="BackgroundImageFix" result="effect1_dropShadow_128_5"/>
<feBlend mode="normal" in="SourceGraphic" in2="effect1_dropShadow_128_5" result="shape"/>
</filter>
</defs>
</svg>
