<svg width="163" height="164" viewBox="0 0 163 164" fill="none" xmlns="http://www.w3.org/2000/svg">
<path d="M101.672 47.78C102.656 45.1995 101.361 42.3107 98.78 41.3276C96.1995 40.3445 93.3107 41.6395 92.3276 44.22L101.672 47.78ZM92.3276 44.22L83.2011 68.176L92.546 71.7361L101.672 47.78L92.3276 44.22Z" fill="#363EFF"/>
<line x1="86.9434" y1="72.3261" x2="71.6778" y2="112.766" stroke="#575757" stroke-width="10"/>
<path d="M66.2193 126.729L66.243 113.199L75.2828 116.683L66.2193 126.729Z" fill="#464343"/>
<line x1="96.465" y1="47.6541" x2="104.217" y2="50.4657" stroke="#363EFF" stroke-width="2"/>
<path d="M93.8623 74.9401C93.676 75.46 93.9464 76.0325 94.4664 76.2188C94.9863 76.4052 95.5588 76.1347 95.7451 75.6148L93.8623 74.9401ZM95.7451 75.6148L105.027 49.7141L103.144 49.0394L93.8623 74.9401L95.7451 75.6148Z" fill="#363EFF"/>
<path d="M34.5 17L36.8574 23.9098H44.4861L38.3143 28.1803L40.6717 35.0902L34.5 30.8197L28.3283 35.0902L30.6857 28.1803L24.5139 23.9098H32.1426L34.5 17Z" fill="#F4CB62"/>
<path d="M10.5 57L12.8574 63.9098H20.4861L14.3143 68.1803L16.6717 75.0902L10.5 70.8197L4.32825 75.0902L6.68565 68.1803L0.513906 63.9098H8.1426L10.5 57Z" fill="#F4CB62"/>
<path d="M14.5 103L16.8574 109.91H24.4861L18.3143 114.18L20.6717 121.09L14.5 116.82L8.32825 121.09L10.6857 114.18L4.51391 109.91H12.1426L14.5 103Z" fill="#F4CB62"/>
<path d="M89.5 144L91.8574 150.91H99.4861L93.3143 155.18L95.6717 162.09L89.5 157.82L83.3283 162.09L85.6857 155.18L79.5139 150.91H87.1426L89.5 144Z" fill="#F4CB62"/>
<path d="M41.5 135L43.8574 141.91H51.4861L45.3143 146.18L47.6717 153.09L41.5 148.82L35.3283 153.09L37.6857 146.18L31.5139 141.91H39.1426L41.5 135Z" fill="#F4CB62"/>
<path d="M130.5 126L132.857 132.91H140.486L134.314 137.18L136.672 144.09L130.5 139.82L124.328 144.09L126.686 137.18L120.514 132.91H128.143L130.5 126Z" fill="#F4CB62"/>
<path d="M152.5 89L154.857 95.9098H162.486L156.314 100.18L158.672 107.09L152.5 102.82L146.328 107.09L148.686 100.18L142.514 95.9098H150.143L152.5 89Z" fill="#F4CB62"/>
<path d="M152.5 49L154.857 55.9098H162.486L156.314 60.1803L158.672 67.0902L152.5 62.8197L146.328 67.0902L148.686 60.1803L142.514 55.9098H150.143L152.5 49Z" fill="#F4CB62"/>
<path d="M131.5 15L133.857 21.9098H141.486L135.314 26.1803L137.672 33.0902L131.5 28.8197L125.328 33.0902L127.686 26.1803L121.514 21.9098H129.143L131.5 15Z" fill="#F4CB62"/>
<path d="M85 0L87.4697 7.25532H95.4616L88.996 11.7394L91.4656 18.9947L85 14.5106L78.5344 18.9947L81.004 11.7394L74.5384 7.25532H82.5303L85 0Z" fill="#F4CB62"/>
</svg>
