<svg width="165" height="172" viewBox="0 0 165 172" fill="none" xmlns="http://www.w3.org/2000/svg">
<ellipse cx="82.5" cy="162" rx="82.5" ry="10" fill="#D9D9D9"/>
<line x1="87.6254" y1="128.7" x2="90.6254" y2="124.7" stroke="#272727"/>
<rect x="39.0254" y="56" width="87" height="87" rx="20" fill="#7AC1F4"/>
<ellipse cx="78.7932" cy="54.7527" rx="4.5" ry="13" transform="rotate(20.5012 78.7932 54.7527)" fill="#7AC1F4"/>
<ellipse cx="87.7933" cy="54.7527" rx="4.5" ry="13" transform="rotate(37.2295 87.7933 54.7527)" fill="#7AC1F4"/>
<path d="M99.9393 93.9018C108.069 89.5891 117.851 91.0183 125.618 95.9552L145.837 108.807C150.249 111.611 151.552 117.462 148.748 121.874C145.943 126.286 139.991 127.639 136.38 123.858C128.061 115.148 126.048 106.098 103.16 104.114C87.3288 102.742 92.4031 97.8995 99.9393 93.9018Z" fill="#7AC1F4"/>
<path d="M60.1799 97.4013C51.9067 92.7816 41.7975 94.1058 33.8006 99.1889L14.4285 111.502C9.7735 114.461 8.39851 120.633 11.3574 125.288C14.3162 129.943 20.606 131.361 24.3178 127.281C32.2603 118.55 34.3531 109.439 57.224 107.968C73.3144 106.934 67.9686 101.75 60.1799 97.4013Z" fill="#7AC1F4"/>
<ellipse cx="65.5254" cy="75" rx="3.5" ry="4" fill="#393939"/>
<ellipse cx="56.5254" cy="87" rx="7.5" ry="4" fill="#B1E5FE"/>
<ellipse cx="110.525" cy="87" rx="7.5" ry="4" fill="#B1E5FE"/>
<ellipse cx="99.5254" cy="75" rx="3.5" ry="4" fill="#393939"/>
<path d="M92.8633 89.1552C92.8633 89.1552 88.1235 84.3479 82.6667 84.0044C77.21 83.6609 71.9048 87.8358 71.9048 87.8358" stroke="#393939" stroke-width="3.5" stroke-linecap="round"/>
<rect x="58.0254" y="137" width="16" height="24" fill="#7AC1F4"/>
<rect x="92.0254" y="137" width="16" height="24" fill="#7AC1F4"/>
<rect x="92.0254" y="155" width="21" height="6" rx="3" fill="#7AC1F4"/>
<rect x="53.0254" y="155" width="21" height="6" rx="3" fill="#7AC1F4"/>
<path d="M100.807 30.576C100.807 29.7867 100.935 29.0933 101.191 28.496C101.447 27.8987 101.778 27.3653 102.183 26.896C102.588 26.4267 103.015 25.9893 103.463 25.584C103.932 25.1787 104.37 24.784 104.775 24.4C105.18 24.016 105.511 23.6107 105.767 23.184C106.023 22.7573 106.151 22.2773 106.151 21.744C106.151 20.848 105.788 20.1227 105.063 19.568C104.338 19.0133 103.367 18.736 102.151 18.736C100.978 18.736 99.9538 18.9493 99.0791 19.376C98.2258 19.8027 97.5111 20.4107 96.9351 21.2L93.8311 19.184C94.7271 17.968 95.9005 17.0187 97.3511 16.336C98.8018 15.632 100.519 15.28 102.503 15.28C104.06 15.28 105.426 15.5147 106.599 15.984C107.772 16.432 108.69 17.0933 109.351 17.968C110.012 18.8213 110.343 19.8667 110.343 21.104C110.343 21.9573 110.204 22.704 109.927 23.344C109.671 23.984 109.33 24.5493 108.903 25.04C108.498 25.5093 108.06 25.9573 107.591 26.384C107.122 26.7893 106.674 27.1947 106.247 27.6C105.842 28.0053 105.511 28.4427 105.255 28.912C104.999 29.3813 104.871 29.936 104.871 30.576H100.807ZM102.855 38.224C102.108 38.224 101.49 37.9787 100.999 37.488C100.53 36.9973 100.295 36.4107 100.295 35.728C100.295 35.0453 100.53 34.4693 100.999 34C101.49 33.5093 102.108 33.264 102.855 33.264C103.602 33.264 104.21 33.5093 104.679 34C105.148 34.4693 105.383 35.0453 105.383 35.728C105.383 36.4107 105.148 36.9973 104.679 37.488C104.21 37.9787 103.602 38.224 102.855 38.224Z" fill="#323232"/>
<path d="M138.098 39.4473C138.382 38.7107 138.751 38.1097 139.204 37.6443C139.658 37.1788 140.158 36.7999 140.705 36.5076C141.252 36.2153 141.807 35.9605 142.371 35.7432C142.954 35.5336 143.504 35.3225 144.021 35.1098C144.537 34.8971 144.991 34.6377 145.383 34.3315C145.776 34.0253 146.068 33.6234 146.259 33.1257C146.581 32.2895 146.503 31.4823 146.026 30.704C145.548 29.9258 144.742 29.3182 143.607 28.8812C142.512 28.4595 141.48 28.2906 140.511 28.3745C139.561 28.466 138.675 28.7766 137.854 29.3062L135.682 26.3094C136.955 25.4967 138.391 25.0324 139.99 24.9166C141.597 24.7809 143.326 25.0696 145.178 25.7825C146.631 26.3422 147.821 27.0518 148.747 27.9114C149.681 28.7511 150.299 29.6979 150.602 30.7518C150.913 31.7858 150.846 32.8801 150.401 34.0348C150.094 34.8312 149.697 35.4781 149.208 35.9757C148.739 36.481 148.217 36.8859 147.643 37.1904C147.096 37.4828 146.527 37.7437 145.936 37.9732C145.352 38.1828 144.788 38.4001 144.244 38.625C143.72 38.8576 143.255 39.1469 142.847 39.4929C142.44 39.8389 142.121 40.3105 141.891 40.9077L138.098 39.4473ZM137.261 47.3204C136.564 47.0521 136.075 46.6008 135.794 45.9666C135.532 45.3401 135.524 44.7083 135.769 44.0712C136.014 43.4341 136.44 42.9809 137.047 42.7116C137.681 42.43 138.347 42.4234 139.044 42.6917C139.74 42.96 140.22 43.4075 140.481 44.034C140.751 44.6407 140.763 45.2625 140.517 45.8996C140.272 46.5366 139.842 46.9998 139.228 47.289C138.614 47.5783 137.958 47.5887 137.261 47.3204Z" fill="#323232"/>
<path d="M125.399 21.1476C125.518 20.4673 125.733 19.889 126.044 19.4129C126.354 18.9367 126.72 18.5269 127.14 18.1836C127.56 17.8403 127.994 17.5277 128.441 17.246C128.907 16.9675 129.344 16.6934 129.751 16.4236C130.158 16.1538 130.504 15.8544 130.789 15.5253C131.074 15.1962 131.257 14.8018 131.338 14.3421C131.473 13.5699 131.27 12.89 130.728 12.3024C130.187 11.7149 129.392 11.3293 128.344 11.1458C127.333 10.9687 126.418 10.998 125.6 11.2337C124.8 11.4726 124.092 11.8888 123.477 12.4821L121.106 10.2761C122.062 9.36325 123.216 8.72215 124.569 8.35274C125.926 7.96495 127.459 7.92079 129.169 8.22026C130.511 8.45533 131.653 8.86368 132.593 9.4453C133.537 10.0085 134.228 10.717 134.666 11.5707C135.107 12.406 135.234 13.3568 135.047 14.4233C134.918 15.1587 134.686 15.7814 134.351 16.2911C134.033 16.8041 133.654 17.2398 133.212 17.5983C132.792 17.9416 132.347 18.2617 131.878 18.5586C131.413 18.8371 130.965 19.1188 130.536 19.4038C130.126 19.692 129.775 20.019 129.483 20.3848C129.192 20.7507 128.998 21.2094 128.901 21.761L125.399 21.1476ZM126.009 28.0484C125.366 27.9357 124.87 27.6309 124.521 27.1339C124.19 26.6402 124.077 26.0991 124.18 25.5107C124.283 24.9224 124.572 24.4613 125.047 24.1277C125.544 23.7788 126.114 23.6608 126.758 23.7735C127.402 23.8862 127.889 24.1894 128.219 24.6832C128.553 25.1585 128.668 25.6904 128.565 26.2787C128.462 26.8671 128.171 27.3373 127.693 27.6894C127.214 28.0414 126.653 28.1611 126.009 28.0484Z" fill="#323232"/>
</svg>
