<svg width="252" height="259" viewBox="0 0 252 259" fill="none" xmlns="http://www.w3.org/2000/svg">
<g filter="url(#filter0_d_65_89)">
<path d="M6 225C6 236.046 14.9543 245 26 245H180L234.631 156.885C239.056 149.748 238.551 140.606 233.366 133.999L180 66L107.235 10.8878C100.255 5.60136 90.6481 5.46954 83.5259 10.5625L6 66V225Z" fill="#131313"/>
</g>
<g filter="url(#filter1_f_65_89)">
<path d="M27.952 78.984V80.096H25.504V88.888H27.952V90H21.648V88.888H24.096V80.096H21.648V78.984H27.952ZM36.1778 78.016C36.6311 78.016 37.0418 78.056 37.4098 78.136C37.7778 78.216 38.1271 78.328 38.4578 78.472L38.0258 79.472C37.7538 79.3547 37.4658 79.2667 37.1618 79.208C36.8578 79.1493 36.5431 79.12 36.2178 79.12C35.6311 79.12 35.1884 79.2347 34.8898 79.464C34.5964 79.6933 34.4498 80.0453 34.4498 80.52V82.232H37.3058L37.1618 83.288H34.4498V90H33.1058V83.288H31.0978V82.232H33.1058V80.552C33.1058 80.0293 33.2391 79.5787 33.5058 79.2C33.7778 78.8213 34.1458 78.5307 34.6098 78.328C35.0738 78.12 35.5964 78.016 36.1778 78.016Z" fill="#5789EA"/>
<path d="M57.0773 89.576C56.7893 89.768 56.4399 89.9173 56.0293 90.024C55.6186 90.1307 55.2159 90.184 54.8213 90.184C53.9146 90.184 53.2159 89.9467 52.7253 89.472C52.2346 88.9973 51.9893 88.3867 51.9893 87.64V82.616H50.0533V81.576H51.9893V79.664L53.3333 79.504V81.576H56.2453L56.0853 82.616H53.3333V87.624C53.3333 88.0933 53.4559 88.4507 53.7013 88.696C53.9519 88.9413 54.3653 89.064 54.9413 89.064C55.2559 89.064 55.5466 89.0267 55.8133 88.952C56.0799 88.8773 56.3279 88.7813 56.5573 88.664L57.0773 89.576ZM61.327 78.056V82.728C61.6577 82.2853 62.063 81.9547 62.543 81.736C63.0283 81.512 63.519 81.4 64.015 81.4C64.8363 81.4 65.4363 81.6187 65.815 82.056C66.1937 82.4933 66.383 83.1013 66.383 83.88V90H65.039V83.912C65.039 83.4053 64.9217 83.0373 64.687 82.808C64.4523 82.5733 64.0843 82.456 63.583 82.456C63.263 82.456 62.959 82.528 62.671 82.672C62.383 82.816 62.1243 82.9947 61.895 83.208C61.6657 83.4213 61.4763 83.64 61.327 83.864V90H59.983V78.2L61.327 78.056ZM70.6328 86.264C70.6594 86.9147 70.7848 87.448 71.0088 87.864C71.2328 88.2747 71.5288 88.5787 71.8968 88.776C72.2648 88.968 72.6648 89.064 73.0968 89.064C73.5288 89.064 73.9181 89 74.2648 88.872C74.6168 88.744 74.9768 88.5547 75.3448 88.304L75.9768 89.192C75.5821 89.5013 75.1314 89.744 74.6248 89.92C74.1234 90.096 73.6088 90.184 73.0808 90.184C72.2648 90.184 71.5688 90 70.9928 89.632C70.4168 89.264 69.9768 88.752 69.6728 88.096C69.3741 87.4347 69.2248 86.6693 69.2248 85.8C69.2248 84.9467 69.3768 84.1893 69.6808 83.528C69.9848 82.8667 70.4114 82.3467 70.9608 81.968C71.5101 81.5893 72.1581 81.4 72.9048 81.4C73.6141 81.4 74.2248 81.568 74.7368 81.904C75.2488 82.2347 75.6408 82.7093 75.9128 83.328C76.1901 83.9413 76.3288 84.6747 76.3288 85.528C76.3288 85.672 76.3261 85.808 76.3208 85.936C76.3154 86.0587 76.3074 86.168 76.2968 86.264H70.6328ZM72.9208 82.504C72.2968 82.504 71.7741 82.7253 71.3528 83.168C70.9368 83.6107 70.6994 84.296 70.6408 85.224H75.0328C75.0168 84.3227 74.8194 83.6453 74.4408 83.192C74.0621 82.7333 73.5554 82.504 72.9208 82.504ZM88.8443 90V88.968H90.1563V82.608H88.8443V81.576H91.1803L91.4283 83.568C91.7536 82.8747 92.1483 82.3387 92.6123 81.96C93.0763 81.5813 93.6896 81.392 94.4523 81.392C94.6869 81.392 94.8949 81.4107 95.0763 81.448C95.2629 81.48 95.4523 81.5227 95.6443 81.576L95.2523 82.776C95.0763 82.728 94.9163 82.6933 94.7723 82.672C94.6283 82.6453 94.4629 82.632 94.2763 82.632C93.6309 82.632 93.0763 82.8613 92.6123 83.32C92.1483 83.7787 91.7776 84.472 91.5003 85.4V88.968H93.2123V90H88.8443ZM94.3483 84.424V82.592L94.4843 81.576H95.6443L95.4523 84.424H94.3483ZM99.414 86.264C99.4407 86.9147 99.566 87.448 99.79 87.864C100.014 88.2747 100.31 88.5787 100.678 88.776C101.046 88.968 101.446 89.064 101.878 89.064C102.31 89.064 102.699 89 103.046 88.872C103.398 88.744 103.758 88.5547 104.126 88.304L104.758 89.192C104.363 89.5013 103.913 89.744 103.406 89.92C102.905 90.096 102.39 90.184 101.862 90.184C101.046 90.184 100.35 90 99.774 89.632C99.198 89.264 98.758 88.752 98.454 88.096C98.1553 87.4347 98.006 86.6693 98.006 85.8C98.006 84.9467 98.158 84.1893 98.462 83.528C98.766 82.8667 99.1927 82.3467 99.742 81.968C100.291 81.5893 100.939 81.4 101.686 81.4C102.395 81.4 103.006 81.568 103.518 81.904C104.03 82.2347 104.422 82.7093 104.694 83.328C104.971 83.9413 105.11 84.6747 105.11 85.528C105.11 85.672 105.107 85.808 105.102 85.936C105.097 86.0587 105.089 86.168 105.078 86.264H99.414ZM101.702 82.504C101.078 82.504 100.555 82.7253 100.134 83.168C99.718 83.6107 99.4807 84.296 99.422 85.224H103.814C103.798 84.3227 103.601 83.6453 103.222 83.192C102.843 82.7333 102.337 82.504 101.702 82.504ZM111.76 89.024C112.181 89.024 112.573 88.9547 112.936 88.816C113.304 88.6773 113.642 88.5013 113.952 88.288L114.608 89.168C114.24 89.4827 113.797 89.7307 113.28 89.912C112.762 90.0933 112.256 90.184 111.76 90.184C110.922 90.184 110.208 90.0053 109.616 89.648C109.029 89.2853 108.581 88.7787 108.272 88.128C107.962 87.472 107.808 86.704 107.808 85.824C107.808 84.9813 107.962 84.2267 108.272 83.56C108.586 82.888 109.037 82.36 109.624 81.976C110.216 81.592 110.933 81.4 111.776 81.4C112.314 81.4 112.818 81.4827 113.288 81.648C113.762 81.808 114.197 82.0507 114.592 82.376L113.936 83.272C113.578 83.0213 113.218 82.8347 112.856 82.712C112.498 82.584 112.133 82.52 111.76 82.52C111.034 82.52 110.437 82.792 109.968 83.336C109.498 83.88 109.264 84.7093 109.264 85.824C109.264 86.5707 109.37 87.1813 109.584 87.656C109.802 88.1253 110.098 88.472 110.472 88.696C110.85 88.9147 111.28 89.024 111.76 89.024ZM118.602 86.264C118.628 86.9147 118.754 87.448 118.978 87.864C119.202 88.2747 119.498 88.5787 119.866 88.776C120.234 88.968 120.634 89.064 121.066 89.064C121.498 89.064 121.887 89 122.234 88.872C122.586 88.744 122.946 88.5547 123.314 88.304L123.946 89.192C123.551 89.5013 123.1 89.744 122.594 89.92C122.092 90.096 121.578 90.184 121.05 90.184C120.234 90.184 119.538 90 118.962 89.632C118.386 89.264 117.946 88.752 117.642 88.096C117.343 87.4347 117.194 86.6693 117.194 85.8C117.194 84.9467 117.346 84.1893 117.65 83.528C117.954 82.8667 118.38 82.3467 118.93 81.968C119.479 81.5893 120.127 81.4 120.874 81.4C121.583 81.4 122.194 81.568 122.706 81.904C123.218 82.2347 123.61 82.7093 123.882 83.328C124.159 83.9413 124.298 84.6747 124.298 85.528C124.298 85.672 124.295 85.808 124.29 85.936C124.284 86.0587 124.276 86.168 124.266 86.264H118.602ZM120.89 82.504C120.266 82.504 119.743 82.7253 119.322 83.168C118.906 83.6107 118.668 84.296 118.61 85.224H123.002C122.986 84.3227 122.788 83.6453 122.41 83.192C122.031 82.7333 121.524 82.504 120.89 82.504ZM131.403 81.576V88.936H133.779V90H127.459V88.936H130.059V82.64H127.539V81.576H131.403ZM130.331 77.632C130.63 77.632 130.867 77.7227 131.043 77.904C131.225 78.0853 131.315 78.3067 131.315 78.568C131.315 78.84 131.225 79.0693 131.043 79.256C130.867 79.4373 130.63 79.528 130.331 79.528C130.049 79.528 129.817 79.4373 129.635 79.256C129.454 79.0693 129.363 78.84 129.363 78.568C129.363 78.3067 129.454 78.0853 129.635 77.904C129.817 77.7227 130.049 77.632 130.331 77.632ZM143.757 81.576L140.693 90H139.133L136.093 81.576H137.517L139.957 88.776L142.365 81.576H143.757ZM147.383 86.264C147.409 86.9147 147.535 87.448 147.759 87.864C147.983 88.2747 148.279 88.5787 148.647 88.776C149.015 88.968 149.415 89.064 149.847 89.064C150.279 89.064 150.668 89 151.015 88.872C151.367 88.744 151.727 88.5547 152.095 88.304L152.727 89.192C152.332 89.5013 151.881 89.744 151.375 89.92C150.873 90.096 150.359 90.184 149.831 90.184C149.015 90.184 148.319 90 147.743 89.632C147.167 89.264 146.727 88.752 146.423 88.096C146.124 87.4347 145.975 86.6693 145.975 85.8C145.975 84.9467 146.127 84.1893 146.431 83.528C146.735 82.8667 147.161 82.3467 147.711 81.968C148.26 81.5893 148.908 81.4 149.655 81.4C150.364 81.4 150.975 81.568 151.487 81.904C151.999 82.2347 152.391 82.7093 152.663 83.328C152.94 83.9413 153.079 84.6747 153.079 85.528C153.079 85.672 153.076 85.808 153.071 85.936C153.065 86.0587 153.057 86.168 153.047 86.264H147.383ZM149.671 82.504C149.047 82.504 148.524 82.7253 148.103 83.168C147.687 83.6107 147.449 84.296 147.391 85.224H151.783C151.767 84.3227 151.569 83.6453 151.191 83.192C150.812 82.7333 150.305 82.504 149.671 82.504ZM156.001 90V88.968H157.313V82.608H156.001V81.576H158.337L158.585 83.568C158.91 82.8747 159.305 82.3387 159.769 81.96C160.233 81.5813 160.846 81.392 161.609 81.392C161.843 81.392 162.051 81.4107 162.233 81.448C162.419 81.48 162.609 81.5227 162.801 81.576L162.409 82.776C162.233 82.728 162.073 82.6933 161.929 82.672C161.785 82.6453 161.619 82.632 161.433 82.632C160.787 82.632 160.233 82.8613 159.769 83.32C159.305 83.7787 158.934 84.472 158.657 85.4V88.968H160.369V90H156.001ZM161.505 84.424V82.592L161.641 81.576H162.801L162.609 84.424H161.505ZM26.648 99.016L27.992 99.184V111H26.816L26.688 109.888C26.3733 110.336 26.0107 110.664 25.6 110.872C25.1947 111.08 24.76 111.184 24.296 111.184C23.5653 111.184 22.9627 111 22.488 110.632C22.0133 110.264 21.6613 109.752 21.432 109.096C21.2027 108.435 21.088 107.669 21.088 106.8C21.088 105.957 21.2187 105.205 21.48 104.544C21.7413 103.877 22.1173 103.355 22.608 102.976C23.104 102.592 23.6987 102.4 24.392 102.4C24.8773 102.4 25.304 102.485 25.672 102.656C26.04 102.821 26.3653 103.067 26.648 103.392V99.016ZM24.744 103.48C24.04 103.48 23.4987 103.755 23.12 104.304C22.7413 104.853 22.552 105.685 22.552 106.8C22.552 107.525 22.6293 108.133 22.784 108.624C22.9387 109.115 23.1653 109.483 23.464 109.728C23.768 109.973 24.1387 110.096 24.576 110.096C25.056 110.096 25.464 109.96 25.8 109.688C26.1413 109.416 26.424 109.109 26.648 108.768V104.56C26.4187 104.219 26.1413 103.955 25.816 103.768C25.4907 103.576 25.1333 103.48 24.744 103.48ZM34.4098 102.4C35.2044 102.4 35.8684 102.581 36.4018 102.944C36.9404 103.301 37.3431 103.808 37.6098 104.464C37.8818 105.12 38.0178 105.893 38.0178 106.784C38.0178 107.643 37.8791 108.403 37.6018 109.064C37.3244 109.725 36.9164 110.245 36.3778 110.624C35.8444 110.997 35.1831 111.184 34.3938 111.184C33.6044 111.184 32.9404 111.003 32.4018 110.64C31.8631 110.277 31.4551 109.768 31.1778 109.112C30.9058 108.451 30.7697 107.68 30.7697 106.8C30.7697 105.931 30.9084 105.165 31.1858 104.504C31.4631 103.843 31.8711 103.328 32.4098 102.96C32.9538 102.587 33.6204 102.4 34.4098 102.4ZM34.4098 103.496C33.6844 103.496 33.1351 103.765 32.7618 104.304C32.3938 104.837 32.2098 105.669 32.2098 106.8C32.2098 107.909 32.3911 108.733 32.7538 109.272C33.1218 109.811 33.6684 110.08 34.3938 110.08C35.1191 110.08 35.6631 109.811 36.0258 109.272C36.3938 108.733 36.5778 107.904 36.5778 106.784C36.5778 105.664 36.3964 104.837 36.0338 104.304C35.6711 103.765 35.1298 103.496 34.4098 103.496ZM41.8515 107.264C41.8782 107.915 42.0035 108.448 42.2275 108.864C42.4515 109.275 42.7475 109.579 43.1155 109.776C43.4835 109.968 43.8835 110.064 44.3155 110.064C44.7475 110.064 45.1368 110 45.4835 109.872C45.8355 109.744 46.1955 109.555 46.5635 109.304L47.1955 110.192C46.8008 110.501 46.3502 110.744 45.8435 110.92C45.3422 111.096 44.8275 111.184 44.2995 111.184C43.4835 111.184 42.7875 111 42.2115 110.632C41.6355 110.264 41.1955 109.752 40.8915 109.096C40.5928 108.435 40.4435 107.669 40.4435 106.8C40.4435 105.947 40.5955 105.189 40.8995 104.528C41.2035 103.867 41.6302 103.347 42.1795 102.968C42.7288 102.589 43.3768 102.4 44.1235 102.4C44.8328 102.4 45.4435 102.568 45.9555 102.904C46.4675 103.235 46.8595 103.709 47.1315 104.328C47.4088 104.941 47.5475 105.675 47.5475 106.528C47.5475 106.672 47.5448 106.808 47.5395 106.936C47.5342 107.059 47.5262 107.168 47.5155 107.264H41.8515ZM44.1395 103.504C43.5155 103.504 42.9928 103.725 42.5715 104.168C42.1555 104.611 41.9182 105.296 41.8595 106.224H46.2515C46.2355 105.323 46.0382 104.645 45.6595 104.192C45.2808 103.733 44.7742 103.504 44.1395 103.504ZM53.2533 110.072C53.8986 110.072 54.4079 109.952 54.7813 109.712C55.1599 109.467 55.3493 109.141 55.3493 108.736C55.3493 108.48 55.3013 108.259 55.2053 108.072C55.1146 107.885 54.9253 107.717 54.6373 107.568C54.3493 107.419 53.9066 107.269 53.3093 107.12C52.7279 106.976 52.2213 106.811 51.7893 106.624C51.3626 106.432 51.0293 106.184 50.7893 105.88C50.5546 105.576 50.4373 105.181 50.4373 104.696C50.4373 104.221 50.5706 103.813 50.8372 103.472C51.1093 103.125 51.4853 102.861 51.9653 102.68C52.4453 102.493 53.0026 102.4 53.6373 102.4C54.3146 102.4 54.9039 102.491 55.4053 102.672C55.9119 102.848 56.3413 103.067 56.6933 103.328L56.1013 104.24C55.7813 104.021 55.4293 103.843 55.0453 103.704C54.6613 103.56 54.1973 103.488 53.6533 103.488C52.9919 103.488 52.5226 103.592 52.2453 103.8C51.9679 104.003 51.8293 104.267 51.8293 104.592C51.8293 104.837 51.8959 105.043 52.0293 105.208C52.1679 105.368 52.3999 105.515 52.7253 105.648C53.0506 105.776 53.4986 105.917 54.0693 106.072C54.6186 106.216 55.0959 106.389 55.5013 106.592C55.9119 106.795 56.2319 107.061 56.4613 107.392C56.6906 107.723 56.8053 108.149 56.8053 108.672C56.8053 109.269 56.6346 109.755 56.2933 110.128C55.9519 110.496 55.5093 110.765 54.9653 110.936C54.4266 111.101 53.8559 111.184 53.2533 111.184C52.4906 111.184 51.8399 111.075 51.3013 110.856C50.7679 110.632 50.3199 110.363 49.9572 110.048L50.7253 109.16C51.0559 109.432 51.4346 109.653 51.8613 109.824C52.2933 109.989 52.7573 110.072 53.2533 110.072ZM69.5768 111V102.576H70.7208L70.8248 103.744C71.1661 103.312 71.5928 102.981 72.1048 102.752C72.6221 102.517 73.1234 102.4 73.6088 102.4C74.4354 102.4 75.0354 102.619 75.4088 103.056C75.7874 103.493 75.9768 104.101 75.9768 104.88V111H74.6328V105.872C74.6328 105.296 74.6008 104.832 74.5368 104.48C74.4728 104.123 74.3394 103.864 74.1368 103.704C73.9341 103.539 73.6194 103.456 73.1928 103.456C72.8621 103.456 72.5501 103.528 72.2568 103.672C71.9688 103.816 71.7101 103.997 71.4808 104.216C71.2568 104.429 71.0701 104.645 70.9208 104.864V111H69.5768ZM82.3785 102.4C83.1732 102.4 83.8372 102.581 84.3705 102.944C84.9092 103.301 85.3118 103.808 85.5785 104.464C85.8505 105.12 85.9865 105.893 85.9865 106.784C85.9865 107.643 85.8478 108.403 85.5705 109.064C85.2932 109.725 84.8852 110.245 84.3465 110.624C83.8132 110.997 83.1518 111.184 82.3625 111.184C81.5732 111.184 80.9092 111.003 80.3705 110.64C79.8318 110.277 79.4238 109.768 79.1465 109.112C78.8745 108.451 78.7385 107.68 78.7385 106.8C78.7385 105.931 78.8772 105.165 79.1545 104.504C79.4318 103.843 79.8398 103.328 80.3785 102.96C80.9225 102.587 81.5892 102.4 82.3785 102.4ZM82.3785 103.496C81.6532 103.496 81.1038 103.765 80.7305 104.304C80.3625 104.837 80.1785 105.669 80.1785 106.8C80.1785 107.909 80.3598 108.733 80.7225 109.272C81.0905 109.811 81.6372 110.08 82.3625 110.08C83.0878 110.08 83.6318 109.811 83.9945 109.272C84.3625 108.733 84.5465 107.904 84.5465 106.784C84.5465 105.664 84.3652 104.837 84.0025 104.304C83.6398 103.765 83.0985 103.496 82.3785 103.496ZM95.4523 110.576C95.1643 110.768 94.8149 110.917 94.4043 111.024C93.9936 111.131 93.5909 111.184 93.1963 111.184C92.2896 111.184 91.5909 110.947 91.1003 110.472C90.6096 109.997 90.3643 109.387 90.3643 108.64V103.616H88.4283V102.576H90.3643V100.664L91.7083 100.504V102.576H94.6203L94.4603 103.616H91.7083V108.624C91.7083 109.093 91.8309 109.451 92.0763 109.696C92.3269 109.941 92.7403 110.064 93.3163 110.064C93.6309 110.064 93.9216 110.027 94.1883 109.952C94.4549 109.877 94.7029 109.781 94.9323 109.664L95.4523 110.576ZM111.76 110.024C112.181 110.024 112.573 109.955 112.936 109.816C113.304 109.677 113.642 109.501 113.952 109.288L114.608 110.168C114.24 110.483 113.797 110.731 113.28 110.912C112.762 111.093 112.256 111.184 111.76 111.184C110.922 111.184 110.208 111.005 109.616 110.648C109.029 110.285 108.581 109.779 108.272 109.128C107.962 108.472 107.808 107.704 107.808 106.824C107.808 105.981 107.962 105.227 108.272 104.56C108.586 103.888 109.037 103.36 109.624 102.976C110.216 102.592 110.933 102.4 111.776 102.4C112.314 102.4 112.818 102.483 113.288 102.648C113.762 102.808 114.197 103.051 114.592 103.376L113.936 104.272C113.578 104.021 113.218 103.835 112.856 103.712C112.498 103.584 112.133 103.52 111.76 103.52C111.034 103.52 110.437 103.792 109.968 104.336C109.498 104.88 109.264 105.709 109.264 106.824C109.264 107.571 109.37 108.181 109.584 108.656C109.802 109.125 110.098 109.472 110.472 109.696C110.85 109.915 111.28 110.024 111.76 110.024ZM120.754 102.4C121.548 102.4 122.212 102.581 122.746 102.944C123.284 103.301 123.687 103.808 123.954 104.464C124.226 105.12 124.362 105.893 124.362 106.784C124.362 107.643 124.223 108.403 123.946 109.064C123.668 109.725 123.26 110.245 122.722 110.624C122.188 110.997 121.527 111.184 120.738 111.184C119.948 111.184 119.284 111.003 118.746 110.64C118.207 110.277 117.799 109.768 117.522 109.112C117.25 108.451 117.113 107.68 117.113 106.8C117.113 105.931 117.252 105.165 117.53 104.504C117.807 103.843 118.215 103.328 118.754 102.96C119.298 102.587 119.964 102.4 120.754 102.4ZM120.754 103.496C120.028 103.496 119.479 103.765 119.106 104.304C118.738 104.837 118.554 105.669 118.554 106.8C118.554 107.909 118.735 108.733 119.098 109.272C119.466 109.811 120.012 110.08 120.738 110.08C121.463 110.08 122.007 109.811 122.37 109.272C122.738 108.733 122.922 107.904 122.922 106.784C122.922 105.664 122.74 104.837 122.378 104.304C122.015 103.765 121.474 103.496 120.754 103.496ZM127.139 111V102.576H128.283L128.387 103.744C128.729 103.312 129.155 102.981 129.667 102.752C130.185 102.517 130.686 102.4 131.171 102.4C131.998 102.4 132.598 102.619 132.971 103.056C133.35 103.493 133.539 104.101 133.539 104.88V111H132.195V105.872C132.195 105.296 132.163 104.832 132.099 104.48C132.035 104.123 131.902 103.864 131.699 103.704C131.497 103.539 131.182 103.456 130.755 103.456C130.425 103.456 130.113 103.528 129.819 103.672C129.531 103.816 129.273 103.997 129.043 104.216C128.819 104.429 128.633 104.645 128.483 104.864V111H127.139ZM141.709 99.016C142.162 99.016 142.573 99.056 142.941 99.136C143.309 99.216 143.658 99.328 143.989 99.472L143.557 100.472C143.285 100.355 142.997 100.267 142.693 100.208C142.389 100.149 142.074 100.12 141.749 100.12C141.162 100.12 140.72 100.235 140.421 100.464C140.128 100.693 139.981 101.045 139.981 101.52V103.232H142.837L142.693 104.288H139.981V111H138.637V104.288H136.629V103.232H138.637V101.552C138.637 101.029 138.77 100.579 139.037 100.2C139.309 99.8213 139.677 99.5307 140.141 99.328C140.605 99.12 141.128 99.016 141.709 99.016ZM150.591 103.232V109.936H152.967V111H146.647V109.936H149.247V104.288H146.727V103.232H150.591ZM149.519 99.216C149.817 99.216 150.055 99.3067 150.231 99.488C150.412 99.6693 150.503 99.8907 150.503 100.152C150.503 100.424 150.412 100.653 150.231 100.84C150.055 101.021 149.817 101.112 149.519 101.112C149.236 101.112 149.004 101.021 148.823 100.84C148.641 100.653 148.551 100.424 148.551 100.152C148.551 99.8907 148.641 99.6693 148.823 99.488C149.004 99.3067 149.236 99.216 149.519 99.216ZM156.001 111V109.968H157.313V103.608H156.001V102.576H158.337L158.585 104.568C158.91 103.875 159.305 103.339 159.769 102.96C160.233 102.581 160.846 102.392 161.609 102.392C161.843 102.392 162.051 102.411 162.233 102.448C162.419 102.48 162.609 102.523 162.801 102.576L162.409 103.776C162.233 103.728 162.073 103.693 161.929 103.672C161.785 103.645 161.619 103.632 161.433 103.632C160.787 103.632 160.233 103.861 159.769 104.32C159.305 104.779 158.934 105.472 158.657 106.4V109.968H160.369V111H156.001ZM161.505 105.424V103.592L161.641 102.576H162.801L162.609 105.424H161.505ZM171.066 102.4C171.338 102.4 171.597 102.459 171.842 102.576C172.093 102.693 172.298 102.92 172.458 103.256C172.618 103.592 172.698 104.083 172.698 104.728V111H171.45V104.944C171.45 104.416 171.418 104.035 171.354 103.8C171.29 103.565 171.106 103.448 170.802 103.448C170.552 103.448 170.301 103.528 170.05 103.688C169.805 103.843 169.565 104.099 169.33 104.456V111H168.074V104.944C168.074 104.416 168.042 104.035 167.978 103.8C167.914 103.565 167.73 103.448 167.426 103.448C167.165 103.448 166.912 103.528 166.666 103.688C166.426 103.843 166.189 104.099 165.954 104.456V111H164.714V102.576H165.77L165.85 103.552C166.08 103.227 166.336 102.955 166.618 102.736C166.906 102.512 167.261 102.4 167.682 102.4C168.002 102.4 168.304 102.477 168.586 102.632C168.869 102.781 169.077 103.075 169.21 103.512C169.44 103.181 169.698 102.915 169.986 102.712C170.274 102.504 170.634 102.4 171.066 102.4ZM27.848 132H25.944L24.856 125.816L23.672 132H21.816L20.28 123.576H21.656L22.728 131.168L24.072 124.648H25.664L26.936 131.168L28.008 123.576H29.32L27.848 132ZM35.4658 123.576V130.936H37.8418V132H31.5218V130.936H34.1218V124.64H31.6018V123.576H35.4658ZM34.3938 119.632C34.6924 119.632 34.9298 119.723 35.1058 119.904C35.2871 120.085 35.3778 120.307 35.3778 120.568C35.3778 120.84 35.2871 121.069 35.1058 121.256C34.9298 121.437 34.6924 121.528 34.3938 121.528C34.1111 121.528 33.8791 121.437 33.6978 121.256C33.5164 121.069 33.4258 120.84 33.4258 120.568C33.4258 120.307 33.5164 120.085 33.6978 119.904C33.8791 119.723 34.1111 119.632 34.3938 119.632ZM47.4835 131.576C47.1955 131.768 46.8462 131.917 46.4355 132.024C46.0248 132.131 45.6222 132.184 45.2275 132.184C44.3208 132.184 43.6222 131.947 43.1315 131.472C42.6408 130.997 42.3955 130.387 42.3955 129.64V124.616H40.4595V123.576H42.3955V121.664L43.7395 121.504V123.576H46.6515L46.4915 124.616H43.7395V129.624C43.7395 130.093 43.8622 130.451 44.1075 130.696C44.3582 130.941 44.7715 131.064 45.3475 131.064C45.6622 131.064 45.9528 131.027 46.2195 130.952C46.4862 130.877 46.7342 130.781 46.9635 130.664L47.4835 131.576ZM51.7333 120.056V124.728C52.0639 124.285 52.4693 123.955 52.9493 123.736C53.4346 123.512 53.9253 123.4 54.4213 123.4C55.2426 123.4 55.8426 123.619 56.2213 124.056C56.5999 124.493 56.7893 125.101 56.7893 125.88V132H55.4453V125.912C55.4453 125.405 55.3279 125.037 55.0933 124.808C54.8586 124.573 54.4906 124.456 53.9893 124.456C53.6693 124.456 53.3653 124.528 53.0773 124.672C52.7893 124.816 52.5306 124.995 52.3013 125.208C52.0719 125.421 51.8826 125.64 51.7333 125.864V132H50.3893V120.2L51.7333 120.056ZM64.247 123.576V130.936H66.623V132H60.303V130.936H62.903V124.64H60.383V123.576H64.247ZM63.175 119.632C63.4737 119.632 63.711 119.723 63.887 119.904C64.0683 120.085 64.159 120.307 64.159 120.568C64.159 120.84 64.0683 121.069 63.887 121.256C63.711 121.437 63.4737 121.528 63.175 121.528C62.8923 121.528 62.6603 121.437 62.479 121.256C62.2977 121.069 62.207 120.84 62.207 120.568C62.207 120.307 62.2977 120.085 62.479 119.904C62.6603 119.723 62.8923 119.632 63.175 119.632ZM69.5768 132V123.576H70.7208L70.8248 124.744C71.1661 124.312 71.5928 123.981 72.1048 123.752C72.6221 123.517 73.1234 123.4 73.6088 123.4C74.4354 123.4 75.0354 123.619 75.4088 124.056C75.7874 124.493 75.9768 125.101 75.9768 125.88V132H74.6328V126.872C74.6328 126.296 74.6008 125.832 74.5368 125.48C74.4728 125.123 74.3394 124.864 74.1368 124.704C73.9341 124.539 73.6194 124.456 73.1928 124.456C72.8621 124.456 72.5501 124.528 72.2568 124.672C71.9688 124.816 71.7101 124.997 71.4808 125.216C71.2568 125.429 71.0701 125.645 70.9208 125.864V132H69.5768ZM91.4683 120.808C92.1616 120.808 92.7536 120.941 93.2443 121.208C93.7403 121.475 94.1216 121.84 94.3883 122.304C94.6549 122.768 94.7883 123.293 94.7883 123.88C94.7883 124.387 94.7003 124.883 94.5243 125.368C94.3483 125.848 94.0656 126.355 93.6763 126.888C93.2923 127.416 92.7856 128.003 92.1562 128.648C91.5323 129.293 90.7643 130.029 89.8523 130.856H95.0443L94.8763 132H88.3243V130.904C89.1563 130.109 89.8629 129.413 90.4443 128.816C91.0309 128.219 91.5136 127.696 91.8923 127.248C92.2763 126.795 92.5749 126.384 92.7883 126.016C93.0069 125.648 93.1589 125.299 93.2443 124.968C93.3296 124.632 93.3723 124.285 93.3723 123.928C93.3723 123.309 93.1963 122.821 92.8443 122.464C92.4976 122.107 92.0176 121.928 91.4043 121.928C90.8603 121.928 90.4149 122.021 90.0683 122.208C89.7216 122.395 89.3749 122.693 89.0283 123.104L88.1003 122.384C88.5376 121.851 89.0229 121.456 89.5563 121.2C90.0896 120.939 90.7269 120.808 91.4683 120.808ZM101.134 120.808L102.254 121.28L99.326 128.248H105.206V129.32H97.902V128.344L101.134 120.808ZM103.782 125.12V132H102.486L102.478 128.504L102.662 125.12H103.782ZM118.89 120.056V124.728C119.22 124.285 119.626 123.955 120.106 123.736C120.591 123.512 121.082 123.4 121.578 123.4C122.399 123.4 122.999 123.619 123.378 124.056C123.756 124.493 123.946 125.101 123.946 125.88V132H122.602V125.912C122.602 125.405 122.484 125.037 122.25 124.808C122.015 124.573 121.647 124.456 121.146 124.456C120.826 124.456 120.522 124.528 120.234 124.672C119.946 124.816 119.687 124.995 119.458 125.208C119.228 125.421 119.039 125.64 118.89 125.864V132H117.546V120.2L118.89 120.056ZM130.347 123.4C131.142 123.4 131.806 123.581 132.339 123.944C132.878 124.301 133.281 124.808 133.547 125.464C133.819 126.12 133.955 126.893 133.955 127.784C133.955 128.643 133.817 129.403 133.539 130.064C133.262 130.725 132.854 131.245 132.315 131.624C131.782 131.997 131.121 132.184 130.331 132.184C129.542 132.184 128.878 132.003 128.339 131.64C127.801 131.277 127.393 130.768 127.115 130.112C126.843 129.451 126.707 128.68 126.707 127.8C126.707 126.931 126.846 126.165 127.123 125.504C127.401 124.843 127.809 124.328 128.347 123.96C128.891 123.587 129.558 123.4 130.347 123.4ZM130.347 124.496C129.622 124.496 129.073 124.765 128.699 125.304C128.331 125.837 128.147 126.669 128.147 127.8C128.147 128.909 128.329 129.733 128.691 130.272C129.059 130.811 129.606 131.08 130.331 131.08C131.057 131.08 131.601 130.811 131.963 130.272C132.331 129.733 132.515 128.904 132.515 127.784C132.515 126.664 132.334 125.837 131.971 125.304C131.609 124.765 131.067 124.496 130.347 124.496ZM138.077 123.576V129.544C138.077 130.099 138.192 130.499 138.421 130.744C138.65 130.989 139.008 131.112 139.493 131.112C139.957 131.112 140.394 130.981 140.805 130.72C141.221 130.453 141.544 130.139 141.773 129.776V123.576H143.117V132H141.973L141.861 130.864C141.53 131.291 141.122 131.619 140.637 131.848C140.152 132.072 139.661 132.184 139.165 132.184C138.349 132.184 137.738 131.968 137.333 131.536C136.933 131.099 136.733 130.488 136.733 129.704V123.576H138.077ZM146.407 132V130.968H147.719V124.608H146.407V123.576H148.743L148.991 125.568C149.316 124.875 149.711 124.339 150.175 123.96C150.639 123.581 151.252 123.392 152.015 123.392C152.249 123.392 152.457 123.411 152.639 123.448C152.825 123.48 153.015 123.523 153.207 123.576L152.815 124.776C152.639 124.728 152.479 124.693 152.335 124.672C152.191 124.645 152.025 124.632 151.839 124.632C151.193 124.632 150.639 124.861 150.175 125.32C149.711 125.779 149.34 126.472 149.063 127.4V130.968H150.775V132H146.407ZM151.911 126.424V124.592L152.047 123.576H153.207L153.015 126.424H151.911ZM158.785 131.072C159.43 131.072 159.939 130.952 160.313 130.712C160.691 130.467 160.881 130.141 160.881 129.736C160.881 129.48 160.833 129.259 160.737 129.072C160.646 128.885 160.457 128.717 160.169 128.568C159.881 128.419 159.438 128.269 158.841 128.12C158.259 127.976 157.753 127.811 157.321 127.624C156.894 127.432 156.561 127.184 156.321 126.88C156.086 126.576 155.969 126.181 155.969 125.696C155.969 125.221 156.102 124.813 156.368 124.472C156.641 124.125 157.017 123.861 157.497 123.68C157.977 123.493 158.534 123.4 159.169 123.4C159.846 123.4 160.435 123.491 160.937 123.672C161.443 123.848 161.873 124.067 162.225 124.328L161.633 125.24C161.313 125.021 160.961 124.843 160.577 124.704C160.193 124.56 159.729 124.488 159.185 124.488C158.523 124.488 158.054 124.592 157.777 124.8C157.499 125.003 157.361 125.267 157.361 125.592C157.361 125.837 157.427 126.043 157.561 126.208C157.699 126.368 157.931 126.515 158.257 126.648C158.582 126.776 159.03 126.917 159.601 127.072C160.15 127.216 160.627 127.389 161.033 127.592C161.443 127.795 161.763 128.061 161.993 128.392C162.222 128.723 162.337 129.149 162.337 129.672C162.337 130.269 162.166 130.755 161.825 131.128C161.483 131.496 161.041 131.765 160.497 131.936C159.958 132.101 159.387 132.184 158.785 132.184C158.022 132.184 157.371 132.075 156.833 131.856C156.299 131.632 155.851 131.363 155.488 131.048L156.257 130.16C156.587 130.432 156.966 130.653 157.393 130.824C157.825 130.989 158.289 131.072 158.785 131.072ZM168.706 129.368C169.074 129.368 169.381 129.493 169.626 129.744C169.877 129.995 170.002 130.296 170.002 130.648C170.002 130.84 169.978 131.035 169.93 131.232C169.888 131.429 169.808 131.653 169.69 131.904L168.394 134.872H167.178L167.946 131.712C167.786 131.595 167.658 131.443 167.562 131.256C167.472 131.064 167.426 130.861 167.426 130.648C167.426 130.291 167.549 129.989 167.794 129.744C168.04 129.493 168.344 129.368 168.706 129.368ZM28.296 152.576C28.008 152.768 27.6587 152.917 27.248 153.024C26.8373 153.131 26.4347 153.184 26.04 153.184C25.1333 153.184 24.4347 152.947 23.944 152.472C23.4533 151.997 23.208 151.387 23.208 150.64V145.616H21.272V144.576H23.208V142.664L24.552 142.504V144.576H27.464L27.304 145.616H24.552V150.624C24.552 151.093 24.6747 151.451 24.92 151.696C25.1707 151.941 25.584 152.064 26.16 152.064C26.4747 152.064 26.7653 152.027 27.032 151.952C27.2987 151.877 27.5467 151.781 27.776 151.664L28.296 152.576ZM32.5458 141.056V145.728C32.8764 145.285 33.2818 144.955 33.7618 144.736C34.2471 144.512 34.7378 144.4 35.2338 144.4C36.0551 144.4 36.6551 144.619 37.0338 145.056C37.4124 145.493 37.6018 146.101 37.6018 146.88V153H36.2578V146.912C36.2578 146.405 36.1404 146.037 35.9058 145.808C35.6711 145.573 35.3031 145.456 34.8018 145.456C34.4818 145.456 34.1778 145.528 33.8898 145.672C33.6018 145.816 33.3431 145.995 33.1138 146.208C32.8844 146.421 32.6951 146.64 32.5458 146.864V153H31.2018V141.2L32.5458 141.056ZM41.8515 149.264C41.8782 149.915 42.0035 150.448 42.2275 150.864C42.4515 151.275 42.7475 151.579 43.1155 151.776C43.4835 151.968 43.8835 152.064 44.3155 152.064C44.7475 152.064 45.1368 152 45.4835 151.872C45.8355 151.744 46.1955 151.555 46.5635 151.304L47.1955 152.192C46.8008 152.501 46.3502 152.744 45.8435 152.92C45.3422 153.096 44.8275 153.184 44.2995 153.184C43.4835 153.184 42.7875 153 42.2115 152.632C41.6355 152.264 41.1955 151.752 40.8915 151.096C40.5928 150.435 40.4435 149.669 40.4435 148.8C40.4435 147.947 40.5955 147.189 40.8995 146.528C41.2035 145.867 41.6302 145.347 42.1795 144.968C42.7288 144.589 43.3768 144.4 44.1235 144.4C44.8328 144.4 45.4435 144.568 45.9555 144.904C46.4675 145.235 46.8595 145.709 47.1315 146.328C47.4088 146.941 47.5475 147.675 47.5475 148.528C47.5475 148.672 47.5448 148.808 47.5395 148.936C47.5342 149.059 47.5262 149.168 47.5155 149.264H41.8515ZM44.1395 145.504C43.5155 145.504 42.9928 145.725 42.5715 146.168C42.1555 146.611 41.9182 147.296 41.8595 148.224H46.2515C46.2355 147.323 46.0382 146.645 45.6595 146.192C45.2808 145.733 44.7742 145.504 44.1395 145.504ZM62.847 152.072C63.4923 152.072 64.0017 151.952 64.375 151.712C64.7537 151.467 64.943 151.141 64.943 150.736C64.943 150.48 64.895 150.259 64.799 150.072C64.7083 149.885 64.519 149.717 64.231 149.568C63.943 149.419 63.5003 149.269 62.903 149.12C62.3217 148.976 61.815 148.811 61.383 148.624C60.9563 148.432 60.623 148.184 60.383 147.88C60.1483 147.576 60.031 147.181 60.031 146.696C60.031 146.221 60.1643 145.813 60.431 145.472C60.703 145.125 61.079 144.861 61.559 144.68C62.039 144.493 62.5963 144.4 63.231 144.4C63.9083 144.4 64.4977 144.491 64.999 144.672C65.5057 144.848 65.935 145.067 66.287 145.328L65.695 146.24C65.375 146.021 65.023 145.843 64.639 145.704C64.255 145.56 63.791 145.488 63.247 145.488C62.5857 145.488 62.1163 145.592 61.839 145.8C61.5617 146.003 61.423 146.267 61.423 146.592C61.423 146.837 61.4897 147.043 61.623 147.208C61.7617 147.368 61.9937 147.515 62.319 147.648C62.6443 147.776 63.0923 147.917 63.663 148.072C64.2123 148.216 64.6897 148.389 65.095 148.592C65.5057 148.795 65.8257 149.061 66.055 149.392C66.2843 149.723 66.399 150.149 66.399 150.672C66.399 151.269 66.2283 151.755 65.887 152.128C65.5457 152.496 65.103 152.765 64.559 152.936C64.0203 153.101 63.4497 153.184 62.847 153.184C62.0843 153.184 61.4337 153.075 60.895 152.856C60.3617 152.632 59.9137 152.363 59.551 152.048L60.319 151.16C60.6497 151.432 61.0283 151.653 61.455 151.824C61.887 151.989 62.351 152.072 62.847 152.072ZM70.6328 149.264C70.6594 149.915 70.7848 150.448 71.0088 150.864C71.2328 151.275 71.5288 151.579 71.8968 151.776C72.2648 151.968 72.6648 152.064 73.0968 152.064C73.5288 152.064 73.9181 152 74.2648 151.872C74.6168 151.744 74.9768 151.555 75.3448 151.304L75.9768 152.192C75.5821 152.501 75.1314 152.744 74.6248 152.92C74.1234 153.096 73.6088 153.184 73.0808 153.184C72.2648 153.184 71.5688 153 70.9928 152.632C70.4168 152.264 69.9768 151.752 69.6728 151.096C69.3741 150.435 69.2248 149.669 69.2248 148.8C69.2248 147.947 69.3768 147.189 69.6808 146.528C69.9848 145.867 70.4114 145.347 70.9608 144.968C71.5101 144.589 72.1581 144.4 72.9048 144.4C73.6141 144.4 74.2248 144.568 74.7368 144.904C75.2488 145.235 75.6408 145.709 75.9128 146.328C76.1901 146.941 76.3288 147.675 76.3288 148.528C76.3288 148.672 76.3261 148.808 76.3208 148.936C76.3154 149.059 76.3074 149.168 76.2968 149.264H70.6328ZM72.9208 145.504C72.2968 145.504 71.7741 145.725 71.3528 146.168C70.9368 146.611 70.6994 147.296 70.6408 148.224H75.0328C75.0168 147.323 74.8194 146.645 74.4408 146.192C74.0621 145.733 73.5554 145.504 72.9208 145.504ZM79.1705 153V144.576H80.3145L80.4185 145.744C80.7598 145.312 81.1865 144.981 81.6985 144.752C82.2158 144.517 82.7172 144.4 83.2025 144.4C84.0292 144.4 84.6292 144.619 85.0025 145.056C85.3812 145.493 85.5705 146.101 85.5705 146.88V153H84.2265V147.872C84.2265 147.296 84.1945 146.832 84.1305 146.48C84.0665 146.123 83.9332 145.864 83.7305 145.704C83.5278 145.539 83.2132 145.456 82.7865 145.456C82.4558 145.456 82.1438 145.528 81.8505 145.672C81.5625 145.816 81.3038 145.997 81.0745 146.216C80.8505 146.429 80.6638 146.645 80.5145 146.864V153H79.1705ZM93.8043 141.016L95.1483 141.184V153H93.9723L93.8443 151.888C93.5296 152.336 93.1669 152.664 92.7563 152.872C92.3509 153.08 91.9163 153.184 91.4523 153.184C90.7216 153.184 90.1189 153 89.6443 152.632C89.1696 152.264 88.8176 151.752 88.5883 151.096C88.3589 150.435 88.2443 149.669 88.2443 148.8C88.2443 147.957 88.3749 147.205 88.6363 146.544C88.8976 145.877 89.2736 145.355 89.7643 144.976C90.2603 144.592 90.8549 144.4 91.5483 144.4C92.0336 144.4 92.4603 144.485 92.8283 144.656C93.1963 144.821 93.5216 145.067 93.8043 145.392V141.016ZM91.9003 145.48C91.1963 145.48 90.6549 145.755 90.2763 146.304C89.8976 146.853 89.7083 147.685 89.7083 148.8C89.7083 149.525 89.7856 150.133 89.9403 150.624C90.0949 151.115 90.3216 151.483 90.6203 151.728C90.9243 151.973 91.2949 152.096 91.7323 152.096C92.2123 152.096 92.6203 151.96 92.9563 151.688C93.2976 151.416 93.5803 151.109 93.8043 150.768V146.56C93.5749 146.219 93.2976 145.955 92.9723 145.768C92.6469 145.576 92.2896 145.48 91.9003 145.48ZM99.414 149.264C99.4407 149.915 99.566 150.448 99.79 150.864C100.014 151.275 100.31 151.579 100.678 151.776C101.046 151.968 101.446 152.064 101.878 152.064C102.31 152.064 102.699 152 103.046 151.872C103.398 151.744 103.758 151.555 104.126 151.304L104.758 152.192C104.363 152.501 103.913 152.744 103.406 152.92C102.905 153.096 102.39 153.184 101.862 153.184C101.046 153.184 100.35 153 99.774 152.632C99.198 152.264 98.758 151.752 98.454 151.096C98.1553 150.435 98.006 149.669 98.006 148.8C98.006 147.947 98.158 147.189 98.462 146.528C98.766 145.867 99.1927 145.347 99.742 144.968C100.291 144.589 100.939 144.4 101.686 144.4C102.395 144.4 103.006 144.568 103.518 144.904C104.03 145.235 104.422 145.709 104.694 146.328C104.971 146.941 105.11 147.675 105.11 148.528C105.11 148.672 105.107 148.808 105.102 148.936C105.097 149.059 105.089 149.168 105.078 149.264H99.414ZM101.702 145.504C101.078 145.504 100.555 145.725 100.134 146.168C99.718 146.611 99.4807 147.296 99.422 148.224H103.814C103.798 147.323 103.601 146.645 103.222 146.192C102.843 145.733 102.337 145.504 101.702 145.504ZM108.032 153V151.968H109.344V145.608H108.032V144.576H110.368L110.616 146.568C110.941 145.875 111.336 145.339 111.8 144.96C112.264 144.581 112.877 144.392 113.64 144.392C113.874 144.392 114.082 144.411 114.264 144.448C114.45 144.48 114.64 144.523 114.832 144.576L114.44 145.776C114.264 145.728 114.104 145.693 113.96 145.672C113.816 145.645 113.65 145.632 113.464 145.632C112.818 145.632 112.264 145.861 111.8 146.32C111.336 146.779 110.965 147.472 110.688 148.4V151.968H112.4V153H108.032ZM113.536 147.424V145.592L113.672 144.576H114.832L114.64 147.424H113.536ZM133.379 153H131.475L130.387 146.816L129.203 153H127.347L125.811 144.576H127.187L128.259 152.168L129.603 145.648H131.195L132.467 152.168L133.539 144.576H134.851L133.379 153ZM140.997 144.576V151.936H143.373V153H137.053V151.936H139.653V145.64H137.133V144.576H140.997ZM139.925 140.632C140.224 140.632 140.461 140.723 140.637 140.904C140.818 141.085 140.909 141.307 140.909 141.568C140.909 141.84 140.818 142.069 140.637 142.256C140.461 142.437 140.224 142.528 139.925 142.528C139.642 142.528 139.41 142.437 139.229 142.256C139.048 142.069 138.957 141.84 138.957 141.568C138.957 141.307 139.048 141.085 139.229 140.904C139.41 140.723 139.642 140.632 139.925 140.632ZM149.607 141.184V150.92C149.607 151.336 149.735 151.632 149.991 151.808C150.252 151.979 150.588 152.064 150.999 152.064C151.255 152.064 151.497 152.037 151.727 151.984C151.956 151.931 152.185 151.859 152.415 151.768L152.775 152.752C152.545 152.864 152.26 152.963 151.919 153.048C151.583 153.139 151.201 153.184 150.775 153.184C150.028 153.184 149.423 152.979 148.959 152.568C148.495 152.152 148.263 151.579 148.263 150.848V142.248H145.679V141.184H149.607ZM159.201 141.184V150.92C159.201 151.336 159.329 151.632 159.585 151.808C159.846 151.979 160.182 152.064 160.593 152.064C160.849 152.064 161.091 152.037 161.321 151.984C161.55 151.931 161.779 151.859 162.009 151.768L162.369 152.752C162.139 152.864 161.854 152.963 161.513 153.048C161.177 153.139 160.795 153.184 160.369 153.184C159.622 153.184 159.017 152.979 158.553 152.568C158.089 152.152 157.857 151.579 157.857 150.848V142.248H155.273V141.184H159.201ZM28.456 164.68L28.872 165.944C28.5147 166.056 28.1333 166.125 27.728 166.152C27.3227 166.179 26.8827 166.192 26.408 166.192C26.8933 166.416 27.2587 166.707 27.504 167.064C27.7493 167.416 27.872 167.832 27.872 168.312C27.872 168.867 27.7467 169.36 27.496 169.792C27.2453 170.224 26.8827 170.563 26.408 170.808C25.9387 171.053 25.3707 171.176 24.704 171.176C24.4213 171.176 24.184 171.163 23.992 171.136C23.8053 171.109 23.624 171.069 23.448 171.016C23.32 171.101 23.2133 171.219 23.128 171.368C23.048 171.517 23.008 171.672 23.008 171.832C23.008 172.035 23.088 172.203 23.248 172.336C23.408 172.469 23.704 172.536 24.136 172.536H25.656C26.2213 172.536 26.728 172.637 27.176 172.84C27.6293 173.043 27.984 173.315 28.24 173.656C28.5013 173.997 28.632 174.387 28.632 174.824C28.632 175.651 28.28 176.285 27.576 176.728C26.8773 177.171 25.888 177.392 24.608 177.392C23.712 177.392 23.0053 177.299 22.488 177.112C21.9707 176.931 21.6 176.651 21.376 176.272C21.1573 175.899 21.048 175.427 21.048 174.856H22.264C22.264 175.181 22.328 175.451 22.456 175.664C22.584 175.877 22.816 176.035 23.152 176.136C23.488 176.243 23.9707 176.296 24.6 176.296C25.2187 176.296 25.7227 176.243 26.112 176.136C26.5067 176.035 26.7973 175.88 26.984 175.672C27.176 175.469 27.272 175.216 27.272 174.912C27.272 174.512 27.0907 174.211 26.728 174.008C26.3653 173.805 25.912 173.704 25.368 173.704H23.864C23.1387 173.704 22.6027 173.544 22.256 173.224C21.9147 172.904 21.744 172.536 21.744 172.12C21.744 171.848 21.8213 171.584 21.976 171.328C22.136 171.072 22.368 170.845 22.672 170.648C22.1867 170.392 21.8293 170.075 21.6 169.696C21.3707 169.317 21.256 168.859 21.256 168.32C21.256 167.749 21.3973 167.245 21.68 166.808C21.9627 166.365 22.3573 166.019 22.864 165.768C23.3707 165.517 23.9547 165.392 24.616 165.392C25.3253 165.387 25.9013 165.357 26.344 165.304C26.7867 165.245 27.1653 165.163 27.48 165.056C27.8 164.949 28.1253 164.824 28.456 164.68ZM24.616 166.376C23.9387 166.376 23.4373 166.56 23.112 166.928C22.792 167.291 22.632 167.755 22.632 168.32C22.632 168.891 22.7973 169.36 23.128 169.728C23.4587 170.096 23.9653 170.28 24.648 170.28C25.2453 170.28 25.6987 170.107 26.008 169.76C26.3227 169.413 26.48 168.931 26.48 168.312C26.48 167.677 26.3227 167.197 26.008 166.872C25.6987 166.541 25.2347 166.376 24.616 166.376ZM32.2578 170.264C32.2844 170.915 32.4098 171.448 32.6338 171.864C32.8578 172.275 33.1538 172.579 33.5218 172.776C33.8898 172.968 34.2898 173.064 34.7218 173.064C35.1538 173.064 35.5431 173 35.8898 172.872C36.2418 172.744 36.6018 172.555 36.9698 172.304L37.6018 173.192C37.2071 173.501 36.7564 173.744 36.2498 173.92C35.7484 174.096 35.2338 174.184 34.7058 174.184C33.8898 174.184 33.1938 174 32.6178 173.632C32.0418 173.264 31.6018 172.752 31.2978 172.096C30.9991 171.435 30.8498 170.669 30.8498 169.8C30.8498 168.947 31.0018 168.189 31.3058 167.528C31.6098 166.867 32.0364 166.347 32.5858 165.968C33.1351 165.589 33.7831 165.4 34.5298 165.4C35.2391 165.4 35.8498 165.568 36.3618 165.904C36.8738 166.235 37.2658 166.709 37.5378 167.328C37.8151 167.941 37.9538 168.675 37.9538 169.528C37.9538 169.672 37.9511 169.808 37.9458 169.936C37.9404 170.059 37.9324 170.168 37.9218 170.264H32.2578ZM34.5458 166.504C33.9218 166.504 33.3991 166.725 32.9778 167.168C32.5618 167.611 32.3244 168.296 32.2658 169.224H36.6578C36.6418 168.323 36.4444 167.645 36.0658 167.192C35.6871 166.733 35.1804 166.504 34.5458 166.504ZM47.4835 173.576C47.1955 173.768 46.8462 173.917 46.4355 174.024C46.0248 174.131 45.6222 174.184 45.2275 174.184C44.3208 174.184 43.6222 173.947 43.1315 173.472C42.6408 172.997 42.3955 172.387 42.3955 171.64V166.616H40.4595V165.576H42.3955V163.664L43.7395 163.504V165.576H46.6515L46.4915 166.616H43.7395V171.624C43.7395 172.093 43.8622 172.451 44.1075 172.696C44.3582 172.941 44.7715 173.064 45.3475 173.064C45.6622 173.064 45.9528 173.027 46.2195 172.952C46.4862 172.877 46.7342 172.781 46.9635 172.664L47.4835 173.576ZM66.671 173.576C66.383 173.768 66.0337 173.917 65.623 174.024C65.2123 174.131 64.8097 174.184 64.415 174.184C63.5083 174.184 62.8097 173.947 62.319 173.472C61.8283 172.997 61.583 172.387 61.583 171.64V166.616H59.647V165.576H61.583V163.664L62.927 163.504V165.576H65.839L65.679 166.616H62.927V171.624C62.927 172.093 63.0497 172.451 63.295 172.696C63.5457 172.941 63.959 173.064 64.535 173.064C64.8497 173.064 65.1403 173.027 65.407 172.952C65.6737 172.877 65.9217 172.781 66.151 172.664L66.671 173.576ZM70.9208 162.056V166.728C71.2514 166.285 71.6568 165.955 72.1368 165.736C72.6221 165.512 73.1128 165.4 73.6088 165.4C74.4301 165.4 75.0301 165.619 75.4088 166.056C75.7874 166.493 75.9768 167.101 75.9768 167.88V174H74.6328V167.912C74.6328 167.405 74.5154 167.037 74.2808 166.808C74.0461 166.573 73.6781 166.456 73.1768 166.456C72.8568 166.456 72.5528 166.528 72.2648 166.672C71.9768 166.816 71.7181 166.995 71.4888 167.208C71.2594 167.421 71.0701 167.64 70.9208 167.864V174H69.5768V162.2L70.9208 162.056ZM80.2265 170.264C80.2532 170.915 80.3785 171.448 80.6025 171.864C80.8265 172.275 81.1225 172.579 81.4905 172.776C81.8585 172.968 82.2585 173.064 82.6905 173.064C83.1225 173.064 83.5118 173 83.8585 172.872C84.2105 172.744 84.5705 172.555 84.9385 172.304L85.5705 173.192C85.1758 173.501 84.7252 173.744 84.2185 173.92C83.7172 174.096 83.2025 174.184 82.6745 174.184C81.8585 174.184 81.1625 174 80.5865 173.632C80.0105 173.264 79.5705 172.752 79.2665 172.096C78.9678 171.435 78.8185 170.669 78.8185 169.8C78.8185 168.947 78.9705 168.189 79.2745 167.528C79.5785 166.867 80.0052 166.347 80.5545 165.968C81.1038 165.589 81.7518 165.4 82.4985 165.4C83.2078 165.4 83.8185 165.568 84.3305 165.904C84.8425 166.235 85.2345 166.709 85.5065 167.328C85.7838 167.941 85.9225 168.675 85.9225 169.528C85.9225 169.672 85.9198 169.808 85.9145 169.936C85.9092 170.059 85.9012 170.168 85.8905 170.264H80.2265ZM82.5145 166.504C81.8905 166.504 81.3678 166.725 80.9465 167.168C80.5305 167.611 80.2932 168.296 80.2345 169.224H84.6265C84.6105 168.323 84.4132 167.645 84.0345 167.192C83.6558 166.733 83.1492 166.504 82.5145 166.504ZM93.0283 165.576V172.936H95.4043V174H89.0843V172.936H91.6843V166.64H89.1643V165.576H93.0283ZM91.9563 161.632C92.2549 161.632 92.4923 161.723 92.6683 161.904C92.8496 162.085 92.9403 162.307 92.9403 162.568C92.9403 162.84 92.8496 163.069 92.6683 163.256C92.4923 163.437 92.2549 163.528 91.9563 163.528C91.6736 163.528 91.4416 163.437 91.2603 163.256C91.0789 163.069 90.9883 162.84 90.9883 162.568C90.9883 162.307 91.0789 162.085 91.2603 161.904C91.4416 161.723 91.6736 161.632 91.9563 161.632ZM98.438 174V172.968H99.75V166.608H98.438V165.576H100.774L101.022 167.568C101.347 166.875 101.742 166.339 102.206 165.96C102.67 165.581 103.283 165.392 104.046 165.392C104.281 165.392 104.489 165.411 104.67 165.448C104.857 165.48 105.046 165.523 105.238 165.576L104.846 166.776C104.67 166.728 104.51 166.693 104.366 166.672C104.222 166.645 104.057 166.632 103.87 166.632C103.225 166.632 102.67 166.861 102.206 167.32C101.742 167.779 101.371 168.472 101.094 169.4V172.968H102.806V174H98.438ZM103.942 168.424V166.592L104.078 165.576H105.238L105.046 168.424H103.942ZM27.168 191.904C27.168 191.349 27.0587 190.923 26.84 190.624C26.6267 190.32 26.3413 190.109 25.984 189.992C25.6267 189.875 25.2347 189.816 24.808 189.816H22.928V193.856H24.744C25.016 193.856 25.2933 193.829 25.576 193.776C25.8587 193.723 26.12 193.627 26.36 193.488C26.6053 193.349 26.8 193.155 26.944 192.904C27.0933 192.648 27.168 192.315 27.168 191.904ZM26.728 186.832C26.728 186.208 26.5333 185.765 26.144 185.504C25.76 185.237 25.2347 185.104 24.568 185.104H22.928V188.672H24.704C25.3547 188.672 25.8533 188.528 26.2 188.24C26.552 187.947 26.728 187.477 26.728 186.832ZM28.632 191.856C28.632 192.453 28.512 192.955 28.272 193.36C28.0373 193.765 27.72 194.088 27.32 194.328C26.9253 194.568 26.4827 194.741 25.992 194.848C25.5067 194.949 25.0107 195 24.504 195H21.544V183.984H24.256C24.7413 183.984 25.2133 184.029 25.672 184.12C26.136 184.205 26.552 184.355 26.92 184.568C27.2933 184.776 27.592 185.059 27.816 185.416C28.04 185.773 28.152 186.221 28.152 186.76C28.152 187.235 28.0533 187.637 27.856 187.968C27.664 188.293 27.4107 188.555 27.096 188.752C26.7867 188.949 26.456 189.088 26.104 189.168C26.5147 189.232 26.912 189.357 27.296 189.544C27.6853 189.725 28.0053 190.003 28.256 190.376C28.5067 190.744 28.632 191.237 28.632 191.856ZM34.4818 183.184V192.92C34.4818 193.336 34.6098 193.632 34.8658 193.808C35.1271 193.979 35.4631 194.064 35.8738 194.064C36.1298 194.064 36.3724 194.037 36.6018 193.984C36.8311 193.931 37.0604 193.859 37.2898 193.768L37.6498 194.752C37.4204 194.864 37.1351 194.963 36.7938 195.048C36.4578 195.139 36.0764 195.184 35.6498 195.184C34.9031 195.184 34.2978 194.979 33.8338 194.568C33.3698 194.152 33.1378 193.579 33.1378 192.848V184.248H30.5538V183.184H34.4818ZM44.0035 186.4C44.7982 186.4 45.4622 186.581 45.9955 186.944C46.5342 187.301 46.9368 187.808 47.2035 188.464C47.4755 189.12 47.6115 189.893 47.6115 190.784C47.6115 191.643 47.4728 192.403 47.1955 193.064C46.9182 193.725 46.5102 194.245 45.9715 194.624C45.4382 194.997 44.7768 195.184 43.9875 195.184C43.1982 195.184 42.5342 195.003 41.9955 194.64C41.4568 194.277 41.0488 193.768 40.7715 193.112C40.4995 192.451 40.3635 191.68 40.3635 190.8C40.3635 189.931 40.5022 189.165 40.7795 188.504C41.0568 187.843 41.4648 187.328 42.0035 186.96C42.5475 186.587 43.2142 186.4 44.0035 186.4ZM44.0035 187.496C43.2782 187.496 42.7288 187.765 42.3555 188.304C41.9875 188.837 41.8035 189.669 41.8035 190.8C41.8035 191.909 41.9848 192.733 42.3475 193.272C42.7155 193.811 43.2622 194.08 43.9875 194.08C44.7128 194.08 45.2568 193.811 45.6195 193.272C45.9875 192.733 46.1715 191.904 46.1715 190.784C46.1715 189.664 45.9902 188.837 45.6275 188.304C45.2648 187.765 44.7235 187.496 44.0035 187.496ZM54.1973 194.024C54.6186 194.024 55.0106 193.955 55.3733 193.816C55.7413 193.677 56.0799 193.501 56.3893 193.288L57.0452 194.168C56.6773 194.483 56.2346 194.731 55.7173 194.912C55.1999 195.093 54.6933 195.184 54.1973 195.184C53.3599 195.184 52.6453 195.005 52.0533 194.648C51.4666 194.285 51.0186 193.779 50.7093 193.128C50.3999 192.472 50.2453 191.704 50.2453 190.824C50.2453 189.981 50.3999 189.227 50.7093 188.56C51.0239 187.888 51.4746 187.36 52.0613 186.976C52.6533 186.592 53.3706 186.4 54.2133 186.4C54.7519 186.4 55.2559 186.483 55.7253 186.648C56.1999 186.808 56.6346 187.051 57.0293 187.376L56.3733 188.272C56.0159 188.021 55.6559 187.835 55.2933 187.712C54.9359 187.584 54.5706 187.52 54.1973 187.52C53.4719 187.52 52.8746 187.792 52.4053 188.336C51.9359 188.88 51.7013 189.709 51.7013 190.824C51.7013 191.571 51.8079 192.181 52.0213 192.656C52.2399 193.125 52.5359 193.472 52.9093 193.696C53.2879 193.915 53.7173 194.024 54.1973 194.024ZM67.039 186.576L63.247 190.368L67.479 195H65.711L61.567 190.4L65.295 186.576H67.039ZM61.415 183.016V195H60.071V183.184L61.415 183.016ZM73.3848 194.024C73.8061 194.024 74.1981 193.955 74.5608 193.816C74.9288 193.677 75.2674 193.501 75.5768 193.288L76.2327 194.168C75.8648 194.483 75.4221 194.731 74.9048 194.912C74.3874 195.093 73.8808 195.184 73.3848 195.184C72.5474 195.184 71.8328 195.005 71.2408 194.648C70.6541 194.285 70.2061 193.779 69.8968 193.128C69.5874 192.472 69.4328 191.704 69.4328 190.824C69.4328 189.981 69.5874 189.227 69.8968 188.56C70.2114 187.888 70.6621 187.36 71.2488 186.976C71.8408 186.592 72.5581 186.4 73.4008 186.4C73.9394 186.4 74.4434 186.483 74.9128 186.648C75.3874 186.808 75.8221 187.051 76.2168 187.376L75.5608 188.272C75.2034 188.021 74.8434 187.835 74.4808 187.712C74.1234 187.584 73.7581 187.52 73.3848 187.52C72.6594 187.52 72.0621 187.792 71.5928 188.336C71.1234 188.88 70.8888 189.709 70.8888 190.824C70.8888 191.571 70.9954 192.181 71.2088 192.656C71.4274 193.125 71.7234 193.472 72.0968 193.696C72.4754 193.915 72.9048 194.024 73.3848 194.024ZM82.3785 186.4C83.1732 186.4 83.8372 186.581 84.3705 186.944C84.9092 187.301 85.3118 187.808 85.5785 188.464C85.8505 189.12 85.9865 189.893 85.9865 190.784C85.9865 191.643 85.8478 192.403 85.5705 193.064C85.2932 193.725 84.8852 194.245 84.3465 194.624C83.8132 194.997 83.1518 195.184 82.3625 195.184C81.5732 195.184 80.9092 195.003 80.3705 194.64C79.8318 194.277 79.4238 193.768 79.1465 193.112C78.8745 192.451 78.7385 191.68 78.7385 190.8C78.7385 189.931 78.8772 189.165 79.1545 188.504C79.4318 187.843 79.8398 187.328 80.3785 186.96C80.9225 186.587 81.5892 186.4 82.3785 186.4ZM82.3785 187.496C81.6532 187.496 81.1038 187.765 80.7305 188.304C80.3625 188.837 80.1785 189.669 80.1785 190.8C80.1785 191.909 80.3598 192.733 80.7225 193.272C81.0905 193.811 81.6372 194.08 82.3625 194.08C83.0878 194.08 83.6318 193.811 83.9945 193.272C84.3625 192.733 84.5465 191.904 84.5465 190.784C84.5465 189.664 84.3652 188.837 84.0025 188.304C83.6398 187.765 83.0985 187.496 82.3785 187.496ZM93.0283 186.576V193.936H95.4043V195H89.0843V193.936H91.6843V187.64H89.1643V186.576H93.0283ZM91.9563 182.632C92.2549 182.632 92.4923 182.723 92.6683 182.904C92.8496 183.085 92.9403 183.307 92.9403 183.568C92.9403 183.84 92.8496 184.069 92.6683 184.256C92.4923 184.437 92.2549 184.528 91.9563 184.528C91.6736 184.528 91.4416 184.437 91.2603 184.256C91.0789 184.069 90.9883 183.84 90.9883 183.568C90.9883 183.307 91.0789 183.085 91.2603 182.904C91.4416 182.723 91.6736 182.632 91.9563 182.632ZM98.358 195V186.576H99.502L99.606 187.744C99.9473 187.312 100.374 186.981 100.886 186.752C101.403 186.517 101.905 186.4 102.39 186.4C103.217 186.4 103.817 186.619 104.19 187.056C104.569 187.493 104.758 188.101 104.758 188.88V195H103.414V189.872C103.414 189.296 103.382 188.832 103.318 188.48C103.254 188.123 103.121 187.864 102.918 187.704C102.715 187.539 102.401 187.456 101.974 187.456C101.643 187.456 101.331 187.528 101.038 187.672C100.75 187.816 100.491 187.997 100.262 188.216C100.038 188.429 99.8513 188.645 99.702 188.864V195H98.358ZM110.816 194.072C111.461 194.072 111.97 193.952 112.344 193.712C112.722 193.467 112.912 193.141 112.912 192.736C112.912 192.48 112.864 192.259 112.768 192.072C112.677 191.885 112.488 191.717 112.2 191.568C111.912 191.419 111.469 191.269 110.872 191.12C110.29 190.976 109.784 190.811 109.352 190.624C108.925 190.432 108.592 190.184 108.352 189.88C108.117 189.576 108 189.181 108 188.696C108 188.221 108.133 187.813 108.4 187.472C108.672 187.125 109.048 186.861 109.528 186.68C110.008 186.493 110.565 186.4 111.2 186.4C111.877 186.4 112.466 186.491 112.968 186.672C113.474 186.848 113.904 187.067 114.256 187.328L113.664 188.24C113.344 188.021 112.992 187.843 112.608 187.704C112.224 187.56 111.76 187.488 111.216 187.488C110.554 187.488 110.085 187.592 109.808 187.8C109.53 188.003 109.392 188.267 109.392 188.592C109.392 188.837 109.458 189.043 109.592 189.208C109.73 189.368 109.962 189.515 110.288 189.648C110.613 189.776 111.061 189.917 111.632 190.072C112.181 190.216 112.658 190.389 113.064 190.592C113.474 190.795 113.794 191.061 114.024 191.392C114.253 191.723 114.368 192.149 114.368 192.672C114.368 193.269 114.197 193.755 113.856 194.128C113.514 194.496 113.072 194.765 112.528 194.936C111.989 195.101 111.418 195.184 110.816 195.184C110.053 195.184 109.402 195.075 108.864 194.856C108.33 194.632 107.882 194.363 107.52 194.048L108.288 193.16C108.618 193.432 108.997 193.653 109.424 193.824C109.856 193.989 110.32 194.072 110.816 194.072ZM128.483 187.672C128.793 187.267 129.147 186.955 129.547 186.736C129.953 186.512 130.398 186.4 130.883 186.4C131.635 186.4 132.243 186.581 132.707 186.944C133.171 187.307 133.51 187.819 133.723 188.48C133.937 189.136 134.043 189.904 134.043 190.784C134.043 191.632 133.915 192.389 133.659 193.056C133.403 193.717 133.027 194.237 132.531 194.616C132.041 194.995 131.433 195.184 130.707 195.184C129.731 195.184 128.966 194.832 128.411 194.128L128.315 195H127.139V183.184L128.483 183.016V187.672ZM130.387 194.096C131.091 194.096 131.633 193.824 132.011 193.28C132.39 192.736 132.579 191.901 132.579 190.776C132.579 190.04 132.505 189.429 132.355 188.944C132.206 188.453 131.982 188.088 131.683 187.848C131.39 187.603 131.027 187.48 130.595 187.48C130.126 187.48 129.713 187.621 129.355 187.904C129.003 188.181 128.713 188.491 128.483 188.832V193.008C128.702 193.339 128.977 193.603 129.307 193.8C129.643 193.997 130.003 194.096 130.387 194.096ZM142.765 193.16C142.765 193.496 142.821 193.741 142.933 193.896C143.045 194.051 143.218 194.165 143.453 194.24L143.125 195.184C142.762 195.136 142.445 195.021 142.173 194.84C141.901 194.653 141.704 194.373 141.581 194C141.277 194.389 140.898 194.685 140.445 194.888C139.992 195.085 139.49 195.184 138.941 195.184C138.098 195.184 137.434 194.947 136.949 194.472C136.464 193.997 136.221 193.368 136.221 192.584C136.221 191.715 136.56 191.048 137.237 190.584C137.914 190.12 138.893 189.888 140.173 189.888H141.413V189.184C141.413 188.576 141.234 188.147 140.877 187.896C140.525 187.64 140.034 187.512 139.405 187.512C139.128 187.512 138.802 187.547 138.429 187.616C138.056 187.68 137.65 187.789 137.213 187.944L136.861 186.928C137.378 186.736 137.864 186.6 138.317 186.52C138.77 186.44 139.202 186.4 139.613 186.4C140.664 186.4 141.45 186.645 141.973 187.136C142.501 187.621 142.765 188.283 142.765 189.12V193.16ZM139.285 194.16C139.701 194.16 140.098 194.056 140.477 193.848C140.856 193.635 141.168 193.341 141.413 192.968V190.8H140.197C139.269 190.8 138.613 190.96 138.229 191.28C137.85 191.6 137.661 192.029 137.661 192.568C137.661 193.091 137.794 193.488 138.061 193.76C138.333 194.027 138.741 194.16 139.285 194.16ZM150.135 194.024C150.556 194.024 150.948 193.955 151.311 193.816C151.679 193.677 152.017 193.501 152.327 193.288L152.983 194.168C152.615 194.483 152.172 194.731 151.655 194.912C151.137 195.093 150.631 195.184 150.135 195.184C149.297 195.184 148.583 195.005 147.991 194.648C147.404 194.285 146.956 193.779 146.647 193.128C146.337 192.472 146.183 191.704 146.183 190.824C146.183 189.981 146.337 189.227 146.647 188.56C146.961 187.888 147.412 187.36 147.999 186.976C148.591 186.592 149.308 186.4 150.151 186.4C150.689 186.4 151.193 186.483 151.663 186.648C152.137 186.808 152.572 187.051 152.967 187.376L152.311 188.272C151.953 188.021 151.593 187.835 151.231 187.712C150.873 187.584 150.508 187.52 150.135 187.52C149.409 187.52 148.812 187.792 148.343 188.336C147.873 188.88 147.639 189.709 147.639 190.824C147.639 191.571 147.745 192.181 147.959 192.656C148.177 193.125 148.473 193.472 148.847 193.696C149.225 193.915 149.655 194.024 150.135 194.024ZM162.977 186.576L159.185 190.368L163.417 195H161.649L157.505 190.4L161.233 186.576H162.977ZM157.353 183.016V195H156.009V183.184L157.353 183.016ZM167.29 193.768C167.29 193.507 167.352 193.272 167.474 193.064C167.597 192.851 167.762 192.683 167.97 192.56C168.184 192.432 168.424 192.368 168.69 192.368C168.962 192.368 169.205 192.432 169.418 192.56C169.632 192.683 169.8 192.851 169.922 193.064C170.045 193.272 170.106 193.507 170.106 193.768C170.106 194.029 170.045 194.269 169.922 194.488C169.8 194.701 169.632 194.872 169.418 195C169.205 195.123 168.962 195.184 168.69 195.184C168.424 195.184 168.184 195.123 167.97 195C167.762 194.872 167.597 194.701 167.474 194.488C167.352 194.269 167.29 194.029 167.29 193.768Z" fill="#FCFCFC"/>
</g>
<defs>
<filter id="filter0_d_65_89" x="0" y="0.830978" width="251.633" height="258.169" filterUnits="userSpaceOnUse" color-interpolation-filters="sRGB">
<feFlood flood-opacity="0" result="BackgroundImageFix"/>
<feColorMatrix in="SourceAlpha" type="matrix" values="0 0 0 0 0 0 0 0 0 0 0 0 0 0 0 0 0 0 127 0" result="hardAlpha"/>
<feOffset dx="4" dy="4"/>
<feGaussianBlur stdDeviation="5"/>
<feComposite in2="hardAlpha" operator="out"/>
<feColorMatrix type="matrix" values="0 0 0 0 0 0 0 0 0 0 0 0 0 0 0 0 0 0 0.25 0"/>
<feBlend mode="normal" in2="BackgroundImageFix" result="effect1_dropShadow_65_89"/>
<feBlend mode="normal" in="SourceGraphic" in2="effect1_dropShadow_65_89" result="shape"/>
</filter>
<filter id="filter1_f_65_89" x="16.28" y="73.632" width="160.418" height="125.552" filterUnits="userSpaceOnUse" color-interpolation-filters="sRGB">
<feFlood flood-opacity="0" result="BackgroundImageFix"/>
<feBlend mode="normal" in="SourceGraphic" in2="BackgroundImageFix" result="shape"/>
<feGaussianBlur stdDeviation="2" result="effect1_foregroundBlur_65_89"/>
</filter>
</defs>
</svg>
