<svg width="227" height="61" viewBox="0 0 227 61" fill="none" xmlns="http://www.w3.org/2000/svg">
<path d="M0.574688 60V4H26.8147C33.5347 4 38.6547 5.33333 42.1747 8C45.6947 10.6133 47.4547 14.1333 47.4547 18.56C47.4547 21.5467 46.7614 24.1067 45.3747 26.24C43.988 28.32 42.1214 29.9467 39.7747 31.12C37.4814 32.24 34.9747 32.8 32.2547 32.8L33.6947 29.92C36.8414 29.92 39.668 30.5067 42.1747 31.68C44.6814 32.8 46.6547 34.4533 48.0947 36.64C49.588 38.8267 50.3347 41.5467 50.3347 44.8C50.3347 49.6 48.4947 53.3333 44.8147 56C41.1347 58.6667 35.668 60 28.4147 60H0.574688ZM10.9747 51.84H27.7747C31.668 51.84 34.6547 51.2 36.7347 49.92C38.8147 48.64 39.8547 46.5867 39.8547 43.76C39.8547 40.9867 38.8147 38.96 36.7347 37.68C34.6547 36.3467 31.668 35.68 27.7747 35.68H10.1747V27.6H25.6947C29.3214 27.6 32.0947 26.96 34.0147 25.68C35.988 24.4 36.9747 22.48 36.9747 19.92C36.9747 17.3067 35.988 15.36 34.0147 14.08C32.0947 12.8 29.3214 12.16 25.6947 12.16H10.9747V51.84ZM102.799 60.56C98.4257 60.56 94.5324 59.6267 91.1191 57.76C87.7057 55.84 85.0124 53.2267 83.0391 49.92C81.0657 46.6133 80.0791 42.8533 80.0791 38.64C80.0791 34.3733 81.0657 30.6133 83.0391 27.36C85.0124 24.0533 87.7057 21.4667 91.1191 19.6C94.5324 17.7333 98.4257 16.8 102.799 16.8C107.226 16.8 111.146 17.7333 114.559 19.6C118.026 21.4667 120.719 24.0267 122.639 27.28C124.612 30.5333 125.599 34.32 125.599 38.64C125.599 42.8533 124.612 46.6133 122.639 49.92C120.719 53.2267 118.026 55.84 114.559 57.76C111.146 59.6267 107.226 60.56 102.799 60.56ZM102.799 52C105.252 52 107.439 51.4667 109.359 50.4C111.279 49.3333 112.772 47.7867 113.839 45.76C114.959 43.7333 115.519 41.36 115.519 38.64C115.519 35.8667 114.959 33.4933 113.839 31.52C112.772 29.4933 111.279 27.9467 109.359 26.88C107.439 25.8133 105.279 25.28 102.879 25.28C100.426 25.28 98.2391 25.8133 96.3191 26.88C94.4524 27.9467 92.9591 29.4933 91.8391 31.52C90.7191 33.4933 90.1591 35.8667 90.1591 38.64C90.1591 41.36 90.7191 43.7333 91.8391 45.76C92.9591 47.7867 94.4524 49.3333 96.3191 50.4C98.2391 51.4667 100.399 52 102.799 52Z" fill="#56B2CE"/>
<path d="M60.4741 60V0.639997H70.4741V60H60.4741ZM189.806 50.48L190.046 37.92L212.366 17.28H224.366L205.406 36.32L200.126 40.72L189.806 50.48ZM181.646 60V0.639997H191.646V60H181.646ZM213.886 60L198.286 40.72L204.606 32.72L226.046 60H213.886Z" fill="#FFBDBD"/>
<path d="M154.762 60.56C150.282 60.56 146.282 59.6267 142.762 57.76C139.295 55.84 136.575 53.2267 134.602 49.92C132.628 46.6133 131.642 42.8533 131.642 38.64C131.642 34.3733 132.628 30.6133 134.602 27.36C136.575 24.0533 139.295 21.4667 142.762 19.6C146.282 17.7333 150.282 16.8 154.762 16.8C158.922 16.8 162.575 17.6533 165.722 19.36C168.922 21.0133 171.348 23.4667 173.002 26.72L165.322 31.2C164.042 29.1733 162.468 27.68 160.602 26.72C158.788 25.76 156.815 25.28 154.682 25.28C152.228 25.28 150.015 25.8133 148.042 26.88C146.068 27.9467 144.522 29.4933 143.402 31.52C142.282 33.4933 141.722 35.8667 141.722 38.64C141.722 41.4133 142.282 43.8133 143.402 45.84C144.522 47.8133 146.068 49.3333 148.042 50.4C150.015 51.4667 152.228 52 154.682 52C156.815 52 158.788 51.52 160.602 50.56C162.468 49.6 164.042 48.1067 165.322 46.08L173.002 50.56C171.348 53.76 168.922 56.24 165.722 58C162.575 59.7067 158.922 60.56 154.762 60.56Z" fill="#F4CB62"/>
</svg>
