<svg width="356" height="125" viewBox="0 0 356 125" fill="none" xmlns="http://www.w3.org/2000/svg">
<g filter="url(#filter0_d_104_2)">
<ellipse cx="55" cy="47" rx="48" ry="47" fill="white"/>
</g>
<g filter="url(#filter1_d_104_2)">
<rect x="26" y="32.3455" width="37.7515" height="40.0166" fill="#FED875"/>
<path d="M63.7515 32.2875L83.3822 20.2651V59.0039L63.7515 72.3621V32.2875Z" fill="#6F9AB2"/>
<path d="M46.571 20.2651H83.3822L63.8939 32.3455H26L46.571 20.2651Z" fill="#D9D9D9"/>
</g>
<path d="M121.205 58V56.9773L125.045 52.7727C125.496 52.2803 125.867 51.8523 126.159 51.4886C126.451 51.1212 126.667 50.7765 126.807 50.4545C126.951 50.1288 127.023 49.7879 127.023 49.4318C127.023 49.0227 126.924 48.6686 126.727 48.3693C126.534 48.0701 126.269 47.839 125.932 47.6761C125.595 47.5133 125.216 47.4318 124.795 47.4318C124.348 47.4318 123.958 47.5246 123.625 47.7102C123.295 47.892 123.04 48.1477 122.858 48.4773C122.68 48.8068 122.591 49.1932 122.591 49.6364H121.25C121.25 48.9545 121.407 48.3561 121.722 47.8409C122.036 47.3258 122.464 46.9242 123.006 46.6364C123.551 46.3485 124.163 46.2045 124.841 46.2045C125.523 46.2045 126.127 46.3485 126.653 46.6364C127.18 46.9242 127.593 47.3125 127.892 47.8011C128.191 48.2898 128.341 48.8333 128.341 49.4318C128.341 49.8598 128.263 50.2784 128.108 50.6875C127.956 51.0928 127.691 51.5455 127.312 52.0455C126.938 52.5417 126.417 53.1477 125.75 53.8636L123.136 56.6591V56.75H128.545V58H121.205Z" fill="white"/>
<path d="M116 46C116.828 46 117.5 45.3284 117.5 44.5C117.5 43.6716 116.828 43 116 43V46ZM72 46H116V43H72V46Z" fill="#7C3FFF"/>
<g filter="url(#filter2_d_104_2)">
<rect x="107.543" y="32.3455" width="37.7515" height="40.0166" fill="#B0A9D1"/>
<path d="M145.295 32.2875L164.925 20.2651V59.0039L145.295 72.3621V32.2875Z" fill="#6F9AB2"/>
<path d="M128.114 20.2651H164.925L145.437 32.3455H107.543L128.114 20.2651Z" fill="#D9D9D9"/>
</g>
<path d="M199 47.5C199.828 47.5 200.5 46.8284 200.5 46C200.5 45.1716 199.828 44.5 199 44.5V47.5ZM155 47.5H199V44.5H155V47.5Z" fill="#7C3FFF"/>
<g filter="url(#filter3_d_104_2)">
<rect x="199.279" y="32.3455" width="37.7515" height="40.0166" fill="#B0A9D1"/>
<path d="M237.031 32.2875L256.662 20.2651V59.0039L237.031 72.3621V32.2875Z" fill="#6F9AB2"/>
<path d="M219.85 20.2651H256.661L237.173 32.3455H199.279L219.85 20.2651Z" fill="#D9D9D9"/>
</g>
<path d="M291 47.5C291.828 47.5 292.5 46.8284 292.5 46C292.5 45.1716 291.828 44.5 291 44.5V47.5ZM247 47.5H291V44.5H247V47.5Z" fill="#7C3FFF"/>
<g filter="url(#filter4_d_104_2)">
<rect x="287.618" y="30.0805" width="37.7515" height="40.0166" fill="#B0A9D1"/>
<path d="M325.369 30.0224L345 18V56.7388L325.369 70.097V30.0224Z" fill="#6F9AB2"/>
<path d="M308.189 18H345L325.512 30.0805H287.618L308.189 18Z" fill="#D9D9D9"/>
</g>
<path d="M7.29156 118.15C6.47156 118.15 5.71656 118.02 5.02656 117.76C4.34656 117.49 3.75156 117.115 3.24156 116.635C2.73156 116.145 2.33656 115.57 2.05656 114.91C1.77656 114.25 1.63656 113.53 1.63656 112.75C1.63656 111.97 1.77656 111.25 2.05656 110.59C2.33656 109.93 2.73156 109.36 3.24156 108.88C3.76156 108.39 4.36656 108.015 5.05656 107.755C5.74656 107.485 6.50156 107.35 7.32156 107.35C8.21156 107.35 9.01156 107.495 9.72156 107.785C10.4416 108.075 11.0466 108.5 11.5366 109.06L10.3066 110.26C9.89656 109.85 9.45156 109.55 8.97156 109.36C8.50156 109.16 7.98156 109.06 7.41156 109.06C6.86156 109.06 6.35156 109.15 5.88156 109.33C5.41156 109.51 5.00656 109.765 4.66656 110.095C4.32656 110.425 4.06156 110.815 3.87156 111.265C3.69156 111.715 3.60156 112.21 3.60156 112.75C3.60156 113.28 3.69156 113.77 3.87156 114.22C4.06156 114.67 4.32656 115.065 4.66656 115.405C5.00656 115.735 5.40656 115.99 5.86656 116.17C6.32656 116.35 6.83656 116.44 7.39656 116.44C7.91656 116.44 8.41656 116.36 8.89656 116.2C9.38656 116.03 9.85156 115.75 10.2916 115.36L11.4016 116.815C10.8516 117.255 10.2116 117.59 9.48156 117.82C8.76156 118.04 8.03156 118.15 7.29156 118.15ZM9.55656 116.56V112.63H11.4016V116.815L9.55656 116.56ZM17.5585 118.105C16.6685 118.105 15.8885 117.93 15.2185 117.58C14.5585 117.22 14.0435 116.73 13.6735 116.11C13.3135 115.49 13.1335 114.785 13.1335 113.995C13.1335 113.195 13.3085 112.49 13.6585 111.88C14.0185 111.26 14.5085 110.775 15.1285 110.425C15.7585 110.075 16.4735 109.9 17.2735 109.9C18.0535 109.9 18.7485 110.07 19.3585 110.41C19.9685 110.75 20.4485 111.23 20.7985 111.85C21.1485 112.47 21.3235 113.2 21.3235 114.04C21.3235 114.12 21.3185 114.21 21.3085 114.31C21.3085 114.41 21.3035 114.505 21.2935 114.595H14.6185V113.35H20.3035L19.5685 113.74C19.5785 113.28 19.4835 112.875 19.2835 112.525C19.0835 112.175 18.8085 111.9 18.4585 111.7C18.1185 111.5 17.7235 111.4 17.2735 111.4C16.8135 111.4 16.4085 111.5 16.0585 111.7C15.7185 111.9 15.4485 112.18 15.2485 112.54C15.0585 112.89 14.9635 113.305 14.9635 113.785V114.085C14.9635 114.565 15.0735 114.99 15.2935 115.36C15.5135 115.73 15.8235 116.015 16.2235 116.215C16.6235 116.415 17.0835 116.515 17.6035 116.515C18.0535 116.515 18.4585 116.445 18.8185 116.305C19.1785 116.165 19.4985 115.945 19.7785 115.645L20.7835 116.8C20.4235 117.22 19.9685 117.545 19.4185 117.775C18.8785 117.995 18.2585 118.105 17.5585 118.105ZM27.6695 109.9C28.3095 109.9 28.8795 110.025 29.3795 110.275C29.8895 110.525 30.2895 110.91 30.5795 111.43C30.8695 111.94 31.0145 112.6 31.0145 113.41V118H29.1395V113.65C29.1395 112.94 28.9695 112.41 28.6295 112.06C28.2995 111.71 27.8345 111.535 27.2345 111.535C26.7945 111.535 26.4045 111.625 26.0645 111.805C25.7245 111.985 25.4595 112.255 25.2695 112.615C25.0895 112.965 24.9995 113.41 24.9995 113.95V118H23.1245V109.99H24.9095V112.15L24.5945 111.49C24.8745 110.98 25.2795 110.59 25.8095 110.32C26.3495 110.04 26.9695 109.9 27.6695 109.9ZM37.1727 118.105C36.2827 118.105 35.5027 117.93 34.8327 117.58C34.1727 117.22 33.6577 116.73 33.2877 116.11C32.9277 115.49 32.7477 114.785 32.7477 113.995C32.7477 113.195 32.9227 112.49 33.2727 111.88C33.6327 111.26 34.1227 110.775 34.7427 110.425C35.3727 110.075 36.0877 109.9 36.8877 109.9C37.6677 109.9 38.3627 110.07 38.9727 110.41C39.5827 110.75 40.0627 111.23 40.4127 111.85C40.7627 112.47 40.9377 113.2 40.9377 114.04C40.9377 114.12 40.9327 114.21 40.9227 114.31C40.9227 114.41 40.9177 114.505 40.9077 114.595H34.2327V113.35H39.9177L39.1827 113.74C39.1927 113.28 39.0977 112.875 38.8977 112.525C38.6977 112.175 38.4227 111.9 38.0727 111.7C37.7327 111.5 37.3377 111.4 36.8877 111.4C36.4277 111.4 36.0227 111.5 35.6727 111.7C35.3327 111.9 35.0627 112.18 34.8627 112.54C34.6727 112.89 34.5777 113.305 34.5777 113.785V114.085C34.5777 114.565 34.6877 114.99 34.9077 115.36C35.1277 115.73 35.4377 116.015 35.8377 116.215C36.2377 116.415 36.6977 116.515 37.2177 116.515C37.6677 116.515 38.0727 116.445 38.4327 116.305C38.7927 116.165 39.1127 115.945 39.3927 115.645L40.3977 116.8C40.0377 117.22 39.5827 117.545 39.0327 117.775C38.4927 117.995 37.8727 118.105 37.1727 118.105ZM45.2138 118.105C44.5438 118.105 43.8988 118.02 43.2788 117.85C42.6688 117.67 42.1838 117.455 41.8238 117.205L42.5438 115.78C42.9038 116.01 43.3338 116.2 43.8338 116.35C44.3338 116.5 44.8338 116.575 45.3338 116.575C45.9238 116.575 46.3488 116.495 46.6088 116.335C46.8788 116.175 47.0138 115.96 47.0138 115.69C47.0138 115.47 46.9238 115.305 46.7438 115.195C46.5638 115.075 46.3288 114.985 46.0388 114.925C45.7488 114.865 45.4238 114.81 45.0638 114.76C44.7138 114.71 44.3588 114.645 43.9988 114.565C43.6488 114.475 43.3288 114.35 43.0388 114.19C42.7488 114.02 42.5138 113.795 42.3338 113.515C42.1538 113.235 42.0638 112.865 42.0638 112.405C42.0638 111.895 42.2088 111.455 42.4988 111.085C42.7888 110.705 43.1938 110.415 43.7138 110.215C44.2438 110.005 44.8688 109.9 45.5888 109.9C46.1288 109.9 46.6738 109.96 47.2238 110.08C47.7738 110.2 48.2288 110.37 48.5888 110.59L47.8688 112.015C47.4888 111.785 47.1038 111.63 46.7138 111.55C46.3338 111.46 45.9538 111.415 45.5738 111.415C45.0038 111.415 44.5788 111.5 44.2988 111.67C44.0288 111.84 43.8938 112.055 43.8938 112.315C43.8938 112.555 43.9838 112.735 44.1638 112.855C44.3438 112.975 44.5788 113.07 44.8688 113.14C45.1588 113.21 45.4788 113.27 45.8288 113.32C46.1888 113.36 46.5438 113.425 46.8938 113.515C47.2438 113.605 47.5638 113.73 47.8538 113.89C48.1538 114.04 48.3938 114.255 48.5738 114.535C48.7538 114.815 48.8438 115.18 48.8438 115.63C48.8438 116.13 48.6938 116.565 48.3938 116.935C48.1038 117.305 47.6888 117.595 47.1488 117.805C46.6088 118.005 45.9638 118.105 45.2138 118.105ZM50.4585 118V109.99H52.3335V118H50.4585ZM51.4035 108.67C51.0535 108.67 50.7635 108.56 50.5335 108.34C50.3135 108.12 50.2035 107.855 50.2035 107.545C50.2035 107.225 50.3135 106.96 50.5335 106.75C50.7635 106.53 51.0535 106.42 51.4035 106.42C51.7535 106.42 52.0385 106.525 52.2585 106.735C52.4885 106.935 52.6035 107.19 52.6035 107.5C52.6035 107.83 52.4935 108.11 52.2735 108.34C52.0535 108.56 51.7635 108.67 51.4035 108.67ZM57.2695 118.105C56.5995 118.105 55.9545 118.02 55.3345 117.85C54.7245 117.67 54.2395 117.455 53.8795 117.205L54.5995 115.78C54.9595 116.01 55.3895 116.2 55.8895 116.35C56.3895 116.5 56.8895 116.575 57.3895 116.575C57.9795 116.575 58.4045 116.495 58.6645 116.335C58.9345 116.175 59.0695 115.96 59.0695 115.69C59.0695 115.47 58.9795 115.305 58.7995 115.195C58.6195 115.075 58.3845 114.985 58.0945 114.925C57.8045 114.865 57.4795 114.81 57.1195 114.76C56.7695 114.71 56.4145 114.645 56.0545 114.565C55.7045 114.475 55.3845 114.35 55.0945 114.19C54.8045 114.02 54.5695 113.795 54.3895 113.515C54.2095 113.235 54.1195 112.865 54.1195 112.405C54.1195 111.895 54.2645 111.455 54.5545 111.085C54.8445 110.705 55.2495 110.415 55.7695 110.215C56.2995 110.005 56.9245 109.9 57.6445 109.9C58.1845 109.9 58.7295 109.96 59.2795 110.08C59.8295 110.2 60.2845 110.37 60.6445 110.59L59.9245 112.015C59.5445 111.785 59.1595 111.63 58.7695 111.55C58.3895 111.46 58.0095 111.415 57.6295 111.415C57.0595 111.415 56.6345 111.5 56.3545 111.67C56.0845 111.84 55.9495 112.055 55.9495 112.315C55.9495 112.555 56.0395 112.735 56.2195 112.855C56.3995 112.975 56.6345 113.07 56.9245 113.14C57.2145 113.21 57.5345 113.27 57.8845 113.32C58.2445 113.36 58.5995 113.425 58.9495 113.515C59.2995 113.605 59.6195 113.73 59.9095 113.89C60.2095 114.04 60.4495 114.255 60.6295 114.535C60.8095 114.815 60.8995 115.18 60.8995 115.63C60.8995 116.13 60.7495 116.565 60.4495 116.935C60.1595 117.305 59.7445 117.595 59.2045 117.805C58.6645 118.005 58.0195 118.105 57.2695 118.105ZM66.8397 118V107.5H71.7597C73.0197 107.5 73.9797 107.75 74.6397 108.25C75.2997 108.74 75.6297 109.4 75.6297 110.23C75.6297 110.79 75.4997 111.27 75.2397 111.67C74.9797 112.06 74.6297 112.365 74.1897 112.585C73.7597 112.795 73.2897 112.9 72.7797 112.9L73.0497 112.36C73.6397 112.36 74.1697 112.47 74.6397 112.69C75.1097 112.9 75.4797 113.21 75.7497 113.62C76.0297 114.03 76.1697 114.54 76.1697 115.15C76.1697 116.05 75.8247 116.75 75.1347 117.25C74.4447 117.75 73.4197 118 72.0597 118H66.8397ZM68.7897 116.47H71.9397C72.6697 116.47 73.2297 116.35 73.6197 116.11C74.0097 115.87 74.2047 115.485 74.2047 114.955C74.2047 114.435 74.0097 114.055 73.6197 113.815C73.2297 113.565 72.6697 113.44 71.9397 113.44H68.6397V111.925H71.5497C72.2297 111.925 72.7497 111.805 73.1097 111.565C73.4797 111.325 73.6647 110.965 73.6647 110.485C73.6647 109.995 73.4797 109.63 73.1097 109.39C72.7497 109.15 72.2297 109.03 71.5497 109.03H68.7897V116.47ZM78.0708 118V106.87H79.9458V118H78.0708ZM86.0068 118.105C85.1868 118.105 84.4568 117.93 83.8168 117.58C83.1768 117.22 82.6718 116.73 82.3018 116.11C81.9318 115.49 81.7468 114.785 81.7468 113.995C81.7468 113.195 81.9318 112.49 82.3018 111.88C82.6718 111.26 83.1768 110.775 83.8168 110.425C84.4568 110.075 85.1868 109.9 86.0068 109.9C86.8368 109.9 87.5718 110.075 88.2118 110.425C88.8618 110.775 89.3668 111.255 89.7268 111.865C90.0968 112.475 90.2818 113.185 90.2818 113.995C90.2818 114.785 90.0968 115.49 89.7268 116.11C89.3668 116.73 88.8618 117.22 88.2118 117.58C87.5718 117.93 86.8368 118.105 86.0068 118.105ZM86.0068 116.5C86.4668 116.5 86.8768 116.4 87.2368 116.2C87.5968 116 87.8768 115.71 88.0768 115.33C88.2868 114.95 88.3918 114.505 88.3918 113.995C88.3918 113.475 88.2868 113.03 88.0768 112.66C87.8768 112.28 87.5968 111.99 87.2368 111.79C86.8768 111.59 86.4718 111.49 86.0218 111.49C85.5618 111.49 85.1518 111.59 84.7918 111.79C84.4418 111.99 84.1618 112.28 83.9518 112.66C83.7418 113.03 83.6368 113.475 83.6368 113.995C83.6368 114.505 83.7418 114.95 83.9518 115.33C84.1618 115.71 84.4418 116 84.7918 116.2C85.1518 116.4 85.5568 116.5 86.0068 116.5ZM95.7497 118.105C94.9097 118.105 94.1597 117.93 93.4997 117.58C92.8497 117.22 92.3397 116.73 91.9697 116.11C91.5997 115.49 91.4147 114.785 91.4147 113.995C91.4147 113.195 91.5997 112.49 91.9697 111.88C92.3397 111.26 92.8497 110.775 93.4997 110.425C94.1597 110.075 94.9097 109.9 95.7497 109.9C96.5297 109.9 97.2147 110.06 97.8047 110.38C98.4047 110.69 98.8597 111.15 99.1697 111.76L97.7297 112.6C97.4897 112.22 97.1947 111.94 96.8447 111.76C96.5047 111.58 96.1347 111.49 95.7347 111.49C95.2747 111.49 94.8597 111.59 94.4897 111.79C94.1197 111.99 93.8297 112.28 93.6197 112.66C93.4097 113.03 93.3047 113.475 93.3047 113.995C93.3047 114.515 93.4097 114.965 93.6197 115.345C93.8297 115.715 94.1197 116 94.4897 116.2C94.8597 116.4 95.2747 116.5 95.7347 116.5C96.1347 116.5 96.5047 116.41 96.8447 116.23C97.1947 116.05 97.4897 115.77 97.7297 115.39L99.1697 116.23C98.8597 116.83 98.4047 117.295 97.8047 117.625C97.2147 117.945 96.5297 118.105 95.7497 118.105ZM102.247 116.215L102.292 113.86L106.477 109.99H108.727L105.172 113.56L104.182 114.385L102.247 116.215ZM100.717 118V106.87H102.592V118H100.717ZM106.762 118L103.837 114.385L105.022 112.885L109.042 118H106.762Z" fill="black"/>
<defs>
<filter id="filter0_d_104_2" x="3" y="0" width="104" height="102" filterUnits="userSpaceOnUse" color-interpolation-filters="sRGB">
<feFlood flood-opacity="0" result="BackgroundImageFix"/>
<feColorMatrix in="SourceAlpha" type="matrix" values="0 0 0 0 0 0 0 0 0 0 0 0 0 0 0 0 0 0 127 0" result="hardAlpha"/>
<feOffset dy="4"/>
<feGaussianBlur stdDeviation="2"/>
<feComposite in2="hardAlpha" operator="out"/>
<feColorMatrix type="matrix" values="0 0 0 0 0 0 0 0 0 0 0 0 0 0 0 0 0 0 0.25 0"/>
<feBlend mode="normal" in2="BackgroundImageFix" result="effect1_dropShadow_104_2"/>
<feBlend mode="normal" in="SourceGraphic" in2="effect1_dropShadow_104_2" result="shape"/>
</filter>
<filter id="filter1_d_104_2" x="23" y="17.2651" width="71.3823" height="66.097" filterUnits="userSpaceOnUse" color-interpolation-filters="sRGB">
<feFlood flood-opacity="0" result="BackgroundImageFix"/>
<feColorMatrix in="SourceAlpha" type="matrix" values="0 0 0 0 0 0 0 0 0 0 0 0 0 0 0 0 0 0 127 0" result="hardAlpha"/>
<feOffset dx="4" dy="4"/>
<feGaussianBlur stdDeviation="3.5"/>
<feComposite in2="hardAlpha" operator="out"/>
<feColorMatrix type="matrix" values="0 0 0 0 0 0 0 0 0 0 0 0 0 0 0 0 0 0 0.25 0"/>
<feBlend mode="normal" in2="BackgroundImageFix" result="effect1_dropShadow_104_2"/>
<feBlend mode="normal" in="SourceGraphic" in2="effect1_dropShadow_104_2" result="shape"/>
</filter>
<filter id="filter2_d_104_2" x="104.543" y="17.2651" width="71.3823" height="66.097" filterUnits="userSpaceOnUse" color-interpolation-filters="sRGB">
<feFlood flood-opacity="0" result="BackgroundImageFix"/>
<feColorMatrix in="SourceAlpha" type="matrix" values="0 0 0 0 0 0 0 0 0 0 0 0 0 0 0 0 0 0 127 0" result="hardAlpha"/>
<feOffset dx="4" dy="4"/>
<feGaussianBlur stdDeviation="3.5"/>
<feComposite in2="hardAlpha" operator="out"/>
<feColorMatrix type="matrix" values="0 0 0 0 0 0 0 0 0 0 0 0 0 0 0 0 0 0 0.25 0"/>
<feBlend mode="normal" in2="BackgroundImageFix" result="effect1_dropShadow_104_2"/>
<feBlend mode="normal" in="SourceGraphic" in2="effect1_dropShadow_104_2" result="shape"/>
</filter>
<filter id="filter3_d_104_2" x="196.279" y="17.2651" width="71.3823" height="66.097" filterUnits="userSpaceOnUse" color-interpolation-filters="sRGB">
<feFlood flood-opacity="0" result="BackgroundImageFix"/>
<feColorMatrix in="SourceAlpha" type="matrix" values="0 0 0 0 0 0 0 0 0 0 0 0 0 0 0 0 0 0 127 0" result="hardAlpha"/>
<feOffset dx="4" dy="4"/>
<feGaussianBlur stdDeviation="3.5"/>
<feComposite in2="hardAlpha" operator="out"/>
<feColorMatrix type="matrix" values="0 0 0 0 0 0 0 0 0 0 0 0 0 0 0 0 0 0 0.25 0"/>
<feBlend mode="normal" in2="BackgroundImageFix" result="effect1_dropShadow_104_2"/>
<feBlend mode="normal" in="SourceGraphic" in2="effect1_dropShadow_104_2" result="shape"/>
</filter>
<filter id="filter4_d_104_2" x="284.618" y="15" width="71.3822" height="66.097" filterUnits="userSpaceOnUse" color-interpolation-filters="sRGB">
<feFlood flood-opacity="0" result="BackgroundImageFix"/>
<feColorMatrix in="SourceAlpha" type="matrix" values="0 0 0 0 0 0 0 0 0 0 0 0 0 0 0 0 0 0 127 0" result="hardAlpha"/>
<feOffset dx="4" dy="4"/>
<feGaussianBlur stdDeviation="3.5"/>
<feComposite in2="hardAlpha" operator="out"/>
<feColorMatrix type="matrix" values="0 0 0 0 0 0 0 0 0 0 0 0 0 0 0 0 0 0 0.25 0"/>
<feBlend mode="normal" in2="BackgroundImageFix" result="effect1_dropShadow_104_2"/>
<feBlend mode="normal" in="SourceGraphic" in2="effect1_dropShadow_104_2" result="shape"/>
</filter>
</defs>
</svg>
