<svg width="65" height="60" viewBox="0 0 65 60" fill="none" xmlns="http://www.w3.org/2000/svg">
<g filter="url(#filter0_d_131_2)">
<rect x="3" y="13.6667" width="33.3333" height="35.3333" fill="#B0A9D1"/>
<path d="M36.3333 13.6154L53.6667 3V37.2051L36.3333 49V13.6154Z" fill="#6F9AB2"/>
<path d="M21.1635 3H53.6667L36.4591 13.6667H3L21.1635 3Z" fill="#D9D9D9"/>
</g>
<path d="M19.1364 36.1591C18.3864 36.1591 17.7178 36.0303 17.1307 35.7727C16.5473 35.5152 16.0833 35.1572 15.7386 34.6989C15.3977 34.2367 15.2121 33.7008 15.1818 33.0909H16.6136C16.6439 33.4659 16.7727 33.7898 17 34.0625C17.2273 34.3314 17.5246 34.5398 17.892 34.6875C18.2595 34.8352 18.6667 34.9091 19.1136 34.9091C19.6136 34.9091 20.0568 34.822 20.4432 34.6477C20.8295 34.4735 21.1326 34.2311 21.3523 33.9205C21.572 33.6098 21.6818 33.25 21.6818 32.8409C21.6818 32.4129 21.5758 32.036 21.3636 31.7102C21.1515 31.3807 20.8409 31.1231 20.4318 30.9375C20.0227 30.7519 19.5227 30.6591 18.9318 30.6591H18V29.4091H18.9318C19.3939 29.4091 19.7992 29.3258 20.1477 29.1591C20.5 28.9924 20.7746 28.7576 20.9716 28.4545C21.1723 28.1515 21.2727 27.7955 21.2727 27.3864C21.2727 26.9924 21.1856 26.6496 21.0114 26.358C20.8371 26.0663 20.5909 25.839 20.2727 25.6761C19.9583 25.5133 19.5871 25.4318 19.1591 25.4318C18.7576 25.4318 18.3788 25.5057 18.0227 25.6534C17.6705 25.7973 17.3826 26.0076 17.1591 26.2841C16.9356 26.5568 16.8144 26.8864 16.7955 27.2727H15.4318C15.4545 26.6629 15.6383 26.1288 15.983 25.6705C16.3277 25.2083 16.7784 24.8485 17.3352 24.5909C17.8958 24.3333 18.5114 24.2045 19.1818 24.2045C19.9015 24.2045 20.5189 24.3504 21.0341 24.642C21.5492 24.9299 21.9451 25.3106 22.2216 25.7841C22.4981 26.2576 22.6364 26.7689 22.6364 27.3182C22.6364 27.9735 22.464 28.5322 22.1193 28.9943C21.7784 29.4564 21.3144 29.7765 20.7273 29.9545V30.0455C21.4621 30.1667 22.036 30.4792 22.4489 30.983C22.8617 31.483 23.0682 32.1023 23.0682 32.8409C23.0682 33.4735 22.8958 34.0417 22.5511 34.5455C22.2102 35.0455 21.7443 35.4394 21.1534 35.7273C20.5625 36.0152 19.8902 36.1591 19.1364 36.1591Z" fill="white"/>
<defs>
<filter id="filter0_d_131_2" x="0" y="0" width="64.6667" height="60" filterUnits="userSpaceOnUse" color-interpolation-filters="sRGB">
<feFlood flood-opacity="0" result="BackgroundImageFix"/>
<feColorMatrix in="SourceAlpha" type="matrix" values="0 0 0 0 0 0 0 0 0 0 0 0 0 0 0 0 0 0 127 0" result="hardAlpha"/>
<feOffset dx="4" dy="4"/>
<feGaussianBlur stdDeviation="3.5"/>
<feComposite in2="hardAlpha" operator="out"/>
<feColorMatrix type="matrix" values="0 0 0 0 0 0 0 0 0 0 0 0 0 0 0 0 0 0 0.25 0"/>
<feBlend mode="normal" in2="BackgroundImageFix" result="effect1_dropShadow_131_2"/>
<feBlend mode="normal" in="SourceGraphic" in2="effect1_dropShadow_131_2" result="shape"/>
</filter>
</defs>
</svg>
