<svg width="148" height="120" viewBox="0 0 148 120" fill="none" xmlns="http://www.w3.org/2000/svg">
<line x1="81.6253" y1="87.7" x2="84.6253" y2="83.7" stroke="#272727"/>
<rect x="33.0253" y="15" width="87" height="87" rx="20" fill="#7AC1F4"/>
<ellipse cx="72.7932" cy="13.7527" rx="4.5" ry="13" transform="rotate(20.5012 72.7932 13.7527)" fill="#7AC1F4"/>
<ellipse cx="81.7932" cy="13.7527" rx="4.5" ry="13" transform="rotate(37.2295 81.7932 13.7527)" fill="#7AC1F4"/>
<path d="M93.9393 52.9018C102.069 48.5891 111.851 50.0183 119.618 54.9552L139.837 67.8067C144.249 70.6113 145.552 76.4617 142.748 80.874C139.943 85.2863 133.991 86.6387 130.379 82.858C122.061 74.1485 120.048 65.0984 97.1602 63.1143C81.3288 61.742 86.4031 56.8995 93.9393 52.9018Z" fill="#7AC1F4"/>
<path d="M54.18 56.4013C45.9068 51.7816 35.7976 53.1059 27.8008 58.1889L8.42861 70.5024C3.77362 73.4613 2.39863 79.6335 5.35748 84.2885C8.31633 88.9435 14.6061 90.3609 18.3179 86.2809C26.2604 77.5504 28.3533 68.439 51.2242 66.9682C67.3146 65.9335 61.9687 60.7504 54.18 56.4013Z" fill="#7AC1F4"/>
<ellipse cx="59.5253" cy="34" rx="3.5" ry="4" fill="#393939"/>
<ellipse cx="50.5253" cy="46" rx="7.5" ry="4" fill="#B1E5FE"/>
<ellipse cx="104.525" cy="46" rx="7.5" ry="4" fill="#B1E5FE"/>
<ellipse cx="93.5253" cy="34" rx="3.5" ry="4" fill="#393939"/>
<path d="M66.0253 43C66.0253 43 71.0577 47.5 76.5253 47.5C81.9929 47.5 87.0253 43 87.0253 43" stroke="#393939" stroke-width="3.5" stroke-linecap="round"/>
<rect x="52.0253" y="96" width="16" height="24" fill="#7AC1F4"/>
<rect x="86.0253" y="96" width="16" height="24" fill="#7AC1F4"/>
<rect x="86.0253" y="114" width="21" height="6" rx="3" fill="#7AC1F4"/>
<rect x="47.0253" y="114" width="21" height="6" rx="3" fill="#7AC1F4"/>
</svg>
