<svg width="194" height="199" viewBox="0 0 194 199" fill="none" xmlns="http://www.w3.org/2000/svg">
<g filter="url(#filter0_d_65_85)">
<path d="M6 26C6 14.9543 14.9543 6 26 6H180V185L102.375 133.105C95.5174 128.52 86.5483 128.616 79.7904 133.347L6 185V26Z" fill="#131313"/>
</g>
<g filter="url(#filter1_f_65_85)">
<path d="M83.7791 38.3995V46.31C83.7791 46.648 83.8831 46.8885 84.0911 47.0315C84.3035 47.1702 84.5765 47.2395 84.9101 47.2395C85.1181 47.2395 85.3153 47.2178 85.5016 47.1745C85.688 47.1312 85.8743 47.0727 86.0606 46.999L86.3531 47.7985C86.1668 47.8895 85.935 47.9697 85.6576 48.039C85.3846 48.1127 85.0748 48.1495 84.7281 48.1495C84.1215 48.1495 83.6296 47.9827 83.2526 47.649C82.8756 47.311 82.6871 46.8452 82.6871 46.2515V39.264H80.5876V38.3995H83.7791ZM89.767 44.9645C89.7887 45.4932 89.8905 45.9265 90.0725 46.2645C90.2545 46.5982 90.495 46.8452 90.794 47.0055C91.093 47.1615 91.418 47.2395 91.769 47.2395C92.12 47.2395 92.4364 47.1875 92.718 47.0835C93.004 46.9795 93.2965 46.8257 93.5955 46.622L94.109 47.3435C93.7884 47.5948 93.4222 47.792 93.0105 47.935C92.6032 48.078 92.185 48.1495 91.756 48.1495C91.093 48.1495 90.5275 48 90.0595 47.701C89.5915 47.402 89.234 46.986 88.987 46.453C88.7444 45.9157 88.623 45.2938 88.623 44.5875C88.623 43.8942 88.7465 43.2788 88.9935 42.7415C89.2405 42.2042 89.5872 41.7817 90.0335 41.474C90.4799 41.1663 91.0064 41.0125 91.613 41.0125C92.1894 41.0125 92.6855 41.149 93.1015 41.422C93.5175 41.6907 93.836 42.0763 94.057 42.579C94.2824 43.0773 94.395 43.6732 94.395 44.3665C94.395 44.4835 94.3929 44.594 94.3885 44.698C94.3842 44.7977 94.3777 44.8865 94.369 44.9645H89.767ZM91.626 41.9095C91.119 41.9095 90.6944 42.0893 90.352 42.449C90.014 42.8087 89.8212 43.3655 89.7735 44.1195H93.342C93.329 43.3872 93.1687 42.8368 92.861 42.4685C92.5534 42.0958 92.1417 41.9095 91.626 41.9095ZM102.138 47.6555C101.904 47.8115 101.62 47.9328 101.286 48.0195C100.953 48.1062 100.626 48.1495 100.305 48.1495C99.5683 48.1495 99.0006 47.9567 98.602 47.571C98.2033 47.1853 98.004 46.6892 98.004 46.0825V42.0005H96.431V41.1555H98.004V39.602L99.096 39.472V41.1555H101.462L101.332 42.0005H99.096V46.0695C99.096 46.4508 99.1956 46.7412 99.395 46.9405C99.5986 47.1398 99.9345 47.2395 100.402 47.2395C100.658 47.2395 100.894 47.2092 101.111 47.1485C101.328 47.0878 101.529 47.0098 101.715 46.9145L102.138 47.6555Z" fill="#5789EA"/>
<path d="M58.3494 62.4845C58.3494 62.0338 58.2606 61.6872 58.0829 61.4445C57.9096 61.1975 57.6777 61.0263 57.3874 60.931C57.0971 60.8357 56.7786 60.788 56.4319 60.788H54.9044V64.0705H56.3799C56.6009 64.0705 56.8262 64.0488 57.0559 64.0055C57.2856 63.9622 57.4979 63.8842 57.6929 63.7715C57.8922 63.6588 58.0504 63.5007 58.1674 63.297C58.2887 63.089 58.3494 62.8182 58.3494 62.4845ZM57.9919 58.3635C57.9919 57.8565 57.8337 57.4968 57.5174 57.2845C57.2054 57.0678 56.7786 56.9595 56.2369 56.9595H54.9044V59.8585H56.3474C56.8761 59.8585 57.2812 59.7415 57.5629 59.5075C57.8489 59.2692 57.9919 58.8878 57.9919 58.3635ZM59.5389 62.4455C59.5389 62.9308 59.4414 63.3382 59.2464 63.6675C59.0557 63.9968 58.7979 64.259 58.4729 64.454C58.1522 64.649 57.7926 64.7898 57.3939 64.8765C56.9996 64.9588 56.5966 65 56.1849 65H53.7799V56.0495H55.9834C56.3777 56.0495 56.7612 56.0863 57.1339 56.16C57.5109 56.2293 57.8489 56.3507 58.1479 56.524C58.4512 56.693 58.6939 56.9227 58.8759 57.213C59.0579 57.5033 59.1489 57.8673 59.1489 58.305C59.1489 58.6907 59.0687 59.0178 58.9084 59.2865C58.7524 59.5508 58.5466 59.7632 58.2909 59.9235C58.0396 60.0838 57.7709 60.1965 57.4849 60.2615C57.8186 60.3135 58.1414 60.4153 58.4534 60.567C58.7697 60.7143 59.0297 60.9397 59.2334 61.243C59.4371 61.542 59.5389 61.9428 59.5389 62.4455ZM64.2918 55.3995V63.31C64.2918 63.648 64.3958 63.8885 64.6038 64.0315C64.8161 64.1702 65.0891 64.2395 65.4228 64.2395C65.6308 64.2395 65.828 64.2178 66.0143 64.1745C66.2006 64.1312 66.387 64.0727 66.5733 63.999L66.8658 64.7985C66.6795 64.8895 66.4476 64.9697 66.1703 65.039C65.8973 65.1127 65.5875 65.1495 65.2408 65.1495C64.6341 65.1495 64.1423 64.9827 63.7653 64.649C63.3883 64.311 63.1998 63.8452 63.1998 63.2515V56.264H61.1003V55.3995H64.2918ZM72.0282 58.0125C72.6739 58.0125 73.2134 58.1598 73.6467 58.4545C74.0844 58.7448 74.4116 59.1565 74.6282 59.6895C74.8492 60.2225 74.9597 60.8508 74.9597 61.5745C74.9597 62.2722 74.8471 62.8897 74.6217 63.427C74.3964 63.9643 74.0649 64.3868 73.6272 64.6945C73.1939 64.9978 72.6566 65.1495 72.0152 65.1495C71.3739 65.1495 70.8344 65.0022 70.3967 64.7075C69.9591 64.4128 69.6276 63.999 69.4022 63.466C69.1812 62.9287 69.0707 62.3025 69.0707 61.5875C69.0707 60.8812 69.1834 60.2593 69.4087 59.722C69.6341 59.1847 69.9656 58.7665 70.4032 58.4675C70.8452 58.1642 71.3869 58.0125 72.0282 58.0125ZM72.0282 58.903C71.4389 58.903 70.9926 59.1218 70.6892 59.5595C70.3902 59.9928 70.2407 60.6688 70.2407 61.5875C70.2407 62.4888 70.3881 63.1583 70.6827 63.596C70.9817 64.0337 71.4259 64.2525 72.0152 64.2525C72.6046 64.2525 73.0466 64.0337 73.3412 63.596C73.6402 63.1583 73.7897 62.4845 73.7897 61.5745C73.7897 60.6645 73.6424 59.9928 73.3477 59.5595C73.0531 59.1218 72.6132 58.903 72.0282 58.903ZM80.3107 64.207C80.653 64.207 80.9715 64.1507 81.2662 64.038C81.5652 63.9253 81.8403 63.7823 82.0917 63.609L82.6247 64.324C82.3257 64.5797 81.966 64.7812 81.5457 64.9285C81.1253 65.0758 80.7137 65.1495 80.3107 65.1495C79.6303 65.1495 79.0497 65.0043 78.5687 64.714C78.092 64.4193 77.728 64.0077 77.4767 63.479C77.2253 62.946 77.0997 62.322 77.0997 61.607C77.0997 60.9223 77.2253 60.3092 77.4767 59.7675C77.7323 59.2215 78.0985 58.7925 78.5752 58.4805C79.0562 58.1685 79.639 58.0125 80.3237 58.0125C80.7613 58.0125 81.1708 58.0797 81.5522 58.214C81.9378 58.344 82.291 58.5412 82.6117 58.8055L82.0787 59.5335C81.7883 59.3298 81.4958 59.1782 81.2012 59.0785C80.9108 58.9745 80.614 58.9225 80.3107 58.9225C79.7213 58.9225 79.236 59.1435 78.8547 59.5855C78.4733 60.0275 78.2827 60.7013 78.2827 61.607C78.2827 62.2137 78.3693 62.7098 78.5427 63.0955C78.7203 63.4768 78.9608 63.7585 79.2642 63.9405C79.5718 64.1182 79.9207 64.207 80.3107 64.207ZM90.7446 58.1555L87.6636 61.2365L91.1021 65H89.6656L86.2986 61.2625L89.3276 58.1555H90.7446ZM86.1751 55.263V65H85.0831V55.3995L86.1751 55.263ZM95.9005 64.207C96.2428 64.207 96.5613 64.1507 96.856 64.038C97.155 63.9253 97.4302 63.7823 97.6815 63.609L98.2145 64.324C97.9155 64.5797 97.5558 64.7812 97.1355 64.9285C96.7152 65.0758 96.3035 65.1495 95.9005 65.1495C95.2202 65.1495 94.6395 65.0043 94.1585 64.714C93.6818 64.4193 93.3178 64.0077 93.0665 63.479C92.8152 62.946 92.6895 62.322 92.6895 61.607C92.6895 60.9223 92.8152 60.3092 93.0665 59.7675C93.3222 59.2215 93.6883 58.7925 94.165 58.4805C94.646 58.1685 95.2288 58.0125 95.9135 58.0125C96.3512 58.0125 96.7607 58.0797 97.142 58.214C97.5277 58.344 97.8808 58.5412 98.2015 58.8055L97.6685 59.5335C97.3782 59.3298 97.0857 59.1782 96.791 59.0785C96.5007 58.9745 96.2038 58.9225 95.9005 58.9225C95.3112 58.9225 94.8258 59.1435 94.4445 59.5855C94.0632 60.0275 93.8725 60.7013 93.8725 61.607C93.8725 62.2137 93.9592 62.7098 94.1325 63.0955C94.3102 63.4768 94.5507 63.7585 94.854 63.9405C95.1617 64.1182 95.5105 64.207 95.9005 64.207ZM103.208 58.0125C103.854 58.0125 104.393 58.1598 104.826 58.4545C105.264 58.7448 105.591 59.1565 105.808 59.6895C106.029 60.2225 106.139 60.8508 106.139 61.5745C106.139 62.2722 106.027 62.8897 105.801 63.427C105.576 63.9643 105.245 64.3868 104.807 64.6945C104.374 64.9978 103.836 65.1495 103.195 65.1495C102.554 65.1495 102.014 65.0022 101.576 64.7075C101.139 64.4128 100.807 63.999 100.582 63.466C100.361 62.9287 100.25 62.3025 100.25 61.5875C100.25 60.8812 100.363 60.2593 100.588 59.722C100.814 59.1847 101.145 58.7665 101.583 58.4675C102.025 58.1642 102.567 58.0125 103.208 58.0125ZM103.208 58.903C102.619 58.903 102.172 59.1218 101.869 59.5595C101.57 59.9928 101.42 60.6688 101.42 61.5875C101.42 62.4888 101.568 63.1583 101.862 63.596C102.161 64.0337 102.606 64.2525 103.195 64.2525C103.784 64.2525 104.226 64.0337 104.521 63.596C104.82 63.1583 104.969 62.4845 104.969 61.5745C104.969 60.6645 104.822 59.9928 104.527 59.5595C104.233 59.1218 103.793 58.903 103.208 58.903ZM111.861 58.1555V64.1355H113.791V65H108.656V64.1355H110.769V59.02H108.721V58.1555H111.861ZM110.99 54.951C111.233 54.951 111.425 55.0247 111.568 55.172C111.716 55.3193 111.789 55.4992 111.789 55.7115C111.789 55.9325 111.716 56.1188 111.568 56.2705C111.425 56.4178 111.233 56.4915 110.99 56.4915C110.76 56.4915 110.572 56.4178 110.424 56.2705C110.277 56.1188 110.203 55.9325 110.203 55.7115C110.203 55.4992 110.277 55.3193 110.424 55.172C110.572 55.0247 110.76 54.951 110.99 54.951ZM116.191 65V58.1555H117.121L117.205 59.1045C117.483 58.7535 117.829 58.4848 118.245 58.2985C118.666 58.1078 119.073 58.0125 119.467 58.0125C120.139 58.0125 120.626 58.1902 120.93 58.5455C121.237 58.9008 121.391 59.3948 121.391 60.0275V65H120.299V60.8335C120.299 60.3655 120.273 59.9885 120.221 59.7025C120.169 59.4122 120.061 59.202 119.896 59.072C119.732 58.9377 119.476 58.8705 119.129 58.8705C118.861 58.8705 118.607 58.929 118.369 59.046C118.135 59.163 117.925 59.3103 117.738 59.488C117.556 59.6613 117.405 59.8368 117.283 60.0145V65H116.191ZM126.313 64.246C126.838 64.246 127.251 64.1485 127.555 63.9535C127.862 63.7542 128.016 63.4898 128.016 63.1605C128.016 62.9525 127.977 62.7727 127.899 62.621C127.826 62.4693 127.672 62.3328 127.438 62.2115C127.204 62.0902 126.844 61.9688 126.359 61.8475C125.886 61.7305 125.475 61.5962 125.124 61.4445C124.777 61.2885 124.506 61.087 124.311 60.84C124.121 60.593 124.025 60.2723 124.025 59.878C124.025 59.4923 124.134 59.1608 124.35 58.8835C124.571 58.6018 124.877 58.3873 125.267 58.24C125.657 58.0883 126.11 58.0125 126.625 58.0125C127.176 58.0125 127.654 58.0862 128.062 58.2335C128.473 58.3765 128.822 58.5542 129.108 58.7665L128.627 59.5075C128.367 59.3298 128.081 59.1847 127.769 59.072C127.457 58.955 127.08 58.8965 126.638 58.8965C126.101 58.8965 125.72 58.981 125.494 59.15C125.269 59.3147 125.156 59.5292 125.156 59.7935C125.156 59.9928 125.21 60.1597 125.319 60.294C125.431 60.424 125.62 60.5432 125.884 60.6515C126.149 60.7555 126.513 60.8703 126.976 60.996C127.423 61.113 127.81 61.2538 128.14 61.4185C128.473 61.5832 128.733 61.7998 128.92 62.0685C129.106 62.3372 129.199 62.6838 129.199 63.1085C129.199 63.5938 129.061 63.9882 128.783 64.2915C128.506 64.5905 128.146 64.8093 127.704 64.948C127.267 65.0823 126.803 65.1495 126.313 65.1495C125.694 65.1495 125.165 65.0607 124.727 64.883C124.294 64.701 123.93 64.4822 123.635 64.2265L124.259 63.505C124.528 63.726 124.836 63.9058 125.182 64.0445C125.533 64.1788 125.91 64.246 126.313 64.246ZM82.3387 76.254V77.1965H77.2817V76.254H82.3387ZM82.3387 78.7175V79.6665H77.2817V78.7175H82.3387ZM94.9905 72.9065C95.5538 72.9065 96.0392 73.0083 96.4465 73.212C96.8582 73.4113 97.1767 73.6822 97.402 74.0245C97.6273 74.3625 97.74 74.7352 97.74 75.1425C97.74 75.5022 97.6598 75.8293 97.4995 76.124C97.3392 76.4187 97.1268 76.6613 96.8625 76.852C96.5982 77.0427 96.3078 77.1683 95.9915 77.229C96.3425 77.255 96.6718 77.3547 96.9795 77.528C97.2872 77.697 97.5385 77.9397 97.7335 78.256C97.9285 78.568 98.026 78.9558 98.026 79.4195C98.026 79.9352 97.896 80.401 97.636 80.817C97.376 81.2287 97.012 81.5537 96.544 81.792C96.0803 82.0303 95.5387 82.1495 94.919 82.1495C94.4207 82.1495 93.9223 82.0542 93.424 81.8635C92.93 81.6728 92.5118 81.3695 92.1695 80.9535L92.904 80.3555C93.1597 80.6545 93.463 80.8777 93.814 81.025C94.1693 81.1723 94.529 81.246 94.893 81.246C95.517 81.246 96.0045 81.0835 96.3555 80.7585C96.7065 80.4292 96.882 79.9828 96.882 79.4195C96.882 78.9948 96.7997 78.659 96.635 78.412C96.4747 78.165 96.2558 77.9895 95.9785 77.8855C95.7012 77.7772 95.3848 77.723 95.0295 77.723H94.2755L94.412 76.8585H94.9385C95.2288 76.8585 95.5018 76.8043 95.7575 76.696C96.0175 76.5833 96.2298 76.41 96.3945 76.176C96.5592 75.942 96.6415 75.6495 96.6415 75.2985C96.6415 74.8045 96.4768 74.4275 96.1475 74.1675C95.8182 73.9075 95.4195 73.7775 94.9515 73.7775C94.5615 73.7775 94.2213 73.8468 93.931 73.9855C93.6407 74.1198 93.3482 74.3257 93.0535 74.603L92.449 73.9335C92.8303 73.5738 93.2355 73.3138 93.6645 73.1535C94.0935 72.9888 94.5355 72.9065 94.9905 72.9065ZM105.626 73.0495L105.463 73.9205H101.927V76.7415C102.2 76.5942 102.458 76.4945 102.701 76.4425C102.948 76.3862 103.206 76.358 103.474 76.358C103.96 76.358 104.387 76.4685 104.755 76.6895C105.123 76.9062 105.409 77.2247 105.613 77.645C105.817 78.0653 105.918 78.5723 105.918 79.166C105.918 79.7597 105.793 80.2818 105.541 80.7325C105.294 81.1832 104.946 81.532 104.495 81.779C104.044 82.026 103.509 82.1495 102.889 82.1495C102.352 82.1495 101.871 82.0542 101.446 81.8635C101.026 81.6728 100.643 81.4085 100.296 81.0705L100.972 80.4205C101.245 80.6978 101.537 80.9058 101.849 81.0445C102.166 81.1788 102.517 81.246 102.902 81.246C103.492 81.246 103.951 81.0683 104.28 80.713C104.61 80.3533 104.774 79.8268 104.774 79.1335C104.774 78.6525 104.703 78.2733 104.56 77.996C104.417 77.7187 104.222 77.5215 103.975 77.4045C103.732 77.2832 103.461 77.2225 103.162 77.2225C102.898 77.2225 102.664 77.2485 102.46 77.3005C102.257 77.3482 102.025 77.4218 101.765 77.5215H100.887V73.0495H105.626Z" fill="white"/>
</g>
<defs>
<filter id="filter0_d_65_85" x="0" y="0" width="194" height="199" filterUnits="userSpaceOnUse" color-interpolation-filters="sRGB">
<feFlood flood-opacity="0" result="BackgroundImageFix"/>
<feColorMatrix in="SourceAlpha" type="matrix" values="0 0 0 0 0 0 0 0 0 0 0 0 0 0 0 0 0 0 127 0" result="hardAlpha"/>
<feOffset dx="4" dy="4"/>
<feGaussianBlur stdDeviation="5"/>
<feComposite in2="hardAlpha" operator="out"/>
<feColorMatrix type="matrix" values="0 0 0 0 0 0 0 0 0 0 0 0 0 0 0 0 0 0 0.25 0"/>
<feBlend mode="normal" in2="BackgroundImageFix" result="effect1_dropShadow_65_85"/>
<feBlend mode="normal" in="SourceGraphic" in2="effect1_dropShadow_65_85" result="shape"/>
</filter>
<filter id="filter1_f_65_85" x="49.7798" y="34.3995" width="83.4194" height="51.75" filterUnits="userSpaceOnUse" color-interpolation-filters="sRGB">
<feFlood flood-opacity="0" result="BackgroundImageFix"/>
<feBlend mode="normal" in="SourceGraphic" in2="BackgroundImageFix" result="shape"/>
<feGaussianBlur stdDeviation="2" result="effect1_foregroundBlur_65_85"/>
</filter>
</defs>
</svg>
