<svg width="353" height="147" viewBox="0 0 353 147" fill="none" xmlns="http://www.w3.org/2000/svg">
<ellipse cx="173" cy="137" rx="157" ry="10" fill="white"/>
<line x1="81.6254" y1="103.7" x2="84.6254" y2="99.7" stroke="#272727"/>
<rect x="33.0254" y="31" width="87" height="87" rx="20" fill="#7AC1F4"/>
<ellipse cx="72.7932" cy="29.7527" rx="4.5" ry="13" transform="rotate(20.5012 72.7932 29.7527)" fill="#7AC1F4"/>
<ellipse cx="81.7933" cy="29.7527" rx="4.5" ry="13" transform="rotate(37.2295 81.7933 29.7527)" fill="#7AC1F4"/>
<path d="M93.9393 68.9018C102.069 64.5891 111.851 66.0183 119.618 70.9552L139.837 83.8067C144.249 86.6113 145.552 92.4617 142.748 96.874C139.943 101.286 133.991 102.639 130.38 98.858C122.061 90.1485 120.048 81.0984 97.1603 79.1143C81.3288 77.742 86.4031 72.8995 93.9393 68.9018Z" fill="#7AC1F4"/>
<path d="M54.1799 72.4013C45.9067 67.7816 35.7975 69.1058 27.8006 74.1889L8.42849 86.5024C3.7735 89.4613 2.39851 95.6335 5.35736 100.288C8.31621 104.943 14.606 106.361 18.3178 102.281C26.2603 93.5504 28.3531 84.4389 51.224 82.9682C67.3144 81.9335 61.9686 76.7504 54.1799 72.4013Z" fill="#7AC1F4"/>
<ellipse cx="59.5254" cy="50" rx="3.5" ry="4" fill="#393939"/>
<ellipse cx="50.5254" cy="62" rx="7.5" ry="4" fill="#B1E5FE"/>
<ellipse cx="104.525" cy="62" rx="7.5" ry="4" fill="#B1E5FE"/>
<ellipse cx="93.5254" cy="50" rx="3.5" ry="4" fill="#393939"/>
<path d="M66.2144 58.2505C66.2144 58.2505 70.9101 63.1009 76.3635 63.4941C81.8169 63.8874 87.16 59.761 87.16 59.761" stroke="#393939" stroke-width="3.5" stroke-linecap="round"/>
<rect x="52.0254" y="112" width="16" height="24" fill="#7AC1F4"/>
<rect x="86.0254" y="112" width="16" height="24" fill="#7AC1F4"/>
<rect x="86.0254" y="130" width="21" height="6" rx="3" fill="#7AC1F4"/>
<rect x="47.0254" y="130" width="21" height="6" rx="3" fill="#7AC1F4"/>
<rect x="291.025" y="130" width="21" height="6" rx="3" fill="#B694FF"/>
<rect x="252.025" y="130" width="21" height="6" rx="3" fill="#B694FF"/>
<line x1="286.625" y1="103.7" x2="289.625" y2="99.7" stroke="#272727"/>
<rect x="238.025" y="31" width="87" height="87" rx="20" fill="#B694FF"/>
<path d="M298.94 68.9018C307.07 64.5891 316.851 66.0183 324.618 70.9552L344.837 83.8067C349.249 86.6113 350.552 92.4617 347.748 96.874C344.943 101.286 338.991 102.639 335.38 98.858C327.061 90.1485 325.048 81.0984 302.16 79.1143C286.329 77.742 291.403 72.8995 298.94 68.9018Z" fill="#B694FF"/>
<path d="M259.18 72.4013C250.907 67.7816 240.798 69.1058 232.801 74.1889L213.429 86.5024C208.774 89.4613 207.399 95.6335 210.358 100.288C213.316 104.943 219.606 106.361 223.318 102.281C231.261 93.5504 233.353 84.4389 256.224 82.9682C272.315 81.9335 266.969 76.7504 259.18 72.4013Z" fill="#B694FF"/>
<ellipse cx="264.525" cy="50" rx="3.5" ry="4" fill="#393939"/>
<ellipse cx="255.525" cy="62" rx="7.5" ry="4" fill="#D3C0FA"/>
<ellipse cx="309.525" cy="62" rx="7.5" ry="4" fill="#D3C0FA"/>
<ellipse cx="298.525" cy="50" rx="3.5" ry="4" fill="#393939"/>
<path d="M271.214 58.2505C271.214 58.2505 275.91 63.1009 281.363 63.4941C286.817 63.8874 292.16 59.761 292.16 59.761" stroke="#393939" stroke-width="3.5" stroke-linecap="round"/>
<rect x="257.025" y="112" width="16" height="24" fill="#B694FF"/>
<rect x="291.025" y="112" width="16" height="24" fill="#B694FF"/>
<line x1="289.86" y1="27.9237" x2="333.142" y2="44.0759" stroke="#743333" stroke-width="6" stroke-linecap="round"/>
<rect x="308.439" y="5.293" width="29.4756" height="26.1506" rx="2" transform="rotate(20.4645 308.439 5.293)" fill="#743333"/>
</svg>
