<svg width="189" height="199" viewBox="0 0 189 199" fill="none" xmlns="http://www.w3.org/2000/svg">
<g filter="url(#filter0_d_65_88)">
<path d="M175 165C175 176.046 166.046 185 155 185H1L51.4937 99.515C55.4602 92.7998 55.1613 84.3914 50.728 77.9748L1 6H175V165Z" fill="#131313"/>
</g>
<g filter="url(#filter1_f_65_88)">
<path d="M75.584 26.016C76.0373 26.016 76.448 26.056 76.816 26.136C77.184 26.216 77.5333 26.328 77.864 26.472L77.432 27.472C77.16 27.3547 76.872 27.2667 76.568 27.208C76.264 27.1493 75.9493 27.12 75.624 27.12C75.0373 27.12 74.5947 27.2347 74.296 27.464C74.0027 27.6933 73.856 28.0453 73.856 28.52V30.232H76.712L76.568 31.288H73.856V38H72.512V31.288H70.504V30.232H72.512V28.552C72.512 28.0293 72.6453 27.5787 72.912 27.2C73.184 26.8213 73.552 26.5307 74.016 26.328C74.48 26.12 75.0027 26.016 75.584 26.016ZM81.5458 29.576V35.544C81.5458 36.0987 81.6604 36.4987 81.8898 36.744C82.1191 36.9893 82.4764 37.112 82.9618 37.112C83.4258 37.112 83.8631 36.9813 84.2738 36.72C84.6898 36.4533 85.0124 36.1387 85.2418 35.776V29.576H86.5858V38H85.4418L85.3298 36.864C84.9991 37.2907 84.5911 37.6187 84.1058 37.848C83.6204 38.072 83.1298 38.184 82.6337 38.184C81.8178 38.184 81.2071 37.968 80.8018 37.536C80.4018 37.0987 80.2018 36.488 80.2018 35.704V29.576H81.5458ZM89.7955 38V29.576H90.9395L91.0435 30.744C91.3848 30.312 91.8115 29.9813 92.3235 29.752C92.8408 29.5173 93.3422 29.4 93.8275 29.4C94.6542 29.4 95.2542 29.6187 95.6275 30.056C96.0062 30.4933 96.1955 31.1013 96.1955 31.88V38H94.8515V32.872C94.8515 32.296 94.8195 31.832 94.7555 31.48C94.6915 31.1227 94.5582 30.864 94.3555 30.704C94.1528 30.5387 93.8382 30.456 93.4115 30.456C93.0808 30.456 92.7688 30.528 92.4755 30.672C92.1875 30.816 91.9288 30.9973 91.6995 31.216C91.4755 31.4293 91.2888 31.6453 91.1395 31.864V38H89.7955ZM103.197 37.024C103.619 37.024 104.011 36.9547 104.373 36.816C104.741 36.6773 105.08 36.5013 105.389 36.288L106.045 37.168C105.677 37.4827 105.235 37.7307 104.717 37.912C104.2 38.0933 103.693 38.184 103.197 38.184C102.36 38.184 101.645 38.0053 101.053 37.648C100.467 37.2853 100.019 36.7787 99.7093 36.128C99.3999 35.472 99.2453 34.704 99.2453 33.824C99.2453 32.9813 99.3999 32.2267 99.7093 31.56C100.024 30.888 100.475 30.36 101.061 29.976C101.653 29.592 102.371 29.4 103.213 29.4C103.752 29.4 104.256 29.4827 104.725 29.648C105.2 29.808 105.635 30.0507 106.029 30.376L105.373 31.272C105.016 31.0213 104.656 30.8347 104.293 30.712C103.936 30.584 103.571 30.52 103.197 30.52C102.472 30.52 101.875 30.792 101.405 31.336C100.936 31.88 100.701 32.7093 100.701 33.824C100.701 34.5707 100.808 35.1813 101.021 35.656C101.24 36.1253 101.536 36.472 101.909 36.696C102.288 36.9147 102.717 37.024 103.197 37.024ZM115.671 37.576C115.383 37.768 115.034 37.9173 114.623 38.024C114.212 38.1307 113.81 38.184 113.415 38.184C112.508 38.184 111.81 37.9467 111.319 37.472C110.828 36.9973 110.583 36.3867 110.583 35.64V30.616H108.647V29.576H110.583V27.664L111.927 27.504V29.576H114.839L114.679 30.616H111.927V35.624C111.927 36.0933 112.05 36.4507 112.295 36.696C112.546 36.9413 112.959 37.064 113.535 37.064C113.85 37.064 114.14 37.0267 114.407 36.952C114.674 36.8773 114.922 36.7813 115.151 36.664L115.671 37.576ZM122.841 29.576V36.936H125.217V38H118.897V36.936H121.497V30.64H118.977V29.576H122.841ZM121.769 25.632C122.067 25.632 122.305 25.7227 122.481 25.904C122.662 26.0853 122.753 26.3067 122.753 26.568C122.753 26.84 122.662 27.0693 122.481 27.256C122.305 27.4373 122.067 27.528 121.769 27.528C121.486 27.528 121.254 27.4373 121.073 27.256C120.891 27.0693 120.801 26.84 120.801 26.568C120.801 26.3067 120.891 26.0853 121.073 25.904C121.254 25.7227 121.486 25.632 121.769 25.632ZM131.379 29.4C132.173 29.4 132.837 29.5813 133.371 29.944C133.909 30.3013 134.312 30.808 134.579 31.464C134.851 32.12 134.987 32.8933 134.987 33.784C134.987 34.6427 134.848 35.4027 134.571 36.064C134.293 36.7253 133.885 37.2453 133.347 37.624C132.813 37.9973 132.152 38.184 131.363 38.184C130.573 38.184 129.909 38.0027 129.371 37.64C128.832 37.2773 128.424 36.768 128.147 36.112C127.875 35.4507 127.738 34.68 127.738 33.8C127.738 32.9307 127.877 32.1653 128.155 31.504C128.432 30.8427 128.84 30.328 129.379 29.96C129.923 29.5867 130.589 29.4 131.379 29.4ZM131.379 30.496C130.653 30.496 130.104 30.7653 129.731 31.304C129.363 31.8373 129.179 32.6693 129.179 33.8C129.179 34.9093 129.36 35.7333 129.723 36.272C130.091 36.8107 130.637 37.08 131.363 37.08C132.088 37.08 132.632 36.8107 132.995 36.272C133.363 35.7333 133.547 34.904 133.547 33.784C133.547 32.664 133.365 31.8373 133.003 31.304C132.64 30.7653 132.099 30.496 131.379 30.496ZM137.764 38V29.576H138.908L139.012 30.744C139.354 30.312 139.78 29.9813 140.292 29.752C140.81 29.5173 141.311 29.4 141.796 29.4C142.623 29.4 143.223 29.6187 143.596 30.056C143.975 30.4933 144.164 31.1013 144.164 31.88V38H142.82V32.872C142.82 32.296 142.788 31.832 142.724 31.48C142.66 31.1227 142.527 30.864 142.324 30.704C142.122 30.5387 141.807 30.456 141.38 30.456C141.05 30.456 140.738 30.528 140.444 30.672C140.156 30.816 139.898 30.9973 139.668 31.216C139.444 31.4293 139.258 31.6453 139.108 31.864V38H137.764Z" fill="#5789EA"/>
<path d="M149.15 32.4C149.15 33.232 149.222 33.9787 149.366 34.64C149.51 35.296 149.723 35.8987 150.006 36.448C150.289 36.992 150.643 37.5093 151.07 38C151.502 38.496 152.003 38.9973 152.574 39.504L151.87 40.24C151.006 39.5307 150.265 38.8053 149.646 38.064C149.033 37.3227 148.561 36.496 148.23 35.584C147.905 34.672 147.742 33.6107 147.742 32.4C147.742 31.184 147.905 30.12 148.23 29.208C148.561 28.296 149.033 27.4693 149.646 26.728C150.265 25.9867 151.006 25.264 151.87 24.56L152.574 25.296C151.998 25.808 151.494 26.312 151.062 26.808C150.635 27.2987 150.281 27.816 149.998 28.36C149.715 28.8987 149.502 29.4987 149.358 30.16C149.219 30.816 149.15 31.5627 149.15 32.4ZM161.544 32.4C161.544 31.5627 161.472 30.816 161.328 30.16C161.189 29.4987 160.978 28.8987 160.696 28.36C160.413 27.816 160.056 27.2987 159.624 26.808C159.197 26.312 158.696 25.808 158.12 25.296L158.824 24.56C159.693 25.264 160.434 25.9867 161.048 26.728C161.661 27.4693 162.13 28.296 162.456 29.208C162.786 30.12 162.952 31.184 162.952 32.4C162.952 33.6107 162.786 34.672 162.456 35.584C162.13 36.496 161.661 37.3227 161.048 38.064C160.434 38.8053 159.693 39.5307 158.824 40.24L158.12 39.504C158.69 38.9973 159.189 38.496 159.616 38C160.048 37.5093 160.405 36.992 160.688 36.448C160.97 35.8987 161.184 35.296 161.328 34.64C161.472 33.9787 161.544 33.232 161.544 32.4Z" fill="white"/>
<path d="M74.464 49.176V59H73.08V49.176H69.64V47.984H77.952L77.808 49.176H74.464ZM81.5458 47.056V51.728C81.8764 51.2853 82.2818 50.9547 82.7618 50.736C83.2471 50.512 83.7378 50.4 84.2338 50.4C85.0551 50.4 85.6551 50.6187 86.0338 51.056C86.4124 51.4933 86.6018 52.1013 86.6018 52.88V59H85.2578V52.912C85.2578 52.4053 85.1404 52.0373 84.9058 51.808C84.6711 51.5733 84.3031 51.456 83.8018 51.456C83.4818 51.456 83.1778 51.528 82.8898 51.672C82.6018 51.816 82.3431 51.9947 82.1138 52.208C81.8844 52.4213 81.6951 52.64 81.5458 52.864V59H80.2018V47.2L81.5458 47.056ZM90.8515 55.264C90.8782 55.9147 91.0035 56.448 91.2275 56.864C91.4515 57.2747 91.7475 57.5787 92.1155 57.776C92.4835 57.968 92.8835 58.064 93.3155 58.064C93.7475 58.064 94.1368 58 94.4835 57.872C94.8355 57.744 95.1955 57.5547 95.5635 57.304L96.1955 58.192C95.8008 58.5013 95.3502 58.744 94.8435 58.92C94.3422 59.096 93.8275 59.184 93.2995 59.184C92.4835 59.184 91.7875 59 91.2115 58.632C90.6355 58.264 90.1955 57.752 89.8915 57.096C89.5928 56.4347 89.4435 55.6693 89.4435 54.8C89.4435 53.9467 89.5955 53.1893 89.8995 52.528C90.2035 51.8667 90.6302 51.3467 91.1795 50.968C91.7288 50.5893 92.3768 50.4 93.1235 50.4C93.8328 50.4 94.4435 50.568 94.9555 50.904C95.4675 51.2347 95.8595 51.7093 96.1315 52.328C96.4088 52.9413 96.5475 53.6747 96.5475 54.528C96.5475 54.672 96.5448 54.808 96.5395 54.936C96.5342 55.0587 96.5262 55.168 96.5155 55.264H90.8515ZM93.1395 51.504C92.5155 51.504 91.9928 51.7253 91.5715 52.168C91.1555 52.6107 90.9182 53.296 90.8595 54.224H95.2515C95.2355 53.3227 95.0382 52.6453 94.6595 52.192C94.2808 51.7333 93.7742 51.504 93.1395 51.504ZM111.847 58.072C112.492 58.072 113.002 57.952 113.375 57.712C113.754 57.4667 113.943 57.1413 113.943 56.736C113.943 56.48 113.895 56.2587 113.799 56.072C113.708 55.8853 113.519 55.7173 113.231 55.568C112.943 55.4187 112.5 55.2693 111.903 55.12C111.322 54.976 110.815 54.8107 110.383 54.624C109.956 54.432 109.623 54.184 109.383 53.88C109.148 53.576 109.031 53.1813 109.031 52.696C109.031 52.2213 109.164 51.8133 109.431 51.472C109.703 51.1253 110.079 50.8613 110.559 50.68C111.039 50.4933 111.596 50.4 112.231 50.4C112.908 50.4 113.498 50.4907 113.999 50.672C114.506 50.848 114.935 51.0667 115.287 51.328L114.695 52.24C114.375 52.0213 114.023 51.8427 113.639 51.704C113.255 51.56 112.791 51.488 112.247 51.488C111.586 51.488 111.116 51.592 110.839 51.8C110.562 52.0027 110.423 52.2667 110.423 52.592C110.423 52.8373 110.49 53.0427 110.623 53.208C110.762 53.368 110.994 53.5147 111.319 53.648C111.644 53.776 112.092 53.9173 112.663 54.072C113.212 54.216 113.69 54.3893 114.095 54.592C114.506 54.7947 114.826 55.0613 115.055 55.392C115.284 55.7227 115.399 56.1493 115.399 56.672C115.399 57.2693 115.228 57.7547 114.887 58.128C114.546 58.496 114.103 58.7653 113.559 58.936C113.02 59.1013 112.45 59.184 111.847 59.184C111.084 59.184 110.434 59.0747 109.895 58.856C109.362 58.632 108.914 58.3627 108.551 58.048L109.319 57.16C109.65 57.432 110.028 57.6533 110.455 57.824C110.887 57.9893 111.351 58.072 111.847 58.072ZM119.633 55.264C119.659 55.9147 119.785 56.448 120.009 56.864C120.233 57.2747 120.529 57.5787 120.897 57.776C121.265 57.968 121.665 58.064 122.097 58.064C122.529 58.064 122.918 58 123.265 57.872C123.617 57.744 123.977 57.5547 124.345 57.304L124.977 58.192C124.582 58.5013 124.131 58.744 123.625 58.92C123.123 59.096 122.609 59.184 122.081 59.184C121.265 59.184 120.569 59 119.993 58.632C119.417 58.264 118.977 57.752 118.673 57.096C118.374 56.4347 118.225 55.6693 118.225 54.8C118.225 53.9467 118.377 53.1893 118.681 52.528C118.985 51.8667 119.411 51.3467 119.961 50.968C120.51 50.5893 121.158 50.4 121.905 50.4C122.614 50.4 123.225 50.568 123.737 50.904C124.249 51.2347 124.641 51.7093 124.913 52.328C125.19 52.9413 125.329 53.6747 125.329 54.528C125.329 54.672 125.326 54.808 125.321 54.936C125.315 55.0587 125.307 55.168 125.297 55.264H119.633ZM121.921 51.504C121.297 51.504 120.774 51.7253 120.353 52.168C119.937 52.6107 119.699 53.296 119.641 54.224H124.033C124.017 53.3227 123.819 52.6453 123.441 52.192C123.062 51.7333 122.555 51.504 121.921 51.504ZM128.171 59V50.576H129.315L129.419 51.744C129.76 51.312 130.187 50.9813 130.699 50.752C131.216 50.5173 131.717 50.4 132.203 50.4C133.029 50.4 133.629 50.6187 134.003 51.056C134.381 51.4933 134.571 52.1013 134.571 52.88V59H133.227V53.872C133.227 53.296 133.195 52.832 133.131 52.48C133.067 52.1227 132.933 51.864 132.731 51.704C132.528 51.5387 132.213 51.456 131.787 51.456C131.456 51.456 131.144 51.528 130.851 51.672C130.563 51.816 130.304 51.9973 130.075 52.216C129.851 52.4293 129.664 52.6453 129.515 52.864V59H128.171ZM142.804 47.016L144.148 47.184V59H142.972L142.844 57.888C142.53 58.336 142.167 58.664 141.756 58.872C141.351 59.08 140.916 59.184 140.452 59.184C139.722 59.184 139.119 59 138.644 58.632C138.17 58.264 137.818 57.752 137.588 57.096C137.359 56.4347 137.244 55.6693 137.244 54.8C137.244 53.9573 137.375 53.2053 137.636 52.544C137.898 51.8773 138.274 51.3547 138.764 50.976C139.26 50.592 139.855 50.4 140.548 50.4C141.034 50.4 141.46 50.4853 141.828 50.656C142.196 50.8213 142.522 51.0667 142.804 51.392V47.016ZM140.9 51.48C140.196 51.48 139.655 51.7547 139.276 52.304C138.898 52.8533 138.708 53.6853 138.708 54.8C138.708 55.5253 138.786 56.1333 138.94 56.624C139.095 57.1147 139.322 57.4827 139.62 57.728C139.924 57.9733 140.295 58.096 140.732 58.096C141.212 58.096 141.62 57.96 141.956 57.688C142.298 57.416 142.58 57.1093 142.804 56.768V52.56C142.575 52.2187 142.298 51.9547 141.972 51.768C141.647 51.576 141.29 51.48 140.9 51.48ZM148.414 55.264C148.441 55.9147 148.566 56.448 148.79 56.864C149.014 57.2747 149.31 57.5787 149.678 57.776C150.046 57.968 150.446 58.064 150.878 58.064C151.31 58.064 151.699 58 152.046 57.872C152.398 57.744 152.758 57.5547 153.126 57.304L153.758 58.192C153.363 58.5013 152.913 58.744 152.406 58.92C151.905 59.096 151.39 59.184 150.862 59.184C150.046 59.184 149.35 59 148.774 58.632C148.198 58.264 147.758 57.752 147.454 57.096C147.155 56.4347 147.006 55.6693 147.006 54.8C147.006 53.9467 147.158 53.1893 147.462 52.528C147.766 51.8667 148.193 51.3467 148.742 50.968C149.291 50.5893 149.939 50.4 150.686 50.4C151.395 50.4 152.006 50.568 152.518 50.904C153.03 51.2347 153.422 51.7093 153.694 52.328C153.971 52.9413 154.11 53.6747 154.11 54.528C154.11 54.672 154.107 54.808 154.102 54.936C154.097 55.0587 154.089 55.168 154.078 55.264H148.414ZM150.702 51.504C150.078 51.504 149.555 51.7253 149.134 52.168C148.718 52.6107 148.481 53.296 148.422 54.224H152.814C152.798 53.3227 152.601 52.6453 152.222 52.192C151.843 51.7333 151.337 51.504 150.702 51.504ZM157.032 59V57.968H158.344V51.608H157.032V50.576H159.368L159.616 52.568C159.941 51.8747 160.336 51.3387 160.8 50.96C161.264 50.5813 161.877 50.392 162.64 50.392C162.874 50.392 163.082 50.4107 163.264 50.448C163.45 50.48 163.64 50.5227 163.832 50.576L163.44 51.776C163.264 51.728 163.104 51.6933 162.96 51.672C162.816 51.6453 162.65 51.632 162.464 51.632C161.818 51.632 161.264 51.8613 160.8 52.32C160.336 52.7787 159.965 53.472 159.688 54.4V57.968H161.4V59H157.032ZM162.536 53.424V51.592L162.672 50.576H163.832L163.64 53.424H162.536ZM76.848 80H74.944L73.856 73.816L72.672 80H70.816L69.28 71.576H70.656L71.728 79.168L73.072 72.648H74.664L75.936 79.168L77.008 71.576H78.32L76.848 80ZM84.4658 71.576V78.936H86.8418V80H80.5218V78.936H83.1218V72.64H80.6018V71.576H84.4658ZM83.3938 67.632C83.6924 67.632 83.9298 67.7227 84.1058 67.904C84.2871 68.0853 84.3778 68.3067 84.3778 68.568C84.3778 68.84 84.2871 69.0693 84.1058 69.256C83.9298 69.4373 83.6924 69.528 83.3938 69.528C83.1111 69.528 82.8791 69.4373 82.6978 69.256C82.5164 69.0693 82.4258 68.84 82.4258 68.568C82.4258 68.3067 82.5164 68.0853 82.6978 67.904C82.8791 67.7227 83.1111 67.632 83.3938 67.632ZM93.0755 68.184V77.92C93.0755 78.336 93.2035 78.632 93.4595 78.808C93.7208 78.9787 94.0568 79.064 94.4675 79.064C94.7235 79.064 94.9662 79.0373 95.1955 78.984C95.4248 78.9307 95.6542 78.8587 95.8835 78.768L96.2435 79.752C96.0142 79.864 95.7288 79.9627 95.3875 80.048C95.0515 80.1387 94.6702 80.184 94.2435 80.184C93.4968 80.184 92.8915 79.9787 92.4275 79.568C91.9635 79.152 91.7315 78.5787 91.7315 77.848V69.248H89.1475V68.184H93.0755ZM102.669 68.184V77.92C102.669 78.336 102.797 78.632 103.053 78.808C103.315 78.9787 103.651 79.064 104.061 79.064C104.317 79.064 104.56 79.0373 104.789 78.984C105.019 78.9307 105.248 78.8587 105.477 78.768L105.837 79.752C105.608 79.864 105.323 79.9627 104.981 80.048C104.645 80.1387 104.264 80.184 103.837 80.184C103.091 80.184 102.485 79.9787 102.021 79.568C101.557 79.152 101.325 78.5787 101.325 77.848V69.248H98.7413V68.184H102.669ZM121.441 79.072C122.086 79.072 122.595 78.952 122.969 78.712C123.347 78.4667 123.537 78.1413 123.537 77.736C123.537 77.48 123.489 77.2587 123.393 77.072C123.302 76.8853 123.113 76.7173 122.825 76.568C122.537 76.4187 122.094 76.2693 121.497 76.12C120.915 75.976 120.409 75.8107 119.977 75.624C119.55 75.432 119.217 75.184 118.977 74.88C118.742 74.576 118.625 74.1813 118.625 73.696C118.625 73.2213 118.758 72.8133 119.025 72.472C119.297 72.1253 119.673 71.8613 120.153 71.68C120.633 71.4933 121.19 71.4 121.825 71.4C122.502 71.4 123.091 71.4907 123.593 71.672C124.099 71.848 124.529 72.0667 124.881 72.328L124.289 73.24C123.969 73.0213 123.617 72.8427 123.233 72.704C122.849 72.56 122.385 72.488 121.841 72.488C121.179 72.488 120.71 72.592 120.433 72.8C120.155 73.0027 120.017 73.2667 120.017 73.592C120.017 73.8373 120.083 74.0427 120.217 74.208C120.355 74.368 120.587 74.5147 120.913 74.648C121.238 74.776 121.686 74.9173 122.257 75.072C122.806 75.216 123.283 75.3893 123.689 75.592C124.099 75.7947 124.419 76.0613 124.649 76.392C124.878 76.7227 124.993 77.1493 124.993 77.672C124.993 78.2693 124.822 78.7547 124.481 79.128C124.139 79.496 123.697 79.7653 123.153 79.936C122.614 80.1013 122.043 80.184 121.441 80.184C120.678 80.184 120.027 80.0747 119.489 79.856C118.955 79.632 118.507 79.3627 118.145 79.048L118.913 78.16C119.243 78.432 119.622 78.6533 120.049 78.824C120.481 78.9893 120.945 79.072 121.441 79.072ZM129.227 76.264C129.253 76.9147 129.379 77.448 129.603 77.864C129.827 78.2747 130.123 78.5787 130.491 78.776C130.859 78.968 131.259 79.064 131.691 79.064C132.123 79.064 132.512 79 132.859 78.872C133.211 78.744 133.571 78.5547 133.939 78.304L134.571 79.192C134.176 79.5013 133.725 79.744 133.219 79.92C132.717 80.096 132.203 80.184 131.675 80.184C130.859 80.184 130.163 80 129.587 79.632C129.011 79.264 128.571 78.752 128.267 78.096C127.968 77.4347 127.819 76.6693 127.819 75.8C127.819 74.9467 127.971 74.1893 128.275 73.528C128.579 72.8667 129.005 72.3467 129.555 71.968C130.104 71.5893 130.752 71.4 131.499 71.4C132.208 71.4 132.819 71.568 133.331 71.904C133.843 72.2347 134.235 72.7093 134.507 73.328C134.784 73.9413 134.923 74.6747 134.923 75.528C134.923 75.672 134.92 75.808 134.915 75.936C134.909 76.0587 134.901 76.168 134.891 76.264H129.227ZM131.515 72.504C130.891 72.504 130.368 72.7253 129.947 73.168C129.531 73.6107 129.293 74.296 129.235 75.224H133.627C133.611 74.3227 133.413 73.6453 133.035 73.192C132.656 72.7333 132.149 72.504 131.515 72.504ZM137.764 80V71.576H138.908L139.012 72.744C139.354 72.312 139.78 71.9813 140.292 71.752C140.81 71.5173 141.311 71.4 141.796 71.4C142.623 71.4 143.223 71.6187 143.596 72.056C143.975 72.4933 144.164 73.1013 144.164 73.88V80H142.82V74.872C142.82 74.296 142.788 73.832 142.724 73.48C142.66 73.1227 142.527 72.864 142.324 72.704C142.122 72.5387 141.807 72.456 141.38 72.456C141.05 72.456 140.738 72.528 140.444 72.672C140.156 72.816 139.898 72.9973 139.668 73.216C139.444 73.4293 139.258 73.6453 139.108 73.864V80H137.764ZM152.398 68.016L153.742 68.184V80H152.566L152.438 78.888C152.123 79.336 151.761 79.664 151.35 79.872C150.945 80.08 150.51 80.184 150.046 80.184C149.315 80.184 148.713 80 148.238 79.632C147.763 79.264 147.411 78.752 147.182 78.096C146.953 77.4347 146.838 76.6693 146.838 75.8C146.838 74.9573 146.969 74.2053 147.23 73.544C147.491 72.8773 147.867 72.3547 148.358 71.976C148.854 71.592 149.449 71.4 150.142 71.4C150.627 71.4 151.054 71.4853 151.422 71.656C151.79 71.8213 152.115 72.0667 152.398 72.392V68.016ZM150.494 72.48C149.79 72.48 149.249 72.7547 148.87 73.304C148.491 73.8533 148.302 74.6853 148.302 75.8C148.302 76.5253 148.379 77.1333 148.534 77.624C148.689 78.1147 148.915 78.4827 149.214 78.728C149.518 78.9733 149.889 79.096 150.326 79.096C150.806 79.096 151.214 78.96 151.55 78.688C151.891 78.416 152.174 78.1093 152.398 77.768V73.56C152.169 73.2187 151.891 72.9547 151.566 72.768C151.241 72.576 150.883 72.48 150.494 72.48ZM73.32 89.736C74.0507 89.736 74.68 89.864 75.208 90.12C75.736 90.376 76.1413 90.7147 76.424 91.136C76.7067 91.5573 76.848 92.0213 76.848 92.528C76.848 92.9813 76.752 93.3867 76.56 93.744C76.368 94.1013 76.1067 94.3973 75.776 94.632C75.4453 94.8667 75.072 95.032 74.656 95.128C75.12 95.176 75.544 95.304 75.928 95.512C76.312 95.72 76.6187 96.016 76.848 96.4C77.0827 96.784 77.2 97.2667 77.2 97.848C77.2 98.4773 77.0347 99.048 76.704 99.56C76.3787 100.067 75.9147 100.469 75.312 100.768C74.7147 101.067 74.0107 101.216 73.2 101.216C72.5067 101.216 71.8453 101.088 71.216 100.832C70.592 100.576 70.0613 100.189 69.624 99.672L70.72 98.712C71.0347 99.08 71.4027 99.352 71.824 99.528C72.2453 99.704 72.6773 99.792 73.12 99.792C73.8027 99.792 74.344 99.616 74.744 99.264C75.144 98.9067 75.344 98.4133 75.344 97.784C75.344 97.304 75.2533 96.9253 75.072 96.648C74.896 96.3653 74.648 96.1627 74.328 96.04C74.008 95.9173 73.6373 95.856 73.216 95.856H72.264L72.472 94.536H73.144C73.4907 94.536 73.8107 94.4747 74.104 94.352C74.3973 94.224 74.632 94.0293 74.808 93.768C74.9893 93.5067 75.08 93.1813 75.08 92.792C75.08 92.2533 74.896 91.84 74.528 91.552C74.1653 91.264 73.7147 91.12 73.176 91.12C72.7173 91.12 72.3067 91.2053 71.944 91.376C71.5867 91.5413 71.2347 91.7867 70.888 92.112L69.936 91.096C70.4213 90.632 70.9467 90.2907 71.512 90.072C72.0773 89.848 72.68 89.736 73.32 89.736ZM86.5538 89.96L86.3218 91.304H82.0818V94.376C82.3964 94.2107 82.7004 94.0987 82.9938 94.04C83.2924 93.976 83.5911 93.944 83.8898 93.944C84.4764 93.944 84.9991 94.0827 85.4578 94.36C85.9164 94.6373 86.2764 95.0373 86.5378 95.56C86.8044 96.0827 86.9378 96.7147 86.9378 97.456C86.9378 98.192 86.7724 98.8453 86.4418 99.416C86.1164 99.9813 85.6578 100.424 85.0658 100.744C84.4738 101.059 83.7778 101.216 82.9778 101.216C82.2578 101.216 81.6178 101.088 81.0578 100.832C80.5031 100.571 80.0151 100.216 79.5938 99.768L80.6658 98.76C80.9751 99.1013 81.3138 99.36 81.6818 99.536C82.0551 99.7067 82.4631 99.792 82.9058 99.792C83.5778 99.792 84.1058 99.5893 84.4898 99.184C84.8791 98.7733 85.0738 98.1947 85.0738 97.448C85.0738 96.904 84.9938 96.4747 84.8338 96.16C84.6791 95.84 84.4658 95.6107 84.1938 95.472C83.9218 95.3333 83.6151 95.264 83.2738 95.264C82.9964 95.264 82.7351 95.2933 82.4898 95.352C82.2498 95.4107 81.9831 95.504 81.6898 95.632H80.3698V89.96H86.5538ZM75.888 118.808C75.888 118.312 75.792 117.928 75.6 117.656C75.408 117.384 75.1493 117.195 74.824 117.088C74.4987 116.976 74.1333 116.92 73.728 116.92H72.152V120.56H73.648C73.9147 120.56 74.1787 120.539 74.44 120.496C74.7067 120.448 74.9493 120.363 75.168 120.24C75.3867 120.112 75.56 119.933 75.688 119.704C75.8213 119.475 75.888 119.176 75.888 118.808ZM75.464 113.904C75.464 113.349 75.2907 112.952 74.944 112.712C74.5973 112.472 74.1093 112.352 73.48 112.352H72.152V115.544H73.592C74.2107 115.544 74.6773 115.416 74.992 115.16C75.3067 114.899 75.464 114.48 75.464 113.904ZM77.824 118.816C77.824 119.429 77.704 119.944 77.464 120.36C77.224 120.771 76.8987 121.096 76.488 121.336C76.0827 121.576 75.624 121.747 75.112 121.848C74.6 121.949 74.072 122 73.528 122H70.296V110.96H73.312C73.8293 110.96 74.328 111.005 74.808 111.096C75.288 111.181 75.7173 111.331 76.096 111.544C76.48 111.757 76.784 112.045 77.008 112.408C77.232 112.765 77.344 113.213 77.344 113.752C77.344 114.216 77.248 114.611 77.056 114.936C76.864 115.261 76.6107 115.525 76.296 115.728C75.9867 115.925 75.656 116.067 75.304 116.152C75.704 116.216 76.096 116.341 76.48 116.528C76.8693 116.709 77.1893 116.984 77.44 117.352C77.696 117.72 77.824 118.208 77.824 118.816ZM83.7298 110.16V119.696C83.7298 120.085 83.8471 120.363 84.0818 120.528C84.3218 120.688 84.6311 120.768 85.0098 120.768C85.2551 120.768 85.4871 120.741 85.7058 120.688C85.9244 120.635 86.1378 120.568 86.3458 120.488L86.8018 121.736C86.5511 121.864 86.2418 121.976 85.8738 122.072C85.5111 122.168 85.0951 122.216 84.6258 122.216C83.7778 122.216 83.1164 121.979 82.6418 121.504C82.1724 121.024 81.9378 120.368 81.9378 119.536V111.48H79.3858V110.16H83.7298ZM92.9955 113.328C93.8222 113.328 94.5182 113.512 95.0835 113.88C95.6488 114.248 96.0755 114.763 96.3635 115.424C96.6568 116.085 96.8035 116.864 96.8035 117.76C96.8035 118.651 96.6542 119.432 96.3555 120.104C96.0622 120.771 95.6302 121.291 95.0595 121.664C94.4942 122.032 93.8035 122.216 92.9875 122.216C92.1715 122.216 91.4782 122.037 90.9075 121.68C90.3422 121.317 89.9102 120.803 89.6115 120.136C89.3182 119.469 89.1715 118.683 89.1715 117.776C89.1715 116.896 89.3182 116.123 89.6115 115.456C89.9102 114.789 90.3448 114.269 90.9155 113.896C91.4862 113.517 92.1795 113.328 92.9955 113.328ZM92.9955 114.72C92.3502 114.72 91.8648 114.968 91.5395 115.464C91.2142 115.955 91.0515 116.725 91.0515 117.776C91.0515 118.821 91.2115 119.592 91.5315 120.088C91.8568 120.584 92.3422 120.832 92.9875 120.832C93.6328 120.832 94.1155 120.584 94.4355 120.088C94.7608 119.592 94.9235 118.816 94.9235 117.76C94.9235 116.72 94.7635 115.955 94.4435 115.464C94.1235 114.968 93.6408 114.72 92.9955 114.72ZM103.277 120.744C103.672 120.744 104.04 120.677 104.381 120.544C104.723 120.405 105.048 120.227 105.357 120.008L106.189 121.16C105.821 121.475 105.373 121.731 104.845 121.928C104.323 122.12 103.781 122.216 103.221 122.216C102.357 122.216 101.619 122.035 101.005 121.672C100.392 121.304 99.9226 120.789 99.5973 120.128C99.2719 119.467 99.1093 118.696 99.1093 117.816C99.1093 116.957 99.2719 116.192 99.5973 115.52C99.9279 114.843 100.403 114.309 101.021 113.92C101.64 113.525 102.384 113.328 103.253 113.328C103.829 113.328 104.36 113.413 104.845 113.584C105.331 113.755 105.776 114.008 106.181 114.344L105.357 115.472C105.027 115.243 104.688 115.069 104.341 114.952C104 114.829 103.648 114.768 103.285 114.768C102.619 114.768 102.072 115.013 101.645 115.504C101.224 115.995 101.013 116.765 101.013 117.816C101.013 118.52 101.109 119.088 101.301 119.52C101.499 119.947 101.768 120.259 102.109 120.456C102.451 120.648 102.84 120.744 103.277 120.744ZM116.239 113.552L112.823 117.328L116.599 122H114.407L110.775 117.376L114.151 113.552H116.239ZM110.647 109.96V122H108.855V110.16L110.647 109.96ZM122.465 120.744C122.859 120.744 123.227 120.677 123.569 120.544C123.91 120.405 124.235 120.227 124.545 120.008L125.377 121.16C125.009 121.475 124.561 121.731 124.033 121.928C123.51 122.12 122.969 122.216 122.409 122.216C121.545 122.216 120.806 122.035 120.193 121.672C119.579 121.304 119.11 120.789 118.785 120.128C118.459 119.467 118.297 118.696 118.297 117.816C118.297 116.957 118.459 116.192 118.785 115.52C119.115 114.843 119.59 114.309 120.209 113.92C120.827 113.525 121.571 113.328 122.441 113.328C123.017 113.328 123.547 113.413 124.033 113.584C124.518 113.755 124.963 114.008 125.369 114.344L124.545 115.472C124.214 115.243 123.875 115.069 123.529 114.952C123.187 114.829 122.835 114.768 122.473 114.768C121.806 114.768 121.259 115.013 120.833 115.504C120.411 115.995 120.201 116.765 120.201 117.816C120.201 118.52 120.297 119.088 120.489 119.52C120.686 119.947 120.955 120.259 121.297 120.456C121.638 120.648 122.027 120.744 122.465 120.744ZM131.371 113.328C132.197 113.328 132.893 113.512 133.459 113.88C134.024 114.248 134.451 114.763 134.739 115.424C135.032 116.085 135.179 116.864 135.179 117.76C135.179 118.651 135.029 119.432 134.731 120.104C134.437 120.771 134.005 121.291 133.435 121.664C132.869 122.032 132.179 122.216 131.363 122.216C130.547 122.216 129.853 122.037 129.283 121.68C128.717 121.317 128.285 120.803 127.987 120.136C127.693 119.469 127.547 118.683 127.547 117.776C127.547 116.896 127.693 116.123 127.987 115.456C128.285 114.789 128.72 114.269 129.291 113.896C129.861 113.517 130.555 113.328 131.371 113.328ZM131.371 114.72C130.725 114.72 130.24 114.968 129.915 115.464C129.589 115.955 129.427 116.725 129.427 117.776C129.427 118.821 129.587 119.592 129.907 120.088C130.232 120.584 130.717 120.832 131.363 120.832C132.008 120.832 132.491 120.584 132.811 120.088C133.136 119.592 133.299 118.816 133.299 117.76C133.299 116.72 133.139 115.955 132.819 115.464C132.499 114.968 132.016 114.72 131.371 114.72ZM142.196 113.552V120.688H144.492V122H137.876V120.688H140.404V114.864H137.956V113.552H142.196ZM140.948 109.416C141.3 109.416 141.583 109.523 141.796 109.736C142.015 109.949 142.124 110.216 142.124 110.536C142.124 110.856 142.015 111.125 141.796 111.344C141.583 111.563 141.3 111.672 140.948 111.672C140.607 111.672 140.327 111.563 140.108 111.344C139.89 111.125 139.78 110.856 139.78 110.536C139.78 110.216 139.89 109.949 140.108 109.736C140.327 109.523 140.607 109.416 140.948 109.416ZM147.174 122V113.552H148.718L148.854 114.648C149.206 114.216 149.622 113.888 150.102 113.664C150.582 113.44 151.075 113.328 151.582 113.328C152.371 113.328 152.961 113.549 153.35 113.992C153.745 114.429 153.942 115.045 153.942 115.84V122H152.15V116.728C152.15 116.237 152.121 115.843 152.062 115.544C152.003 115.245 151.886 115.029 151.71 114.896C151.539 114.763 151.283 114.696 150.942 114.696C150.67 114.696 150.411 114.755 150.166 114.872C149.921 114.989 149.697 115.144 149.494 115.336C149.291 115.523 149.115 115.723 148.966 115.936V122H147.174ZM159.84 120.84C160.4 120.84 160.845 120.741 161.176 120.544C161.506 120.341 161.672 120.064 161.672 119.712C161.672 119.483 161.624 119.288 161.528 119.128C161.432 118.963 161.24 118.813 160.952 118.68C160.664 118.541 160.226 118.397 159.64 118.248C159.085 118.104 158.597 117.933 158.176 117.736C157.76 117.539 157.437 117.283 157.208 116.968C156.978 116.653 156.864 116.248 156.864 115.752C156.864 115.267 157 114.843 157.272 114.48C157.544 114.117 157.933 113.835 158.44 113.632C158.952 113.429 159.552 113.328 160.24 113.328C160.949 113.328 161.568 113.421 162.096 113.608C162.624 113.795 163.074 114.027 163.448 114.304L162.696 115.432C162.365 115.213 162.002 115.035 161.608 114.896C161.218 114.757 160.778 114.688 160.288 114.688C159.717 114.688 159.306 114.773 159.056 114.944C158.81 115.115 158.688 115.341 158.688 115.624C158.688 115.832 158.749 116.008 158.872 116.152C159 116.291 159.218 116.421 159.528 116.544C159.837 116.661 160.274 116.8 160.84 116.96C161.389 117.109 161.866 117.285 162.272 117.488C162.682 117.691 163 117.96 163.224 118.296C163.453 118.627 163.568 119.059 163.568 119.592C163.568 120.2 163.392 120.699 163.04 121.088C162.693 121.472 162.234 121.757 161.664 121.944C161.098 122.125 160.49 122.216 159.84 122.216C159.056 122.216 158.378 122.104 157.808 121.88C157.237 121.651 156.757 121.365 156.368 121.024L157.32 119.936C157.65 120.203 158.029 120.421 158.456 120.592C158.882 120.757 159.344 120.84 159.84 120.84ZM77.296 142.576C77.008 142.768 76.6587 142.917 76.248 143.024C75.8373 143.131 75.4347 143.184 75.04 143.184C74.1333 143.184 73.4347 142.947 72.944 142.472C72.4533 141.997 72.208 141.387 72.208 140.64V135.616H70.272V134.576H72.208V132.664L73.552 132.504V134.576H76.464L76.304 135.616H73.552V140.624C73.552 141.093 73.6747 141.451 73.92 141.696C74.1707 141.941 74.584 142.064 75.16 142.064C75.4747 142.064 75.7653 142.027 76.032 141.952C76.2987 141.877 76.5467 141.781 76.776 141.664L77.296 142.576ZM83.4098 134.4C84.2044 134.4 84.8684 134.581 85.4018 134.944C85.9404 135.301 86.3431 135.808 86.6098 136.464C86.8818 137.12 87.0178 137.893 87.0178 138.784C87.0178 139.643 86.8791 140.403 86.6018 141.064C86.3244 141.725 85.9164 142.245 85.3778 142.624C84.8444 142.997 84.1831 143.184 83.3938 143.184C82.6044 143.184 81.9404 143.003 81.4018 142.64C80.8631 142.277 80.4551 141.768 80.1778 141.112C79.9058 140.451 79.7697 139.68 79.7697 138.8C79.7697 137.931 79.9084 137.165 80.1858 136.504C80.4631 135.843 80.8711 135.328 81.4098 134.96C81.9538 134.587 82.6204 134.4 83.4098 134.4ZM83.4098 135.496C82.6844 135.496 82.1351 135.765 81.7618 136.304C81.3938 136.837 81.2098 137.669 81.2098 138.8C81.2098 139.909 81.3911 140.733 81.7538 141.272C82.1218 141.811 82.6684 142.08 83.3938 142.08C84.1191 142.08 84.6631 141.811 85.0258 141.272C85.3938 140.733 85.5778 139.904 85.5778 138.784C85.5778 137.664 85.3964 136.837 85.0338 136.304C84.6711 135.765 84.1298 135.496 83.4098 135.496ZM106.077 142.576C105.789 142.768 105.44 142.917 105.029 143.024C104.619 143.131 104.216 143.184 103.821 143.184C102.915 143.184 102.216 142.947 101.725 142.472C101.235 141.997 100.989 141.387 100.989 140.64V135.616H99.0533V134.576H100.989V132.664L102.333 132.504V134.576H105.245L105.085 135.616H102.333V140.624C102.333 141.093 102.456 141.451 102.701 141.696C102.952 141.941 103.365 142.064 103.941 142.064C104.256 142.064 104.547 142.027 104.813 141.952C105.08 141.877 105.328 141.781 105.557 141.664L106.077 142.576ZM110.327 131.056V135.728C110.658 135.285 111.063 134.955 111.543 134.736C112.028 134.512 112.519 134.4 113.015 134.4C113.836 134.4 114.436 134.619 114.815 135.056C115.194 135.493 115.383 136.101 115.383 136.88V143H114.039V136.912C114.039 136.405 113.922 136.037 113.687 135.808C113.452 135.573 113.084 135.456 112.583 135.456C112.263 135.456 111.959 135.528 111.671 135.672C111.383 135.816 111.124 135.995 110.895 136.208C110.666 136.421 110.476 136.64 110.327 136.864V143H108.983V131.2L110.327 131.056ZM119.633 139.264C119.659 139.915 119.785 140.448 120.009 140.864C120.233 141.275 120.529 141.579 120.897 141.776C121.265 141.968 121.665 142.064 122.097 142.064C122.529 142.064 122.918 142 123.265 141.872C123.617 141.744 123.977 141.555 124.345 141.304L124.977 142.192C124.582 142.501 124.131 142.744 123.625 142.92C123.123 143.096 122.609 143.184 122.081 143.184C121.265 143.184 120.569 143 119.993 142.632C119.417 142.264 118.977 141.752 118.673 141.096C118.374 140.435 118.225 139.669 118.225 138.8C118.225 137.947 118.377 137.189 118.681 136.528C118.985 135.867 119.411 135.347 119.961 134.968C120.51 134.589 121.158 134.4 121.905 134.4C122.614 134.4 123.225 134.568 123.737 134.904C124.249 135.235 124.641 135.709 124.913 136.328C125.19 136.941 125.329 137.675 125.329 138.528C125.329 138.672 125.326 138.808 125.321 138.936C125.315 139.059 125.307 139.168 125.297 139.264H119.633ZM121.921 135.504C121.297 135.504 120.774 135.725 120.353 136.168C119.937 136.611 119.699 137.296 119.641 138.224H124.033C124.017 137.323 123.819 136.645 123.441 136.192C123.062 135.733 122.555 135.504 121.921 135.504ZM70.688 164V162.968H72V156.608H70.688V155.576H73.024L73.272 157.568C73.5973 156.875 73.992 156.339 74.456 155.96C74.92 155.581 75.5333 155.392 76.296 155.392C76.5307 155.392 76.7387 155.411 76.92 155.448C77.1067 155.48 77.296 155.523 77.488 155.576L77.096 156.776C76.92 156.728 76.76 156.693 76.616 156.672C76.472 156.645 76.3067 156.632 76.12 156.632C75.4747 156.632 74.92 156.861 74.456 157.32C73.992 157.779 73.6213 158.472 73.344 159.4V162.968H75.056V164H70.688ZM76.192 158.424V156.592L76.328 155.576H77.488L77.296 158.424H76.192ZM81.2578 160.264C81.2844 160.915 81.4098 161.448 81.6338 161.864C81.8578 162.275 82.1538 162.579 82.5218 162.776C82.8898 162.968 83.2898 163.064 83.7218 163.064C84.1538 163.064 84.5431 163 84.8898 162.872C85.2418 162.744 85.6018 162.555 85.9698 162.304L86.6018 163.192C86.2071 163.501 85.7564 163.744 85.2498 163.92C84.7484 164.096 84.2338 164.184 83.7058 164.184C82.8898 164.184 82.1938 164 81.6178 163.632C81.0418 163.264 80.6018 162.752 80.2978 162.096C79.9991 161.435 79.8498 160.669 79.8498 159.8C79.8498 158.947 80.0018 158.189 80.3058 157.528C80.6098 156.867 81.0364 156.347 81.5858 155.968C82.1351 155.589 82.7831 155.4 83.5298 155.4C84.2391 155.4 84.8498 155.568 85.3618 155.904C85.8738 156.235 86.2658 156.709 86.5378 157.328C86.8151 157.941 86.9538 158.675 86.9538 159.528C86.9538 159.672 86.9511 159.808 86.9458 159.936C86.9404 160.059 86.9324 160.168 86.9218 160.264H81.2578ZM83.5458 156.504C82.9218 156.504 82.3991 156.725 81.9778 157.168C81.5618 157.611 81.3244 158.296 81.2658 159.224H85.6578C85.6418 158.323 85.4444 157.645 85.0658 157.192C84.6871 156.733 84.1804 156.504 83.5458 156.504ZM93.6035 163.024C94.0248 163.024 94.4168 162.955 94.7795 162.816C95.1475 162.677 95.4862 162.501 95.7955 162.288L96.4515 163.168C96.0835 163.483 95.6408 163.731 95.1235 163.912C94.6062 164.093 94.0995 164.184 93.6035 164.184C92.7662 164.184 92.0515 164.005 91.4595 163.648C90.8728 163.285 90.4248 162.779 90.1155 162.128C89.8062 161.472 89.6515 160.704 89.6515 159.824C89.6515 158.981 89.8062 158.227 90.1155 157.56C90.4302 156.888 90.8808 156.36 91.4675 155.976C92.0595 155.592 92.7768 155.4 93.6195 155.4C94.1582 155.4 94.6622 155.483 95.1315 155.648C95.6062 155.808 96.0408 156.051 96.4355 156.376L95.7795 157.272C95.4222 157.021 95.0622 156.835 94.6995 156.712C94.3422 156.584 93.9768 156.52 93.6035 156.52C92.8782 156.52 92.2808 156.792 91.8115 157.336C91.3422 157.88 91.1075 158.709 91.1075 159.824C91.1075 160.571 91.2142 161.181 91.4275 161.656C91.6462 162.125 91.9422 162.472 92.3155 162.696C92.6942 162.915 93.1235 163.024 93.6035 163.024ZM100.445 160.264C100.472 160.915 100.597 161.448 100.821 161.864C101.045 162.275 101.341 162.579 101.709 162.776C102.077 162.968 102.477 163.064 102.909 163.064C103.341 163.064 103.731 163 104.077 162.872C104.429 162.744 104.789 162.555 105.157 162.304L105.789 163.192C105.395 163.501 104.944 163.744 104.437 163.92C103.936 164.096 103.421 164.184 102.893 164.184C102.077 164.184 101.381 164 100.805 163.632C100.229 163.264 99.7893 162.752 99.4853 162.096C99.1866 161.435 99.0373 160.669 99.0373 159.8C99.0373 158.947 99.1893 158.189 99.4933 157.528C99.7973 156.867 100.224 156.347 100.773 155.968C101.323 155.589 101.971 155.4 102.717 155.4C103.427 155.4 104.037 155.568 104.549 155.904C105.061 156.235 105.453 156.709 105.725 157.328C106.003 157.941 106.141 158.675 106.141 159.528C106.141 159.672 106.139 159.808 106.133 159.936C106.128 160.059 106.12 160.168 106.109 160.264H100.445ZM102.733 156.504C102.109 156.504 101.587 156.725 101.165 157.168C100.749 157.611 100.512 158.296 100.453 159.224H104.845C104.829 158.323 104.632 157.645 104.253 157.192C103.875 156.733 103.368 156.504 102.733 156.504ZM113.247 155.576V162.936H115.623V164H109.303V162.936H111.903V156.64H109.383V155.576H113.247ZM112.175 151.632C112.474 151.632 112.711 151.723 112.887 151.904C113.068 152.085 113.159 152.307 113.159 152.568C113.159 152.84 113.068 153.069 112.887 153.256C112.711 153.437 112.474 153.528 112.175 153.528C111.892 153.528 111.66 153.437 111.479 153.256C111.298 153.069 111.207 152.84 111.207 152.568C111.207 152.307 111.298 152.085 111.479 151.904C111.66 151.723 111.892 151.632 112.175 151.632ZM125.601 155.576L122.537 164H120.977L117.937 155.576H119.361L121.801 162.776L124.209 155.576H125.601ZM129.227 160.264C129.253 160.915 129.379 161.448 129.603 161.864C129.827 162.275 130.123 162.579 130.491 162.776C130.859 162.968 131.259 163.064 131.691 163.064C132.123 163.064 132.512 163 132.859 162.872C133.211 162.744 133.571 162.555 133.939 162.304L134.571 163.192C134.176 163.501 133.725 163.744 133.219 163.92C132.717 164.096 132.203 164.184 131.675 164.184C130.859 164.184 130.163 164 129.587 163.632C129.011 163.264 128.571 162.752 128.267 162.096C127.968 161.435 127.819 160.669 127.819 159.8C127.819 158.947 127.971 158.189 128.275 157.528C128.579 156.867 129.005 156.347 129.555 155.968C130.104 155.589 130.752 155.4 131.499 155.4C132.208 155.4 132.819 155.568 133.331 155.904C133.843 156.235 134.235 156.709 134.507 157.328C134.784 157.941 134.923 158.675 134.923 159.528C134.923 159.672 134.92 159.808 134.915 159.936C134.909 160.059 134.901 160.168 134.891 160.264H129.227ZM131.515 156.504C130.891 156.504 130.368 156.725 129.947 157.168C129.531 157.611 129.293 158.296 129.235 159.224H133.627C133.611 158.323 133.413 157.645 133.035 157.192C132.656 156.733 132.149 156.504 131.515 156.504ZM137.844 164V162.968H139.156V156.608H137.844V155.576H140.18L140.428 157.568C140.754 156.875 141.148 156.339 141.612 155.96C142.076 155.581 142.69 155.392 143.452 155.392C143.687 155.392 143.895 155.411 144.076 155.448C144.263 155.48 144.452 155.523 144.644 155.576L144.252 156.776C144.076 156.728 143.916 156.693 143.772 156.672C143.628 156.645 143.463 156.632 143.276 156.632C142.631 156.632 142.076 156.861 141.612 157.32C141.148 157.779 140.778 158.472 140.5 159.4V162.968H142.212V164H137.844ZM143.348 158.424V156.592L143.484 155.576H144.644L144.452 158.424H143.348ZM149.134 162.768C149.134 162.507 149.195 162.272 149.318 162.064C149.441 161.851 149.606 161.683 149.814 161.56C150.027 161.432 150.267 161.368 150.534 161.368C150.806 161.368 151.049 161.432 151.262 161.56C151.475 161.683 151.643 161.851 151.766 162.064C151.889 162.272 151.95 162.507 151.95 162.768C151.95 163.029 151.889 163.269 151.766 163.488C151.643 163.701 151.475 163.872 151.262 164C151.049 164.123 150.806 164.184 150.534 164.184C150.267 164.184 150.027 164.123 149.814 164C149.606 163.872 149.441 163.701 149.318 163.488C149.195 163.269 149.134 163.029 149.134 162.768Z" fill="#FCFCFC"/>
</g>
<defs>
<filter id="filter0_d_65_88" x="-5" y="0" width="194" height="199" filterUnits="userSpaceOnUse" color-interpolation-filters="sRGB">
<feFlood flood-opacity="0" result="BackgroundImageFix"/>
<feColorMatrix in="SourceAlpha" type="matrix" values="0 0 0 0 0 0 0 0 0 0 0 0 0 0 0 0 0 0 127 0" result="hardAlpha"/>
<feOffset dx="4" dy="4"/>
<feGaussianBlur stdDeviation="5"/>
<feComposite in2="hardAlpha" operator="out"/>
<feColorMatrix type="matrix" values="0 0 0 0 0 0 0 0 0 0 0 0 0 0 0 0 0 0 0.25 0"/>
<feBlend mode="normal" in2="BackgroundImageFix" result="effect1_dropShadow_65_88"/>
<feBlend mode="normal" in="SourceGraphic" in2="effect1_dropShadow_65_88" result="shape"/>
</filter>
<filter id="filter1_f_65_88" x="65.28" y="20.56" width="102.552" height="147.624" filterUnits="userSpaceOnUse" color-interpolation-filters="sRGB">
<feFlood flood-opacity="0" result="BackgroundImageFix"/>
<feBlend mode="normal" in="SourceGraphic" in2="BackgroundImageFix" result="shape"/>
<feGaussianBlur stdDeviation="2" result="effect1_foregroundBlur_65_88"/>
</filter>
</defs>
</svg>
